<!-- icon666.com - MILLIONS OF FREE VECTOR ICONS --><svg id="Flat" viewBox="0 0 128 128" xmlns="http://www.w3.org/2000/svg"><path d="m102.224 120.719-18.424-21.789a9.988 9.988 0 0 1 -2.08-8.82c1.489-6.085 3.78-16.319 3.78-21.61 0-7.833-5.338-11.147-13.359-31.732-1.356-3.48-3.086-6.421-5.3-6.065-1.841.297-2.841 2.321-2.841 4.161 0-1.84-1-3.864-2.844-4.161-2.211-.356-3.941 2.585-5.3 6.065-8.018 20.585-13.356 23.899-13.356 31.732 0 5.291 2.291 15.525 3.778 21.61a9.988 9.988 0 0 1 -2.08 8.82l-18.422 21.789a3 3 0 0 0 2.207 5.031h19.192a3 3 0 0 0 2.557-1.432l9.849-15.06a33.62 33.62 0 0 0 4.419-16.752 33.62 33.62 0 0 0 4.419 16.752l9.849 15.06a3 3 0 0 0 2.557 1.432h19.192a3 3 0 0 0 2.207-5.031z" fill="#ff8c83"></path><path d="m64 65.532a1.5 1.5 0 0 1 -1.5-1.5v-29.168a1.5 1.5 0 0 1 3 0v29.168a1.5 1.5 0 0 1 -1.5 1.5z" fill="#ed4559"></path><g fill="#ffb95c"><path d="m64.457 17.234h-.914a2.725 2.725 0 0 1 -2.7-2.344l-1.08-9.517a2.725 2.725 0 0 1 2.7-3.106h3.078a2.725 2.725 0 0 1 2.7 3.106l-1.086 9.517a2.725 2.725 0 0 1 -2.698 2.344z"></path><path d="m44.705 24.406-.772.489a2.726 2.726 0 0 1 -3.534-.538l-6-7.463a2.725 2.725 0 0 1 .619-4.068l2.6-1.646a2.726 2.726 0 0 1 3.941 1.182l4.174 8.621a2.724 2.724 0 0 1 -1.028 3.423z"></path><path d="m83.3 24.406.772.489a2.726 2.726 0 0 0 3.534-.538l6-7.463a2.725 2.725 0 0 0 -.619-4.068l-2.6-1.646a2.726 2.726 0 0 0 -3.941 1.182l-4.174 8.621a2.724 2.724 0 0 0 1.028 3.423z"></path></g><path d="m64 94.006a1.5 1.5 0 0 1 -1.5-1.5v-28.506c-.005-2.749-.5-8.831-1.251-10.115-.888-1.508-1.6-1.382-1.983-1.312-.495.088-1.107.8-1.466 5.531-.371 4.882-.616 8.108-4.2 12.8a1.5 1.5 0 0 1 -2.383-1.822c2.925-3.825 3.216-6.2 3.6-11.207.318-4.188.834-7.7 3.926-8.256 1.443-.258 3.492.008 5.1 2.745 1.518 2.596 1.657 11.545 1.657 11.636v28.506a1.5 1.5 0 0 1 -1.5 1.5z" fill="#ed4559"></path><path d="m64 94.006a1.5 1.5 0 0 1 -1.5-1.5v-28.506c0-.091.139-9.04 1.665-11.635 1.609-2.736 3.66-3 5.1-2.745 3.092.556 3.608 4.068 3.926 8.256.38 5.007.671 7.382 3.6 11.207a1.5 1.5 0 0 1 -2.383 1.822c-3.589-4.693-3.834-7.919-4.2-12.8-.359-4.734-.971-5.443-1.466-5.531-.38-.069-1.095-.2-1.983 1.312-.759 1.283-1.254 7.365-1.259 10.114v28.5a1.5 1.5 0 0 1 -1.5 1.506z" fill="#ed4559"></path></svg>