<!-- icon666.com - MILLIONS OF FREE VECTOR ICONS --><svg id="Capa_1" enable-background="new 0 0 512 512" viewBox="0 0 512 512" xmlns="http://www.w3.org/2000/svg" xmlns:xlink="http://www.w3.org/1999/xlink"><linearGradient id="SVGID_1_" gradientUnits="userSpaceOnUse" x1="256" x2="256" y1="392" y2="0"><stop offset="0" stop-color="#fd5900"></stop><stop offset="1" stop-color="#ffde00"></stop></linearGradient><linearGradient id="SVGID_2_" gradientUnits="userSpaceOnUse" x1="256" x2="256" y1="512" y2="242"><stop offset="0" stop-color="#ffe59a"></stop><stop offset="1" stop-color="#ffffd5"></stop></linearGradient><g id="Mineral_water_2_"><g><g><path d="m372.982 189.705-104.003-182.74c-5.332-9.287-20.625-9.287-25.957 0l-104.004 182.74c-11.778 20.405-18.018 43.667-18.018 67.295 0 74.443 60.557 135 135 135s135-60.557 135-135c0-23.628-6.24-46.89-18.018-67.295z" fill="url(#SVGID_1_)"></path></g></g><g><g><path d="m431.488 303.919c-7.529-3.325-16.406.132-19.746 7.734-3.311 7.603.146 16.436 7.734 19.761 39.112 17.051 62.524 39.141 62.524 60.586 0 42.568-93.402 90-226 90s-226-47.432-226-90c0-21.445 23.412-43.535 62.523-60.586 7.588-3.325 11.045-12.158 7.734-19.761s-12.129-11.06-19.746-7.734c-51.269 22.368-80.511 53.657-80.511 88.081 0 67.295 113.002 120 256 120s256-52.705 256-120c0-34.424-29.242-65.713-80.512-88.081zm-175.488 28.081c41.367 0 75-33.647 75-75 0-8.291-6.709-15-15-15s-15 6.709-15 15c0 24.814-20.186 45-45 45-8.291 0-15 6.709-15 15s6.709 15 15 15z" fill="url(#SVGID_2_)"></path></g></g></g></svg>