<svg width="360" height="800" viewBox="0 0 360 800" fill="none" xmlns="http://www.w3.org/2000/svg">
  <rect width="360" height="800" fill="#231a33"/>
  <path d="M0 80C60 60 120 120 180 100C240 80 300 20 360 40V800H0V80Z" fill="#3a2566"/>
  <path d="M0 200C60 180 120 240 180 220C240 200 300 140 360 160V800H0V200Z" fill="#4b2e7a"/>
  <path d="M0 320C60 300 120 360 180 340C240 320 300 260 360 280V800H0V320Z" fill="#5c3e91"/>
  <path d="M0 440C60 420 120 480 180 460C240 440 300 380 360 400V800H0V440Z" fill="#7e5fd4"/>
  <path d="M0 560C60 540 120 600 180 580C240 560 300 500 360 520V800H0V560Z" fill="#a18ec1"/>
</svg> 