<!-- icon666.com - MILLIONS OF FREE VECTOR ICONS --><svg enable-background="new 0 0 512 512" viewBox="0 0 512 512" xmlns="http://www.w3.org/2000/svg" xmlns:xlink="http://www.w3.org/1999/xlink"><linearGradient id="lg1"><stop offset="0" stop-color="#ff428d"></stop><stop offset="1" stop-color="#ffae46"></stop></linearGradient><linearGradient id="SVGID_1_" gradientUnits="userSpaceOnUse" x1="154.08" x2="357.937" xlink:href="#lg1" y1="496.271" y2="292.414"></linearGradient><linearGradient id="SVGID_2_" gradientUnits="userSpaceOnUse" x1="110.007" x2="402.428" xlink:href="#lg1" y1="453.08" y2="160.659"></linearGradient><g id="_x30_5_Yoga"><g><path d="m318.578 466.822c-10.979-35.657-41.2-57.296-76.057-70.408-53.192-20.36-93.486-32.512-126.69-38.162-18.921-3.251-36.563 4.371-44.877 19.294-7.249 13.112-5.117 28.781 5.596 40.88 29.847 33.578 81.387 55.271 131.274 55.271h105.691c1.652 0 3.251-.799 4.264-2.185 1.013-1.332 1.332-3.091.799-4.69zm122.48-89.275c-8.315-14.924-25.903-22.545-44.877-19.294-33.205 5.65-73.445 17.802-126.69 38.162-.16.053-.373.16-.533.213 2.718 1.386 5.33 2.878 7.888 4.371 27.396 16.576 43.865 36.509 51.913 62.679.853 2.612.959 5.49.266 8.261 41.573-5.756 81.547-25.477 106.437-53.512 10.713-12.098 12.898-27.768 5.596-40.88z" fill="url(#SVGID_1_)"></path><path d="m493.771 309.698c-31.286-8.581-52.392-20.787-70.674-40.933-69.235-76.484-84.691-60.121-132.393-73.712l-5.969-17.642c19.507-13.911 29.421-28.142 29.421-42.266v-38.641c0-31.873-25.796-58.202-58.095-58.202s-58.202 27.449-58.202 60.44v36.403c0 14.177 9.913 28.355 29.421 42.212l-5.972 17.643c-57.936 15.936-66.57.746-132.447 73.765-18.175 20.147-39.334 32.352-70.674 40.88-13.91 3.784-21.532 18.655-16.469 31.979 4.371 11.885 17.322 18.548 29.474 15.137 91.993-25.743 88.636-46.85 131.967-85.811 2.771-2.612 5.863-1.546 6.769-1.119 2.239.96 3.625 3.091 3.625 5.597v85.811c21.372 6.449 45.41 14.764 72.752 25.21 3.304 1.226 6.556 2.559 9.7 3.997 3.145-1.439 6.449-2.771 9.754-3.997 27.342-10.446 51.327-18.761 72.699-25.157v-85.864c0-2.505 1.332-4.637 3.625-5.65 2.292-1.013 4.85-.587 6.769 1.172 45.517 41.147 40.134 60.121 131.967 85.811 12.259 3.464 24.997-3.038 29.527-15.084 4.957-13.484-2.771-28.301-16.575-31.979zm-237.819-89.008c-11.885 0-24.144-6.236-25.263-20.094l6.076-17.855c12.632 5.49 27.022 5.01 38.535.053l6.023 17.802c-1.12 13.858-13.378 20.094-25.371 20.094z" fill="url(#SVGID_2_)"></path></g></g></svg>