<!-- icon666.com - MILLIONS OF FREE VECTOR ICONS --><svg version="1.1" id="Capa_1" xmlns="http://www.w3.org/2000/svg" xmlns:xlink="http://www.w3.org/1999/xlink" x="0px" y="0px" viewBox="0 0 49.439 49.439" style="enable-background:new 0 0 49.439 49.439;" xml:space="preserve"><g><g><path style="fill:#010002;" d="M13.819,20.039c0.087,0.042,0.179,0.064,0.274,0.064c0.24,0,0.456-0.134,0.561-0.351l8.708-17.827 l8.425,13.816l-0.44,0.065c-0.23,0.034-0.295,0.161-0.312,0.233c-0.047,0.192,0.11,0.429,0.442,0.669l1.856,1.336 c0.312,0.224,0.598,0.237,0.756,0.055c0.106-0.124,0.143-0.324,0.105-0.58l-0.339-2.262c-0.067-0.449-0.232-0.707-0.453-0.707 c-0.073,0-0.184,0.031-0.289,0.179l-0.259,0.361l-9.02-14.791C23.719,0.109,23.523,0,23.273,0h-0.001 c-0.229,0.011-0.433,0.146-0.532,0.351l-9.209,18.852C13.38,19.513,13.509,19.888,13.819,20.039z"></path><path style="fill:#010002;" d="M23.39,47.295H1.641l9.179-18.793l0.291,0.336c0.088,0.101,0.182,0.152,0.279,0.152 c0.234,0,0.384-0.273,0.41-0.747l0.127-2.284c0.014-0.247-0.037-0.439-0.146-0.554c-0.172-0.181-0.462-0.148-0.761,0.112 l-1.723,1.504c-0.309,0.269-0.443,0.52-0.379,0.706c0.024,0.071,0.1,0.191,0.333,0.204l0.444,0.023L0.078,47.646 c-0.096,0.195-0.084,0.421,0.031,0.605c0.114,0.185,0.312,0.294,0.53,0.294h22.75c0.345,0,0.625-0.28,0.625-0.625 C24.015,47.575,23.735,47.295,23.39,47.295z"></path><path style="fill:#010002;" d="M49.361,47.646L38.145,24.679c-0.15-0.302-0.533-0.435-0.836-0.287 c-0.15,0.073-0.263,0.201-0.316,0.358c-0.055,0.158-0.044,0.327,0.029,0.477l10.777,22.068H29.693l0.175-0.41 c0.073-0.172,0.039-0.284-0.003-0.348c-0.042-0.063-0.131-0.138-0.316-0.138c-0.141,0-0.319,0.044-0.518,0.127l-2.108,0.889 c-0.398,0.169-0.458,0.388-0.458,0.504s0.06,0.335,0.458,0.504l2.108,0.889c0.198,0.083,0.377,0.127,0.518,0.127 c0.185,0,0.274-0.075,0.316-0.138c0.042-0.064,0.076-0.175,0.003-0.348l-0.175-0.41H48.8c0.218,0,0.416-0.11,0.529-0.294 C49.445,48.067,49.457,47.84,49.361,47.646z"></path></g></g></svg>