<!-- icon666.com - MILLIONS OF FREE VECTOR ICONS --><svg id="Bahan_copy_2" viewBox="0 0 64 64" xmlns="http://www.w3.org/2000/svg" data-name="Bahan copy 2"><path d="m56.10938 50.33063v-36.66126a4.8859 4.8859 0 1 0 -5.77875-5.77874h-36.6612a4.88591 4.88591 0 1 0 -5.7788 5.77856v36.66162a4.88583 4.88583 0 1 0 5.7788 5.77857h36.6612a4.8859 4.8859 0 1 0 5.77875-5.77875zm-5.7757 3.77875h-36.6673a4.89919 4.89919 0 0 0 -3.77575-3.77588v-36.667a4.89919 4.89919 0 0 0 3.77575-3.77587h36.6673a4.89982 4.89982 0 0 0 3.7757 3.77569v36.66736a4.89982 4.89982 0 0 0 -3.7757 3.7757zm4.78058-48.10938a2.88642 2.88642 0 0 1 -.00009 5.77246 2.88642 2.88642 0 0 1 .00009-5.77246zm-49.11426 2.88574a2.88642 2.88642 0 0 1 5.77246.00009 2.88642 2.88642 0 0 1 -5.77246-.00009zm2.88623 49.11426a2.88641 2.88641 0 0 1 .00009-5.77246 2.88641 2.88641 0 0 1 -.00009 5.77246zm46.228 0a2.88641 2.88641 0 0 1 .00009-5.77246 2.88641 2.88641 0 0 1 -.00006 5.77246z" fill="rgb(0,0,0)"></path></svg>