<!-- icon666.com - MILLIONS OF FREE VECTOR ICONS --><svg viewBox="-26 0 289 289" xmlns="http://www.w3.org/2000/svg"><path d="m216.300781 80.601562-107.300781-21c-9.601562-1.902343-18.800781 4.398438-20.699219 13.898438l-32.601562 166.300781c-1.898438 9.597657 4.402343 18.800781 13.902343 20.699219l107.296876 21c9.601562 1.898438 18.800781-4.398438 20.703124-13.898438l32.597657-166.300781c1.902343-9.5-4.398438-18.800781-13.898438-20.699219zm0 0" fill="#7dac51"></path><path d="m224.5 84.699219-164 171.101562c2.398438 2.398438 5.5 4.097657 9.101562 4.800781l107.296876 21c9.601562 1.898438 18.800781-4.402343 20.703124-13.902343l32.597657-166.300781c1.300781-6.5-1.097657-12.699219-5.699219-16.699219zm0 0" fill="#5b7c31" style="fill: rgb(233, 243, 221);"></path><g fill="#463218"><path d="m180.300781 289c-1.601562 0-3.199219-.199219-4.800781-.5l-107.300781-21c-13.300781-2.601562-22.097657-15.601562-19.5-28.898438l32.601562-166.300781c1.300781-6.5 5-12 10.398438-15.699219 5.5-3.703124 12-5 18.5-3.703124l107.300781 21c13.300781 2.601562 22.101562 15.601562 19.5 28.902343l-32.601562 166.300781c-1.296876 6.5-5 12-10.398438 15.699219-4.101562 2.699219-8.800781 4.199219-13.699219 4.199219zm-74.800781-222.699219c-2.101562 0-4.101562.597657-5.898438 1.800781-2.402343 1.597657-4 4-4.5 6.796876l-32.601562 166.300781c-.5 2.800781 0 5.601562 1.601562 8 1.597657 2.402343 4 4 6.796876 4.5l107.300781 21c2.800781.5 5.601562 0 8-1.597657 2.402343-1.601562 4-4 4.5-6.800781l32.601562-166.300781c1.097657-5.800781-2.601562-11.398438-8.402343-12.5l-107.296876-21c-.703124-.199219-1.402343-.199219-2.101562-.199219zm0 0" fill="#463218"></path><path d="m206.199219 109.101562c-.398438 0-.898438 0-1.398438-.101562l-24.601562-4.800781c-3.800781-.699219-6.300781-4.398438-5.5-8.199219.699219-3.800781 4.402343-6.300781 8.199219-5.5l24.601562 4.800781c3.800781.699219 6.300781 4.398438 5.5 8.199219-.601562 3.300781-3.5 5.601562-6.800781 5.601562zm0 0" fill="#463218"></path><path d="m107.101562 250.699219c-.402343 0-.902343 0-1.402343-.097657l-24.597657-4.800781c-3.800781-.699219-6.300781-4.402343-5.5-8.199219.796876-3.800781 4.398438-6.300781 8.199219-5.5l24.597657 4.796876c3.800781.703124 6.300781 4.402343 5.5 8.203124-.597657 3.296876-3.5 5.597657-6.796876 5.597657zm0 0" fill="#463218"></path></g><path d="m100.601562 158.070312 53.9375-36.269531 36.269532 53.9375-53.9375 36.269531zm0 0" fill="#d6cd1e"></path><path d="m136.898438 219c-2.296876 0-4.5-1.101562-5.796876-3.101562l-36.300781-53.898438c-2.199219-3.199219-1.300781-7.601562 1.898438-9.699219l53.902343-36.300781c3.199219-2.199219 7.597657-1.300781 9.699219 1.898438l36.300781 53.902343c2.199219 3.199219 1.296876 7.597657-1.902343 9.699219l-53.898438 36.300781c-1.199219.800781-2.5 1.199219-3.902343 1.199219zm-26.5-59 28.5 42.300781 42.300781-28.5-28.5-42.300781zm0 0" fill="#463218"></path><path d="m134.101562 7h-109.402343c-9.699219 0-17.699219 7.898438-17.699219 17.699219v169.5c0 9.699219 7.898438 17.699219 17.699219 17.699219h109.402343c9.699219 0 17.699219-7.898438 17.699219-17.699219v-169.5c-.101562-9.699219-8-17.699219-17.699219-17.699219zm0 0" fill="#fe8e46"></path><path d="m142.898438 9.398438-128 199.402343c2.800781 1.898438 6.203124 3 9.800781 3h109.402343c9.699219 0 17.699219-7.902343 17.699219-17.699219v-169.402343c-.101562-6.5-3.601562-12.199219-8.902343-15.300781zm0 0" fill="#e56823"></path><path d="m134.101562 218.800781h-109.402343c-13.597657 0-24.699219-11.101562-24.699219-24.699219v-169.402343c0-13.597657 11.101562-24.699219 24.699219-24.699219h109.402343c13.597657 0 24.699219 11.101562 24.699219 24.699219v169.5c-.101562 13.601562-11.101562 24.601562-24.699219 24.601562zm-109.402343-204.800781c-5.898438 0-10.699219 4.800781-10.699219 10.699219v169.5c0 5.902343 4.800781 10.699219 10.699219 10.699219h109.402343c5.898438 0 10.699219-4.796876 10.699219-10.699219v-169.5c0-5.898438-4.800781-10.699219-10.699219-10.699219zm0 0" fill="#463218"></path><path d="m128.398438 37h-25.097657c-3.902343 0-7-3.101562-7-7s3.097657-7 7-7h25.097657c3.902343 0 7 3.101562 7 7s-3.199219 7-7 7zm0 0" fill="#463218"></path><path d="m58.300781 195.101562h-25.101562c-3.898438 0-7-3.101562-7-7 0-3.902343 3.101562-7 7-7h25.101562c3.898438 0 7 3.097657 7 7 0 3.898438-3.199219 7-7 7zm0 0" fill="#463218"></path><path d="m35.492188 105.183594 45.964843-45.960938 45.960938 45.960938-45.960938 45.960937zm0 0" fill="#fefe71"></path><path d="m81.5 158.199219c-1.800781 0-3.601562-.699219-5-2l-46-46c-2.699219-2.699219-2.699219-7.199219 0-9.898438l46-46c2.699219-2.699219 7.199219-2.699219 9.898438 0l46 46c2.703124 2.699219 2.703124 7.199219 0 9.898438l-46 46c-1.398438 1.300781-3.097657 2-4.898438 2zm-36.101562-53 36.101562 36.101562 36.101562-36.101562-36.101562-36.097657zm0 0" fill="#463218"></path><path d="m26.199219 30h14v29.199219h-14zm0 0" fill="#fff"></path></svg>