<!-- icon666.com - MILLIONS OF FREE VECTOR ICONS --><svg viewBox="0 0 512 512" xmlns="http://www.w3.org/2000/svg"><path d="m324.25 512h-290.097656c-18.835938 0-34.152344-15.316406-34.152344-34.152344v-383.964844c0-18.832031 15.316406-34.148437 34.152344-34.148437h290.089844c18.839843 0 34.15625 15.316406 34.15625 34.148437v383.964844c0 18.835938-15.316407 34.152344-34.148438 34.152344zm-290.097656-435.199219c-9.421875 0-17.085938 7.664063-17.085938 17.082031v383.964844c0 9.421875 7.664063 17.085938 17.085938 17.085938h290.089844c9.429687 0 17.089843-7.664063 17.089843-17.085938v-383.964844c0-9.417968-7.660156-17.082031-17.082031-17.082031zm0 0"></path><path d="m315.734375 170.667969c-4.710937 0-8.535156-3.816407-8.535156-8.535157v-51.199218h-51.199219c-4.710938 0-8.535156-3.816406-8.535156-8.535156s3.824218-8.53125 8.535156-8.53125h59.734375c4.710937 0 8.53125 3.8125 8.53125 8.53125v59.734374c0 4.71875-3.820313 8.535157-8.53125 8.535157zm0 0"></path><path d="m290.132812 358.398438h-221.867187c-3.035156 0-5.84375-1.601563-7.371094-4.230469-1.527343-2.621094-1.554687-5.863281-.058593-8.5l110.929687-196.265625c3.03125-5.351563 11.828125-5.351563 14.859375 0l110.933594 196.265625c1.492187 2.644531 1.464844 5.878906-.0625 8.5-1.515625 2.628906-4.324219 4.230469-7.363282 4.230469zm-207.238281-17.066407h192.613281l-96.308593-170.390625zm0 0"></path><path d="m179.199219 435.199219c-3.078125 0-5.914063-1.65625-7.433594-4.335938l-110.929687-196.265625c-1.496094-2.644531-1.46875-5.878906.058593-8.5 1.527344-2.625 4.335938-4.230468 7.371094-4.230468h221.867187c3.039063 0 5.847657 1.605468 7.375 4.230468 1.527344 2.621094 1.550782 5.863282.058594 8.5l-110.933594 196.265625c-1.519531 2.679688-4.351562 4.335938-7.433593 4.335938zm-96.304688-196.265625 96.304688 170.394531 96.308593-170.394531zm0 0"></path><path d="m102.398438 477.867188h-59.730469c-4.710938 0-8.535157-3.816407-8.535157-8.535157v-59.730469c0-4.71875 3.824219-8.535156 8.535157-8.535156 4.710937 0 8.53125 3.816406 8.53125 8.535156v51.199219h51.199219c4.710937 0 8.535156 3.8125 8.535156 8.53125s-3.824219 8.535157-8.535156 8.535157zm0 0"></path><path d="m477.847656 452.265625h-127.980468c-4.710938 0-8.535157-3.8125-8.535157-8.53125v-349.851563c0-9.417968-7.660156-17.082031-17.082031-17.082031h-162.117188c-4.710937 0-8.53125-3.816406-8.53125-8.535156v-34.113281c0-18.835938 15.316407-34.152344 34.148438-34.152344h290.089844c18.84375 0 34.160156 15.316406 34.160156 34.152344v383.964844c0 18.832031-15.316406 34.148437-34.152344 34.148437zm-119.449218-17.066406h119.449218c9.421875 0 17.085938-7.664063 17.085938-17.082031v-383.964844c0-9.421875-7.664063-17.085938-17.085938-17.085938h-290.097656c-9.421875 0-17.082031 7.664063-17.082031 17.085938v25.582031h153.582031c18.832031 0 34.148438 15.316406 34.148438 34.148437zm0 0"></path><path d="m349.867188 339.882812c-2.023438 0-3.992188-.71875-5.554688-2.058593-1.894531-1.621094-2.980469-3.984375-2.980469-6.476563v-218.964844c0-2.492187 1.085938-4.855468 2.980469-6.476562s4.394531-2.335938 6.859375-1.953125c58.582031 9.0625 101.09375 58.65625 101.09375 117.914063 0 59.253906-42.511719 108.851562-101.09375 117.914062-.433594.066406-.871094.101562-1.304687.101562zm8.53125-217.054687v198.085937c45.058593-11.460937 76.800781-51.644531 76.800781-99.039062s-31.742188-87.59375-76.800781-99.046875zm0 0"></path><path d="m349.859375 305.238281c-3.890625 0-7.417969-2.679687-8.3125-6.640625-1.050781-4.589844 1.835937-9.164062 6.425781-10.214844 31.257813-7.117187 53.09375-34.464843 53.09375-66.515624 0-4.71875 3.824219-8.535157 8.535156-8.535157 4.707032 0 8.53125 3.816407 8.53125 8.535157 0 40.070312-27.289062 74.265624-66.371093 83.15625-.640625.144531-1.273438.214843-1.902344.214843zm0 0"></path></svg>