<!-- icon666.com - MILLIONS OF FREE VECTOR ICONS --><svg id="Layer_1" enable-background="new 0 0 512.014 512.014" viewBox="0 0 512.014 512.014" xmlns="http://www.w3.org/2000/svg"><g id="XMLID_82_"><path id="XMLID_1424_" d="m398.152 346.86-180.133 104c-15.305 8.837-34.876 3.593-43.713-11.713l-160-277.128c-8.837-15.305-3.593-34.876 11.713-43.713l180.133-104c15.305-8.837 34.876-3.593 43.713 11.713l160 277.128c8.836 15.306 3.592 34.877-11.713 43.713z" fill="#ff7d97"></path><g id="XMLID_1973_" fill="#ffcd69"><path id="XMLID_1975_" d="m161.252 320.44v-175.903l152.336 87.952z"></path><path id="XMLID_1974_" d="m110.582 232.678 152.336 87.951v-175.903z"></path></g><path id="XMLID_1417_" d="m470.014 502.014h-208c-17.673 0-32-14.327-32-32v-320c0-17.673 14.327-32 32-32h208c17.673 0 32 14.327 32 32v320c0 17.673-14.327 32-32 32z" fill="#9d9ae8"></path><circle id="XMLID_1894_" cx="366.014" cy="310.014" fill="#33d6f5" r="45.003"></circle><g id="XMLID_532_"><path id="XMLID_557_" d="m470.014 108.014h-161.263l-50.227-86.995c-5.608-9.715-14.666-16.665-25.502-19.569-10.839-2.905-22.155-1.414-31.871 4.196l-180.133 104c-9.716 5.609-16.665 14.666-19.569 25.502-2.903 10.837-1.413 22.155 4.196 31.871l58.106 100.644c1.853 3.208 5.213 5.001 8.67 5.001 1.696 0 3.416-.432 4.99-1.341 4.783-2.761 6.422-8.877 3.66-13.66l-58.105-100.644c-2.938-5.089-3.719-11.018-2.198-16.694s5.162-10.42 10.251-13.359l180.133-104c5.089-2.938 11.017-3.719 16.694-2.198 5.676 1.521 10.42 5.161 13.358 10.25l44.453 76.995h-23.643c-23.159 0-42 18.841-42 42v7.936l-7.766 4.484-45.997-26.556c-3.094-1.786-6.906-1.786-10 0s-5 5.087-5 8.66v53.113l-45.67 26.367c-3.094 1.786-5 5.087-5 8.66s1.906 6.874 5 8.66l45.67 26.368v52.735c0 3.573 1.906 6.874 5 8.66 1.547.893 3.273 1.34 5 1.34s3.453-.447 5-1.34l45.67-26.368 8.093 4.672v130.756l-6.996 4.039c-10.505 6.064-23.987 2.453-30.053-8.053l-56.896-98.546c-2.761-4.783-8.877-6.421-13.66-3.66s-6.422 8.877-3.66 13.66l56.896 98.546c7.771 13.459 21.917 20.992 36.443 20.992 6.056 0 12.173-1.323 17.926-4.057v8.932c0 23.159 18.841 42 42 42h208c23.159 0 42-18.841 42-42v-320c0-23.158-18.84-41.999-42-41.999zm-250 81.997v84.956l-8.093 4.672-40.67-23.481v-46.962l40.997-23.669zm-48.762-28.153 20.997 12.123-20.997 12.122zm-40.67 70.819 20.67-11.934v23.867zm40.67 70.443v-23.868l20.67 11.934zm320.762 166.894c0 12.131-9.869 22-22 22h-208c-12.131 0-22-9.869-22-22v-320c0-12.131 9.869-22 22-22h208c12.131 0 22 9.869 22 22z"></path><path id="XMLID_1108_" d="m366.014 255.01c-30.329 0-55.004 24.674-55.004 55.003s24.675 55.003 55.004 55.003 55.003-24.674 55.003-55.003-24.673-55.003-55.003-55.003zm0 90.007c-19.301 0-35.004-15.703-35.004-35.003s15.703-35.003 35.004-35.003 35.003 15.703 35.003 35.003-15.702 35.003-35.003 35.003z"></path><path id="XMLID_1173_" d="m364.796 235.01c5.522 0 10-4.477 10-10v-10.997c0-5.523-4.478-10-10-10s-10 4.477-10 10v10.997c0 5.523 4.477 10 10 10z"></path><path id="XMLID_1214_" d="m367.233 385.017c-5.522 0-10 4.477-10 10v10.997c0 5.523 4.478 10 10 10s10-4.477 10-10v-10.997c0-5.523-4.477-10-10-10z"></path><path id="XMLID_1226_" d="m462.014 298.795h-10.997c-5.522 0-10 4.477-10 10s4.478 10 10 10h10.997c5.522 0 10-4.477 10-10s-4.477-10-10-10z"></path><path id="XMLID_1253_" d="m281.01 301.233h-10.996c-5.522 0-10 4.477-10 10s4.478 10 10 10h10.996c5.522 0 10-4.477 10-10s-4.477-10-10-10z"></path><path id="XMLID_1255_" d="m425.259 259.046c2.56 0 5.119-.977 7.071-2.929l7.775-7.776c3.905-3.905 3.905-10.237 0-14.142-3.906-3.905-10.238-3.905-14.143 0l-7.775 7.776c-3.905 3.905-3.905 10.237 0 14.142 1.953 1.953 4.512 2.929 7.072 2.929z"></path><path id="XMLID_1256_" d="m299.698 363.911-7.775 7.776c-3.905 3.905-3.905 10.237 0 14.142 1.953 1.953 4.512 2.929 7.071 2.929s5.119-.977 7.071-2.929l7.775-7.776c3.905-3.905 3.905-10.237 0-14.142-3.906-3.905-10.238-3.905-14.142 0z"></path><path id="XMLID_1257_" d="m434.053 362.188c-3.904-3.905-10.234-3.905-14.143 0-3.905 3.905-3.905 10.237 0 14.142l7.775 7.776c1.953 1.953 4.512 2.929 7.071 2.929s5.118-.977 7.071-2.929c3.905-3.905 3.905-10.237 0-14.142z"></path><path id="XMLID_1258_" d="m297.974 257.84c1.953 1.953 4.512 2.929 7.071 2.929s5.118-.977 7.071-2.929c3.905-3.905 3.905-10.237 0-14.142l-7.775-7.776c-3.905-3.905-10.235-3.905-14.143 0-3.905 3.905-3.905 10.237 0 14.142z"></path><path id="XMLID_1576_" d="m94.913 291.633c-2.64 0-5.21 1.07-7.069 2.93-1.86 1.86-2.931 4.44-2.931 7.07s1.07 5.21 2.931 7.07c1.859 1.86 4.439 2.93 7.069 2.93 2.631 0 5.21-1.07 7.07-2.93s2.93-4.44 2.93-7.07-1.069-5.21-2.93-7.07-4.439-2.93-7.07-2.93z"></path></g></g></svg>