<!-- icon666.com - MILLIONS OF FREE VECTOR ICONS --><svg id="Layer_1" enable-background="new 0 0 128 128" viewBox="0 0 128 128" xmlns="http://www.w3.org/2000/svg"><g><path d="m54.1 59.8c2.1-6.9 3.1-14.1 2.9-21.3 0-7.5-6.3-13.1-13.7-12.7-.9 0-30.3 2.1-30.1 19.2.1 7.3 2.3 12.1 4.5 16.7 2.9 6 5.9 12.3 4.4 25.2-2.1 19.1.3 37.1 19.3 35.7 8.5-.6 17.3-6.4 16.8-20.6-.2-4.4-1.4-8.6-2.8-13.1-2.4-8.5-5.1-17.2-1.3-29.1zm-12.8 59.4c-5.1.4-8.6-.7-11.2-3.4-4.5-4.7-6-14.2-4.4-28.4 1.6-13.9-1.8-20.9-4.7-27.1-2.1-4.5-4.1-8.7-4.2-15.2-.1-10.6 16.2-14.8 26.8-15.6 5.4-.4 10 3.8 10.1 9.2.1 6.8-.8 13.7-2.8 20.2-4.1 12.9-1.2 22.6 1.4 31.2 1.3 4.3 2.5 8.3 2.6 12.2.3 9.9-4.8 16.2-13.6 16.9z"></path><path d="m52.5 5.2c-4.5 0-8.1 4.3-8.1 9.7s3.7 9.7 8.1 9.7 8.1-4.3 8.1-9.7-3.6-9.7-8.1-9.7zm0 15.9c-2.6 0-4.6-2.8-4.6-6.2s2.1-6.2 4.6-6.2 4.6 2.8 4.6 6.2-2 6.2-4.6 6.2z"></path><path d="m38.1 23.1c3.2-.2 5.5-3.4 5.2-7.1-.1-1.7-.8-3.2-1.9-4.5s-2.7-1.9-4.3-1.8c-3.5.2-5.6 3.8-5.3 7.1.4 4 3.5 6.6 6.3 6.3zm-.6-9.9c1.4.1 2.3 1.7 2.4 3 .1 1.7-.8 3.3-2 3.4s-2.4-1.3-2.5-3c-.2-2 1-3.4 2.1-3.4z"></path><path d="m27.1 26.1c2.9-.5 4.7-3.7 4-7-.5-3-3.1-5.6-6.3-5-2.9.5-4.7 3.7-4 7 .6 3.3 3.5 5.6 6.3 5zm-1.6-8.5c1.1-.2 2 1.1 2.2 2.2.3 1.4-.3 2.7-1.3 2.9-1.1.1-2-1.1-2.2-2.2-.2-1.4.4-2.8 1.3-2.9z"></path><path d="m17.5 31.2c2.6-.6 4.1-3.5 3.4-6.4s-3.3-4.9-5.9-4.3c-3.2.8-4.3 4.6-3.1 7.5.9 2.1 3.1 3.7 5.6 3.2zm-1.7-7.4c.8-.2 1.5.8 1.7 1.7.3 1.2-.2 2.1-.8 2.2-.8.1-1.5-.8-1.7-1.6-.2-.7-.1-2 .8-2.3z"></path><path d="m13.6 32.3c-1.1-2.5-3.8-3.8-5.9-2.8-2.4 1.1-3 4-2 6.3 1 2.4 3.8 3.7 5.9 2.8 2.2-1 3.1-3.8 2-6.3zm-3.3 3c-.3.1-1-.2-1.3-1-.2-.5-.3-1.4.2-1.6.3-.1 1 .2 1.3 1s.1 1.5-.2 1.6z"></path><path d="m84.8 25.9c-7.4-.6-13.8 5.1-13.9 12.6-.2 7.2.8 14.4 2.9 21.3 3.8 11.8 1.2 20.6-1.4 29.1-1.3 4.5-2.6 8.7-2.8 13.1-.5 14.3 8.3 20 16.8 20.6 19 1.4 21.5-16.7 19.3-35.7-1.5-12.9 1.5-19.2 4.4-25.2 2.2-4.6 4.5-9.4 4.5-16.7.3-12.9-17-18.1-29.8-19.1zm22.2 34.3c-2.9 6.2-6.3 13.2-4.7 27.1 1.6 14.2.1 23.7-4.4 28.4-2.6 2.7-6.2 3.8-11.2 3.4-8.9-.6-13.9-7-13.6-17 .2-3.9 1.4-8 2.6-12.2 2.6-8.6 5.5-18.3 1.4-31.2-2-6.5-2.9-13.4-2.8-20.2.1-5.3 4.6-9.6 10.1-9.2 10 .8 26.9 5 26.8 15.6 0 6.6-2 10.9-4.2 15.3z"></path><path d="m75.5 24.6c4.5 0 8.1-4.3 8.1-9.7s-3.7-9.7-8.1-9.7-8.1 4.3-8.1 9.7 3.6 9.7 8.1 9.7zm0-15.9c2.6 0 4.6 2.8 4.6 6.2s-2.1 6.2-4.6 6.2-4.6-2.8-4.6-6.2 2-6.2 4.6-6.2z"></path><path d="m89.9 23.1c3.2.2 6-2.7 6.2-6.3.3-3.3-1.8-7-5.5-7.1-3.4-.1-5.8 3.1-6 6.3-.2 3.7 2.1 6.9 5.3 7.1zm.7-9.9c1.5.1 2.1 1.9 2 3.4-.1 1.7-1.3 3.1-2.5 3s-2.1-1.6-2-3.4c.1-1.4 1.1-3.1 2.5-3z"></path><path d="m100.9 26.1c3 .6 5.8-1.9 6.3-5 .6-3.3-1.2-6.4-4.1-7-3.2-.5-5.8 2-6.3 5-.6 3.4 1.2 6.5 4.1 7zm-.6-6.3c.2-1.1 1.1-2.4 2.2-2.2.9.2 1.5 1.5 1.3 2.9-.2 1.1-1.1 2.4-2.2 2.2-1-.2-1.6-1.5-1.3-2.9z"></path><path d="m110.5 31.2c2.8.6 5.3-1.6 5.9-4.3s-.6-5.7-3.4-6.4c-2.6-.6-5.2 1.3-5.9 4.3s.9 5.8 3.4 6.4zm0-5.7c.2-.9 1-1.9 1.7-1.7.9.2 1 1.5.8 2.4-.2.7-.8 1.8-1.7 1.6-.6-.1-1-1.1-.8-2.3z"></path><path d="m120.3 29.5c-2.2-1-4.8.3-5.9 2.8s-.2 5.3 2 6.3 4.6-.3 5.8-2.4c1.1-2.4.7-5.6-1.9-6.7zm-2.6 5.8c-.3-.1-.5-.8-.2-1.7.3-.7.9-1.1 1.3-1 .5.2.5 1 .3 1.6-.3.7-.8 1.3-1.4 1.1z"></path></g></svg>