<!-- icon666.com - MILLIONS OF FREE VECTOR ICONS --><svg id="Capa_1" enable-background="new 0 0 512 512" viewBox="0 0 512 512" xmlns="http://www.w3.org/2000/svg" xmlns:xlink="http://www.w3.org/1999/xlink"><linearGradient id="SVGID_1_" gradientUnits="userSpaceOnUse" x1="256" x2="256" y1="481" y2="151"><stop offset="0" stop-color="#fd3a84"></stop><stop offset="1" stop-color="#ffa68d"></stop></linearGradient><linearGradient id="SVGID_00000173157991712659878160000001768092221108068023_" gradientUnits="userSpaceOnUse" x1="256" x2="256" y1="391" y2="31"><stop offset="0" stop-color="#ffc2cc"></stop><stop offset="1" stop-color="#fff2f4"></stop></linearGradient><g><g><g><path d="m150 151c-13.066 0-25.518 4.146-35.977 11.982-71.396 53.555-114.023 138.809-114.023 228.047v29.971c0 33.091 26.924 60 60 60h90c33.076 0 60-26.909 60-60v-210c0-33.091-26.924-60-60-60zm247.977 11.968c-10.459-7.822-22.911-11.968-35.977-11.968-33.076 0-60 26.909-60 60v210c0 33.091 26.924 60 60 60h90c33.076 0 60-26.909 60-60v-29.971c0-89.238-42.627-174.492-114.023-228.061z" fill="url(#SVGID_1_)"></path></g></g><g><g><path d="m231.497 241.697c-.016.016-.031.034-.047.05.109-.11.115-.116.047-.05zm205.503 89.303h-23.789l-29.996-30h23.785c8.291 0 15-6.709 15-15s-6.709-15-15-15h-53.782l-50.457-50.464c-19.54-19.556-31.761-46.611-31.761-74.238v-100.298c0-8.291-6.709-15-15-15s-15 6.709-15 15v100.298c0 27.627-12.221 54.683-31.762 74.238l-50.456 50.464h-53.782c-8.291 0-15 6.709-15 15s6.709 15 15 15h23.785l-29.996 30h-23.789c-8.291 0-15 6.709-15 15s6.709 15 15 15h15v15c0 8.291 6.709 15 15 15s15-6.709 15-15v-23.789c3.588-3.588 109.146-108.216 111.497-110.514 10.192-10.205 18.088-22.266 24.503-35.05 6.425 12.805 14.335 24.884 24.551 35.1 3.664 3.665 105.192 104.323 111.449 110.474v23.779c0 8.291 6.709 15 15 15s15-6.709 15-15v-15h15c8.291 0 15-6.709 15-15s-6.709-15-15-15z" fill="url(#SVGID_00000173157991712659878160000001768092221108068023_)"></path></g></g></g></svg>