<!-- icon666.com - MILLIONS OF FREE VECTOR ICONS --><svg id="Capa_1" enable-background="new 0 0 512.011 512.011" viewBox="0 0 512.011 512.011" xmlns="http://www.w3.org/2000/svg"><g><g><path d="m482.011 409.942c0 39.736-32.328 72.063-72.063 72.063s-72.063-32.327-72.063-72.063v-10.502l12.06 12.06 21.213-21.213-48.273-48.272-48.273 48.272 21.213 21.213 12.06-12.06v10.502c0 56.278 45.786 102.063 102.063 102.063s102.063-45.785 102.063-102.063z" fill="currentColor" style="fill: rgb(223, 73, 125);"></path><path d="m36.809 281.314v33.926c0 27.53 22.397 49.928 49.928 49.928s49.928-22.397 49.928-49.928h-30c0 10.988-8.94 19.928-19.928 19.928s-19.928-8.939-19.928-19.928v-33.926l12.06 12.06 21.213-21.213-48.273-48.273-48.273 48.274 21.213 21.213z" fill="currentColor" style="fill: rgb(143, 160, 245);"></path><path d="m425.264 365.167c27.53 0 49.928-22.397 49.928-49.928v-33.926l12.06 12.06 21.213-21.213-48.273-48.273-48.273 48.273 21.213 21.213 12.06-12.06v33.926c0 10.988-8.939 19.928-19.928 19.928s-19.928-8.939-19.928-19.928h-30c-.001 27.531 22.397 49.928 49.928 49.928z" fill="currentColor" style="fill: rgb(223, 73, 125);"></path><path d="m140.854 390.287 21.213 21.213 12.06-12.06v10.502c0 39.736-32.328 72.063-72.063 72.063s-72.064-32.327-72.064-72.063h-30c0 56.278 45.786 102.063 102.063 102.063s102.063-45.785 102.063-102.063v-10.502l12.06 12.06 21.213-21.213-48.273-48.272z" fill="currentColor" style="fill: rgb(143, 160, 245);"></path></g><g><path d="m255.97.005c-18.865 0-34.776 14.053-37.106 32.774l-24.003 192.823c-1.621-.2-3.269-.315-4.944-.315-23.012 0-41.489 19.417-39.941 42.761 1.318 19.885 17.481 35.972 37.371 37.223 7.528.473 14.635-1.151 20.816-4.322 10.007 15.861 27.67 26.409 47.808 26.421l20-190.363z" fill="#ffcdbe"></path><path d="m322.023 225.287c-1.675 0-3.323.115-4.944.315l-24.003-192.823c-2.33-18.721-18.241-32.774-37.106-32.774v327.363h.033c20.141 0 37.809-10.54 47.825-26.396 6.178 3.159 13.277 4.773 20.797 4.295 19.878-1.265 36.023-17.348 37.34-37.222 1.546-23.342-16.93-42.758-39.942-42.758z" fill="#ffbeaa"></path></g></g></svg>