<!-- icon666.com - MILLIONS OF FREE VECTOR ICONS --><svg viewBox="0 0 512 512" xmlns="http://www.w3.org/2000/svg"><path d="m299.208 271.536 6.219-10.366a10.649 10.649 0 0 1 19.234 2.112l3.75 11.248 15.178-5.06-3.749-11.248a26.648 26.648 0 0 0 -48.132-5.284l-6.22 10.366a34.388 34.388 0 0 1 -58.976 0l-6.22-10.366a26.648 26.648 0 0 0 -48.132 5.284l-3.749 11.248 15.178 5.06 3.75-11.248a10.649 10.649 0 0 1 19.234-2.112l6.219 10.366a50.389 50.389 0 0 0 86.416 0z"></path><path d="m200.992 191.938a8 8 0 0 0 6.92-6.751l19.253-128.355a29.158 29.158 0 0 1 57.67 0l19.253 128.355a8 8 0 0 0 6.92 6.751 50.687 50.687 0 0 1 43.192 61.289l-2.009 9.038 15.62 3.47 2.008-9.038a66.683 66.683 0 0 0 -50.762-79.59l-18.4-122.648a45.159 45.159 0 0 0 -89.318 0l-18.4 122.648a66.683 66.683 0 0 0 -50.762 79.59l2.008 9.038 15.62-3.47-2.009-9.038a50.687 50.687 0 0 1 43.191-61.289z"></path><path d="m28 266.928 15.06-8.695a24.028 24.028 0 0 0 7.581 4.391v17.376h16v-17.376a24.017 24.017 0 0 0 7.581-4.391l15.06 8.695 8-13.856-15.049-8.688a23.757 23.757 0 0 0 0-8.768l15.049-8.688-8-13.856-15.06 8.695a24.017 24.017 0 0 0 -7.581-4.391v-17.376h-16v17.376a24.028 24.028 0 0 0 -7.581 4.391l-15.06-8.695-8 13.856 15.049 8.688a23.757 23.757 0 0 0 0 8.768l-15.049 8.688zm30.641-34.928a8 8 0 1 1 -8 8 8.009 8.009 0 0 1 8-8z"></path><path d="m476 397.072-15.06 8.695a24.028 24.028 0 0 0 -7.581-4.391v-17.376h-16v17.376a24.017 24.017 0 0 0 -7.581 4.391l-15.06-8.695-8 13.856 15.049 8.688a23.757 23.757 0 0 0 0 8.768l-15.049 8.688 8 13.856 15.06-8.695a24.017 24.017 0 0 0 7.581 4.391v17.376h16v-17.376a24.028 24.028 0 0 0 7.581-4.391l15.06 8.695 8-13.856-15.049-8.688a23.757 23.757 0 0 0 0-8.768l15.049-8.688zm-30.641 34.928a8 8 0 1 1 8-8 8.009 8.009 0 0 1 -8 8z"></path><path d="m426.641 128v17.376a24.028 24.028 0 0 0 -7.581 4.391l-15.06-8.695-8 13.856 15.049 8.688a23.757 23.757 0 0 0 0 8.768l-15.049 8.688 8 13.856 15.06-8.695a24.028 24.028 0 0 0 7.581 4.391v17.376h16v-17.376a24.017 24.017 0 0 0 7.581-4.391l15.06 8.695 8-13.856-15.049-8.688a23.757 23.757 0 0 0 0-8.768l15.049-8.688-8-13.856-15.06 8.695a24.017 24.017 0 0 0 -7.581-4.391v-17.376zm8 48a8 8 0 1 1 8-8 8.009 8.009 0 0 1 -8 8z"></path><path d="m199.218 301.136a8 8 0 0 0 -7.47-5.136h-31.748v16h8.432a133.159 133.159 0 0 1 -73.388 22.426c-25.774.29-43.95-6.686-44.115-6.749l-5.858 14.888c.825.326 20.326 7.869 48.512 7.869h.9c26.441-.152 65.706-7.3 102.613-40.482a8 8 0 0 0 2.122-8.816z"></path><path d="m237.072 313.813a8 8 0 0 0 -8.65-.968l-32 16 7.156 14.31 14.642-7.321a133.361 133.361 0 0 1 -51.046 62.108c-21.508 14.169-40.569 18.178-40.743 18.213l3.138 15.69c.878-.176 21.787-4.483 45.8-20.144 22.148-14.444 51.289-41.713 64.348-89.6a8 8 0 0 0 -2.645-8.288z"></path><path d="m312.782 301.136a8 8 0 0 0 2.121 8.813c36.907 33.185 76.172 40.33 102.613 40.482h.9c28.183 0 47.687-7.543 48.512-7.869l-5.842-14.895c-.181.07-18.377 7-44.131 6.756a133.159 133.159 0 0 1 -73.387-22.423h8.432v-16h-31.748a8 8 0 0 0 -7.47 5.136z"></path><path d="m382.431 431.845 3.154-15.687c-.19-.038-19.251-4.047-40.759-18.216a133.361 133.361 0 0 1 -51.046-62.108l14.642 7.321 7.156-14.31-32-16a8 8 0 0 0 -11.3 9.259c13.059 47.884 42.2 75.153 64.348 89.6 24.018 15.658 44.927 19.965 45.805 20.141z"></path><path d="m213.549 450.931a17.864 17.864 0 0 0 -12.291-8.76 18.18 18.18 0 0 0 -27.461 0 18.181 18.181 0 0 0 -13.731 23.782 18.178 18.178 0 0 0 13.734 23.782 18.179 18.179 0 0 0 27.461 0 18.179 18.179 0 0 0 13.731-23.782 17.864 17.864 0 0 0 -1.443-15.022zm-13.857 22.046a1.991 1.991 0 0 1 -2.052 1.041 8.02 8.02 0 0 0 -8.185 4.725 2.106 2.106 0 0 1 -3.855 0 8 8 0 0 0 -8.185-4.725 2.107 2.107 0 0 1 -1.928-3.339 8 8 0 0 0 0-9.451 2.107 2.107 0 0 1 1.929-3.339 8.019 8.019 0 0 0 8.184-4.726 2.107 2.107 0 0 1 3.855 0 8.005 8.005 0 0 0 8.184 4.726 2.107 2.107 0 0 1 1.928 3.339 8 8 0 0 0 0 9.451 1.986 1.986 0 0 1 .125 2.298z"></path><path d="m65.506 93.069a17.862 17.862 0 0 0 12.291 8.76 18.18 18.18 0 0 0 27.461 0 18.181 18.181 0 0 0 13.731-23.782 18.179 18.179 0 0 0 -13.731-23.782 18.179 18.179 0 0 0 -27.461 0 18.178 18.178 0 0 0 -13.731 23.782 17.864 17.864 0 0 0 1.44 15.022zm13.857-22.046a1.976 1.976 0 0 1 2.052-1.041 8.01 8.01 0 0 0 8.185-4.725 2.106 2.106 0 0 1 3.855 0 8 8 0 0 0 8.185 4.725 2.107 2.107 0 0 1 1.927 3.339 8 8 0 0 0 0 9.451 2.107 2.107 0 0 1 -1.928 3.339 8.005 8.005 0 0 0 -8.184 4.726 2.107 2.107 0 0 1 -3.855 0 8 8 0 0 0 -7.317-4.773 8.167 8.167 0 0 0 -.867.047 2.107 2.107 0 0 1 -1.929-3.339 8 8 0 0 0 0-9.451 1.984 1.984 0 0 1 -.124-2.298z"></path><path d="m412 29.072-15.06 8.7a24.028 24.028 0 0 0 -7.581-4.391v-17.381h-16v17.376a24.017 24.017 0 0 0 -7.581 4.391l-15.06-8.7-8 13.856 15.049 8.688a23.757 23.757 0 0 0 0 8.768l-15.049 8.688 8 13.856 15.06-8.695a24.017 24.017 0 0 0 7.581 4.391v17.381h16v-17.376a24.028 24.028 0 0 0 7.581-4.391l15.06 8.695 8-13.856-15.049-8.688a23.757 23.757 0 0 0 0-8.768l15.049-8.688zm-30.641 34.928a8 8 0 1 1 8-8 8.009 8.009 0 0 1 -8 8z"></path><path d="m48 400h16v16h-16z"></path><path d="m88 448h16v16h-16z"></path><path d="m432 280h16v16h-16z"></path><path d="m152 96h16v16h-16z"></path><path d="m360 456h16v16h-16z"></path><path d="m296 440h16v16h-16z"></path><path d="m480 240h16v16h-16z"></path></svg>