<!-- icon666.com - MILLIONS OF FREE VECTOR ICONS --><svg id="Layer_5" enable-background="new 0 0 59.303 61.967" viewBox="0 0 59.303 61.967" xmlns="http://www.w3.org/2000/svg" ><linearGradient id="SVGID_1_" gradientUnits="userSpaceOnUse" x1="29.651" x2="29.651" y1="61.967" y2="0"><stop offset="0" stop-color="#9f2fff"></stop><stop offset="1" stop-color="#0bb1d3"></stop></linearGradient><path d="m30.651 41.967c0 .552-.448 1-1 1s-1-.448-1-1 .448-1 1-1 1 .447 1 1zm9.771-8.552c-.525-.171-1.089.117-1.26.642s.117 1.089.642 1.26 1.089-.117 1.26-.642-.117-1.089-.642-1.26zm-5.114-11.935c-.325.447-.226 1.072.221 1.397s1.072.226 1.397-.221.226-1.072-.221-1.397-1.072-.226-1.397.221zm-12.931 1.175c.325.447.95.546 1.397.221s.546-.95.221-1.397-.95-.546-1.397-.221-.546.951-.221 1.397zm-2.878 12.662c.525-.171.813-.735.642-1.26s-.735-.813-1.26-.642-.813.735-.642 1.26c.17.525.734.813 1.26.642zm10.152-18.35c.552 0 1-.448 1-1s-.448-1-1-1-1 .448-1 1 .448 1 1 1zm-13.957 8.413c-.525-.171-1.089.117-1.26.642s.117 1.089.642 1.26 1.089-.117 1.26-.642-.116-1.089-.642-1.26zm5.95 18.31c.325-.447.226-1.072-.221-1.397s-1.072-.226-1.397.221-.226 1.072.221 1.397 1.072.226 1.397-.221zm16.236-1.397c-.447.325-.546.95-.221 1.397s.95.546 1.397.221.546-.95.221-1.397-.95-.546-1.397-.221zm6.346-15.01c.525-.171.813-.735.642-1.26s-.735-.813-1.26-.642-.813.735-.642 1.26.735.812 1.26.642zm-41.009 5.077c.255-.501.582-.953.941-1.38-.361-.428-.68-.896-.941-1.407l-2.844-5.581c-.414-.813-.486-1.737-.205-2.604s.884-1.573 1.697-1.987l5.581-2.844c.504-.256 1.031-.444 1.572-.579-.039-.554-.022-1.115.067-1.676l.979-6.187c.141-.888.638-1.7 1.365-2.228.738-.535 1.639-.754 2.541-.611l6.188.981c.556.088 1.093.245 1.611.455.294-.471.638-.915 1.04-1.317l4.429-4.429c1.288-1.289 3.54-1.289 4.829 0l4.429 4.429c.402.402.745.846 1.04 1.317.518-.21 1.056-.368 1.612-.456l6.186-.979c.902-.141 1.803.074 2.541.609.728.528 1.225 1.341 1.366 2.229l.979 6.187c.088.557.105 1.116.065 1.673.538.134 1.067.323 1.573.581l5.581 2.845c.813.414 1.416 1.12 1.697 1.987s.208 1.792-.205 2.604l-2.844 5.581c-.255.501-.582.953-.941 1.38.36.428.68.896.941 1.407l2.844 5.581c.414.813.486 1.737.205 2.604s-.884 1.573-1.697 1.987l-5.581 2.844c-.504.256-1.031.444-1.572.579.038.554.022 1.115-.067 1.676l-.979 6.187c-.141.888-.638 1.7-1.365 2.228-.59.429-1.286.653-2.001.653-.179 0-.359-.014-.539-.042l-6.188-.981c-.555-.087-1.092-.245-1.611-.455-.294.471-.638.915-1.04 1.317l-4.429 4.429c-.644.645-1.501 1-2.414 1s-1.77-.355-2.415-1l-4.429-4.429c-.398-.398-.727-.849-1.022-1.322-.519.21-1.062.37-1.629.459l-6.186.98c-.181.028-.361.043-.54.043-.716 0-1.411-.225-2.001-.652-.728-.528-1.225-1.341-1.366-2.229l-.979-6.187c-.088-.555-.105-1.113-.065-1.669-.539-.134-1.066-.327-1.573-.585l-5.581-2.845c-.813-.414-1.416-1.12-1.697-1.987s-.208-1.792.205-2.604zm5.137 11.236c1.016.517 2.142.68 3.247.508-.015-.083-.038-.163-.052-.247-.418-2.641.214-5.283 1.782-7.441.046-.063.109-.133.159-.197-.078-.023-.171-.042-.245-.066-1.63-.53-3.031-1.442-4.138-2.605-.542-.05-1.081-.143-1.605-.313-.673-.219-1.299-.53-1.869-.917-.242.295-.46.608-.635.952l-2.842 5.58c-.171.336-.202.72-.085 1.079.117.358.366.651.703.823zm.374-19.428c-1.363 4.195.941 8.718 5.137 10.081.101.033.231.062.345.093.003-.67.139-1.331.411-1.958-.044-.013-.097-.024-.14-.037-1.523-.495-2.763-1.554-3.491-2.982s-.855-3.054-.36-4.577c.496-1.525 1.555-2.766 2.983-3.492 1.428-.729 3.055-.854 4.578-.36.043.014.092.037.136.052.145-.653.42-1.27.819-1.825-.112-.042-.234-.096-.337-.129-4.197-1.363-8.718.939-10.081 5.134zm12.942-6.841c.651-.207 1.324-.278 1.989-.214-.001-.047-.008-.101-.008-.146 0-3.309 2.691-6 6-6s6 2.691 6 6c0 .045-.007.1-.008.147.666-.064 1.339.007 1.989.214.006-.12.019-.253.019-.361 0-4.411-3.589-8-8-8s-8 3.589-8 8c0 .108.013.241.019.36zm18.824 1.705c-.103.034-.225.087-.336.129.398.555.674 1.173.819 1.826.044-.015.094-.039.137-.052 1.524-.494 3.15-.367 4.577.36 1.428.727 2.487 1.967 2.983 3.492.495 1.523.367 3.149-.36 4.577-.728 1.429-1.968 2.487-3.493 2.982-.042.014-.095.024-.139.037.272.627.409 1.288.412 1.958.114-.031.244-.06.346-.093 4.194-1.363 6.499-5.886 5.136-10.081-1.365-4.192-5.887-6.496-10.082-5.135zm3.646 18.296c-.404.549-.92.991-1.495 1.329.027.036.064.075.089.11.941 1.295 1.322 2.881 1.071 4.464-.25 1.583-1.103 2.974-2.399 3.915-1.063.772-2.296 1.145-3.519 1.145-1.857 0-3.689-.857-4.862-2.471-.027-.037-.053-.084-.08-.123-.501.443-1.087.78-1.735.995.065.1.133.215.196.302 1.254 1.727 3.108 2.861 5.221 3.195 2.113.335 4.228-.172 5.953-1.425 3.569-2.594 4.363-7.606 1.77-11.175-.057-.08-.14-.174-.21-.261zm-16.246 9.667c.063-.087.131-.202.197-.302-.648-.215-1.235-.552-1.735-.995-.027.038-.053.086-.08.123-1.172 1.613-3.005 2.471-4.862 2.471-1.223 0-2.456-.372-3.519-1.145-1.296-.941-2.148-2.332-2.399-3.915s.13-3.169 1.072-4.465c.025-.035.062-.074.089-.109-.575-.339-1.09-.78-1.494-1.329-.07.087-.153.181-.213.263-2.592 3.567-1.798 8.58 1.771 11.174 1.725 1.253 3.839 1.759 5.953 1.425 2.113-.335 3.967-1.469 5.22-3.196zm-10.321-24.158c-1.018-.332-2.1-.245-3.052.239-.952.485-1.658 1.313-1.988 2.328-.33 1.017-.245 2.101.24 3.053.485.951 1.312 1.657 2.328 1.987.218.071.487.131.775.186.508-.452 1.104-.804 1.77-1.02.34-.111.721-.192 1.098-.257l-.744-2.172 1.878-1.321c-.267-.274-.527-.564-.737-.853-.418-.576-.69-1.212-.833-1.866-.265-.125-.518-.234-.735-.304zm8.141-5.076c.578.338 1.099.793 1.517 1.368.211.289.406.626.584.964l1.837-1.378 1.835 1.377c.198-.376.397-.704.586-.965.418-.575.939-1.029 1.516-1.367.037-.292.063-.567.063-.794 0-2.206-1.794-4-4-4s-4 1.794-4 4c-.001.228.025.503.062.795zm15.281 5.38c-.143.654-.414 1.29-.833 1.866-.19.26-.441.551-.736.855l1.877 1.319-.742 2.172c.418.072.791.159 1.097.258.667.217 1.262.569 1.771 1.02.289-.055.559-.116.773-.186 1.018-.33 1.844-1.036 2.329-1.987.485-.952.57-2.036.24-3.053-.33-1.016-1.036-1.843-1.988-2.328-.953-.484-2.037-.572-3.052-.239-.217.069-.47.178-.736.303zm-.404 16.187c-.16.016-.319.038-.482.038-.511 0-1.03-.079-1.542-.245-.34-.11-.697-.268-1.04-.437l-.676 2.195-2.294-.036c.06.42.093.802.093 1.124 0 .711-.154 1.385-.423 1.998.141.257.282.495.416.68 1.297 1.784 3.803 2.181 5.587.885.864-.628 1.433-1.556 1.6-2.61.167-1.056-.087-2.112-.715-2.977-.133-.186-.319-.397-.524-.615zm-7.94 2.639c0-.345-.057-.819-.159-1.35-1.044-.265-2.013-.77-2.835-1.475-.822.704-1.799 1.211-2.848 1.479-.101.529-.158 1.002-.158 1.346 0 1.654 1.346 3 3 3s3-1.346 3-3zm-16.314-6.674c.511 1.573 2.207 2.438 3.78 1.926.326-.105.76-.306 1.235-.568-.071-1.075.11-2.152.526-3.151-.924-.564-1.708-1.337-2.287-2.252-.535.067-1.003.159-1.328.265-.763.247-1.383.777-1.747 1.491s-.427 1.527-.179 2.289zm5.063-8.059-1.022.72.405 1.185c.47 1.373 1.529 2.482 2.869 3.021l2.043-.77c-.015-.141-.043-.278-.043-.423 0-.898.308-1.719.81-2.387l-1.787-2.234c-1.155-.092-2.315.213-3.275.888zm12.404-.759-1.197 1.82c.642.71 1.045 1.641 1.045 2.672 0 .02-.006.039-.006.058l2.727.748c.994-.604 1.767-1.521 2.148-2.636l.404-1.183-1.023-.72c-1.189-.838-2.697-1.113-4.098-.759zm1.579 12.38.369-1.196c.427-1.388.222-2.908-.544-4.132l-2.104-.576c-.499.864-1.305 1.517-2.274 1.818l.133 2.861c.88.753 1.997 1.188 3.17 1.206zm-6.45-1.813-.101-2.161c-1.006-.21-1.87-.803-2.444-1.615l-2.669 1.007c-.444 1.069-.513 2.267-.168 3.388l.368 1.195 1.251-.02c1.454-.023 2.836-.688 3.763-1.794zm.718-8.075c-1.103 0-2 .897-2 2s.897 2 2 2 2-.897 2-2-.897-2-2-2zm1-7.001-1-.75-1.001.751c-1.162.872-1.889 2.222-1.988 3.663l1.356 1.694c.5-.225 1.05-.357 1.634-.357.451 0 .878.092 1.283.23l1.573-2.391c-.27-1.126-.918-2.135-1.857-2.84zm-13.179 20.953c.167 1.055.735 1.982 1.6 2.61 1.785 1.296 4.291.901 5.587-.885.134-.185.275-.422.416-.68-.269-.613-.423-1.287-.423-1.998 0-.322.032-.704.093-1.124l-2.294.036-.676-2.195c-.344.169-.7.327-1.041.438-.511.166-1.03.245-1.541.245-.162 0-.321-.022-.481-.038-.205.218-.39.428-.525.613-.628.866-.882 1.922-.715 2.978zm25.494-7.625c.248-.763.184-1.576-.18-2.29s-.984-1.244-1.746-1.491c-.327-.106-.797-.198-1.333-.265-.575.911-1.354 1.676-2.278 2.24.416.999.596 2.086.526 3.166.473.26.905.46 1.23.566 1.578.51 3.27-.354 3.781-1.926zm-9.276-14.989c-.203.278-.435.696-.665 1.185.69.828 1.176 1.806 1.427 2.859 1.079-.087 2.168.077 3.174.478.392-.368.716-.717.919-.995.972-1.338.674-3.219-.664-4.191-1.339-.973-3.218-.675-4.191.664zm-12.268-.664c-1.338.972-1.635 2.853-.663 4.19.201.278.527.628.923.999 1.001-.399 2.081-.56 3.159-.474.251-1.053.744-2.038 1.435-2.871-.229-.488-.461-.904-.662-1.181-.974-1.336-2.853-1.637-4.192-.663zm1.36 32.549c-.463.064-.926.102-1.385.102-2.095 0-4.128-.656-5.852-1.909-1.538-1.117-2.692-2.621-3.385-4.346-.38.073-.762.115-1.144.128-.023.385-.017.77.044 1.155l.979 6.188c.058.367.264.704.565.923.301.218.683.313 1.053.252l6.186-.979c1.133-.183 2.145-.718 2.939-1.514zm13.785.006c-.083-.011-.167-.016-.25-.03-2.641-.418-4.959-1.837-6.527-3.995-.045-.063-.093-.145-.139-.213-.046.067-.093.15-.139.213-.989 1.362-2.278 2.427-3.758 3.135-.215.499-.47.983-.792 1.426-.416.573-.905 1.072-1.449 1.494.206.321.436.626.709.898l4.429 4.429c.534.535 1.466.535 2 0l4.43-4.429c.805-.805 1.307-1.825 1.486-2.928zm11.145-8.141c-.457 2.558-1.85 4.801-3.953 6.328-1.536 1.117-3.32 1.756-5.173 1.883-.048.383-.123.759-.229 1.125.356.138.721.25 1.101.309l6.188.981c.365.056.75-.034 1.053-.254.301-.218.507-.555.565-.922l.979-6.187c.179-1.133-.019-2.261-.531-3.263zm6.591-10.786c-.518-1.016-1.333-1.81-2.328-2.32-1.142 2.386-3.211 4.323-5.919 5.203-.073.024-.167.043-.245.066.05.065.114.135.159.198.989 1.362 1.604 2.917 1.82 4.543.408.359.789.75 1.111 1.194.416.572.74 1.192.973 1.84.369-.097.73-.221 1.074-.396l5.58-2.843c.337-.172.586-.465.703-.823.117-.359.086-.743-.085-1.079zm-3.355-14.931c-1.024-.521-2.16-.682-3.272-.503 2.2 1.176 3.971 3.162 4.8 5.716.599 1.845.621 3.738.182 5.494.353.165.691.354 1.01.571.241-.295.46-.608.634-.951l2.844-5.581c.171-.336.202-.72.085-1.079-.117-.358-.366-.651-.703-.823zm-12.591-9.795c.192.661.294 1.352.294 2.06 0 .55-.078 1.091-.198 1.623.764 1.412 1.198 3.027 1.198 4.741 0 .077-.01.172-.013.254.077-.027.163-.067.237-.091 1.63-.529 3.299-.614 4.877-.324.47-.279.961-.521 1.485-.691.673-.219 1.362-.334 2.051-.356.022-.381.015-.763-.046-1.143l-.979-6.188c-.058-.367-.264-.704-.565-.923-.301-.217-.683-.312-1.053-.252l-6.186.979c-.381.061-.746.172-1.102.311zm-15.624 1.22c1.798-1.727 4.234-2.796 6.918-2.796s5.12 1.069 6.918 2.796c-.175-1.112-.678-2.142-1.489-2.953l-4.429-4.429c-.534-.535-1.466-.535-2 0l-4.43 4.429c-.81.811-1.313 1.841-1.488 2.953zm-11.153 8.097c2.326-1.259 5.139-1.609 7.847-.73.074.024.161.063.237.091-.002-.081-.013-.177-.013-.254 0-1.715.435-3.329 1.198-4.741-.12-.532-.198-1.073-.198-1.623 0-.707.103-1.398.294-2.06-.356-.138-.721-.25-1.101-.311l-6.187-.98c-.365-.054-.75.034-1.053.254-.301.218-.507.555-.565.922l-.979 6.187c-.178 1.126.015 2.248.52 3.245zm-6.581 10.805c.521 1.022 1.344 1.819 2.348 2.329-1.087-2.244-1.351-4.89-.522-7.443.6-1.847 1.696-3.391 3.085-4.555-.188-.341-.351-.692-.482-1.054-.369.097-.73.221-1.075.397l-5.58 2.843c-.337.172-.586.465-.703.823-.117.359-.086.743.085 1.079z" fill="url(#SVGID_1_)"></path></svg>