<!-- icon666.com - MILLIONS OF FREE VECTOR ICONS --><svg version="1.1" id="Capa_1" xmlns="http://www.w3.org/2000/svg" xmlns:xlink="http://www.w3.org/1999/xlink" x="0px" y="0px" viewBox="0 0 403.256 403.256" style="enable-background:new 0 0 403.256 403.256;" xml:space="preserve"><path id="XMLID_487_" d="M34.427,211.284c0,4.971-4.029,9-9,9H9c-4.971,0-9-4.029-9-9s4.029-9,9-9h16.427 C30.397,202.284,34.427,206.313,34.427,211.284z M120.11,290.213c-0.223,2.515,0.622,5.007,2.327,6.869 c1.705,1.862,4.113,2.922,6.638,2.922h17.341c4.971,0,9-4.029,9-9s-4.029-9-9-9h-6.441c6.953-22.51,30.497-41.586,62.021-49.431 c31.522,7.845,55.066,26.92,62.021,49.431h-6.443c-4.971,0-9,4.029-9,9s4.029,9,9,9h17.344c2.524,0,4.934-1.061,6.638-2.922 c1.705-1.862,2.55-4.354,2.327-6.869c-1.567-17.76-10.306-34.402-25.269-48.129c-14.221-13.046-33.098-22.568-54.591-27.535 c-1.334-0.308-2.721-0.308-4.053,0c-21.493,4.968-40.37,14.489-54.591,27.535C130.414,255.81,121.677,272.453,120.11,290.213z M326.221,95.69c2.304,0,4.606-0.879,6.364-2.636l11.613-11.614c3.515-3.515,3.515-9.213,0-12.728 c-3.516-3.515-9.213-3.514-12.729,0l-11.613,11.614c-3.515,3.515-3.515,9.213,0,12.728C321.614,94.812,323.917,95.69,326.221,95.69z M201.626,44.083c4.971,0,9-4.029,9-9V18.658c0-4.971-4.029-9-9-9s-9,4.029-9,9v16.425 C192.626,40.054,196.655,44.083,201.626,44.083z M70.67,93.055c1.757,1.757,4.06,2.636,6.363,2.636s4.607-0.879,6.364-2.637 c3.515-3.515,3.515-9.213-0.001-12.728L71.781,68.713c-3.514-3.515-9.214-3.515-12.728,0.001c-3.515,3.515-3.515,9.213,0.001,12.728 L70.67,93.055z M181.184,358.257c-4.971,0-9,4.029-9,9v8.34h-64.786c-11.729,0-21.271-9.542-21.271-21.272 s9.542-21.272,21.271-21.272h64.325c4.971,0,9-4.029,9-9s-4.029-9-9-9h-64.325c-21.654,0-39.271,17.618-39.271,39.272 s17.617,39.272,39.271,39.272h73.786c4.971,0,9-4.029,9-9v-17.34C190.184,362.287,186.154,358.257,181.184,358.257z M394.256,202.284h-16.425c-4.971,0-9,4.029-9,9s4.029,9,9,9h16.425c4.971,0,9-4.029,9-9S399.227,202.284,394.256,202.284z M201.626,66.566c-81.095,0-147.069,65.976-147.069,147.072c0,28.256,8.035,55.706,23.237,79.379 c1.72,2.678,4.619,4.139,7.582,4.138c1.664,0,3.35-0.461,4.854-1.428c4.183-2.686,5.396-8.254,2.71-12.437 c-13.335-20.766-20.384-44.852-20.384-69.653c0-71.17,57.9-129.072,129.069-129.072c71.171,0,129.073,57.901,129.073,129.072 c0,24.803-7.05,48.888-20.387,69.652c-2.687,4.182-1.474,9.75,2.708,12.436c4.184,2.688,9.752,1.473,12.437-2.708 c15.205-23.672,23.242-51.121,23.242-79.38C348.699,132.542,282.723,66.566,201.626,66.566z M199.263,196.561 c-18.261-5.818-30.529-22.61-30.529-41.787c0-19.177,12.27-35.97,30.53-41.787c1.777-0.565,3.686-0.565,5.463,0 c18.261,5.817,30.529,22.61,30.529,41.787c0,19.176-12.269,35.969-30.528,41.787c-0.889,0.283-1.811,0.425-2.732,0.425 S200.151,196.844,199.263,196.561z M201.995,178.37c9.235-4.125,15.261-13.275,15.261-23.595c0-10.322-6.024-19.471-15.261-23.595 c-9.237,4.124-15.262,13.273-15.262,23.595C186.733,165.096,192.758,174.245,201.995,178.37z M296.594,315.053h-64.327 c-4.971,0-9,4.029-9,9s4.029,9,9,9h64.327c11.729,0,21.271,9.543,21.271,21.272s-9.542,21.272-21.271,21.272h-64.786v-8.34 c0-4.971-4.029-9-9-9s-9,4.029-9,9v17.34c0,4.971,4.029,9,9,9h73.786c21.654,0,39.271-17.617,39.271-39.272 S318.248,315.053,296.594,315.053z M201.995,251.373c-4.971,0-9,4.029-9,9v63.681c0,4.971,4.029,9,9,9s9-4.029,9-9v-63.681 C210.995,255.402,206.966,251.373,201.995,251.373z"></path></svg>