<!-- icon666.com - MILLIONS OF FREE VECTOR ICONS --><svg enable-background="new 0 0 512 512" viewBox="0 0 512 512" xmlns="http://www.w3.org/2000/svg"><g id="_x33_0_Meditation"><g><path d="m73.458 399.249h115.44v107.409h-115.44c-29.671 0-53.705-24.034-53.705-53.705s24.034-53.704 53.705-53.704z" fill="#fb888b"></path><path d="m108.17 506.675h-34.719c-29.652 0-53.705-24.052-53.705-53.705 0-29.706 24.052-53.705 53.705-53.705h34.719c-29.652 0-53.705 23.999-53.705 53.705 0 29.652 24.053 53.705 53.705 53.705z" fill="#fff" opacity=".5"></path><path d="m492.254 452.953c0 29.671-24.034 53.705-53.705 53.705h-110.741v-107.409h110.741c29.671 0 53.705 24.033 53.705 53.704z" fill="#fb888b"></path><path d="m492.261 452.97c0 29.652-24.052 53.705-53.704 53.705h-34.719c29.652 0 53.705-24.052 53.705-53.705 0-29.706-24.052-53.705-53.705-53.705h34.719c29.652 0 53.704 23.999 53.704 53.705z" opacity=".15"></path><path d="m359.152 108.523v146.396h-206.336v-146.396c0-56.978 46.19-103.168 103.168-103.168 56.978 0 103.168 46.19 103.168 103.168z" fill="#a7b1b3"></path><path d="m265.55 5.841c-52.478 4.747-93.597 48.905-93.597 102.663v146.394h-19.146v-146.394c0-56.958 46.185-103.142 103.196-103.142 3.201-.001 6.401.159 9.547.479z" fill="#fff" opacity=".5"></path><path d="m359.146 108.504v146.394h-20.053v-146.394c0-28.479-11.519-54.238-30.239-72.904-16.426-16.426-38.399-27.359-62.878-29.759 3.307-.32 6.666-.48 10.026-.48 28.479 0 54.291 11.572 72.957 30.238s30.187 44.426 30.187 72.905z" opacity=".15"></path><path d="m412.744 271.111v85.116l-57.598 4.426v95.943h-198.232v-80.743l-49.438 3.786c-5.28-6.88-8.266-15.466-8.266-24.532v-83.997c0-28.692 21.652-52.691 50.131-55.732l106.662-11.306 106.609 11.306c28.587 3.041 50.132 27.04 50.132 55.733z" fill="#a5e0fa"></path><path d="m156.914 377.4 20.533-1.547v80.743h-20.533z" fill="#fff" opacity=".5"></path><path d="m162.754 216.66v-2.703l-13.413 1.422c-28.479 3.04-50.131 27.039-50.131 55.732v83.997c0 9.066 2.987 17.652 8.266 24.532l19.466-1.493c-4.64-6.613-7.2-14.613-7.2-23.039v-83.997c0-26.241 18.133-48.502 43.012-54.451z" fill="#fff" opacity=".5"></path><path d="m412.744 271.111v85.116l-57.598 4.426v95.943h-27.412v-95.943l57.598-4.426v-85.116c0-28.692-21.546-52.691-50.131-55.732l-92.903-9.866 13.706-1.439 106.609 11.306c28.586 3.039 50.131 27.038 50.131 55.731z" opacity=".15"></path><path d="m258.349 399.228v86.335c0 11.656 9.449 21.106 21.106 21.106h48.363v-50.345h-10.638c-11.876 0-22.048-8.502-24.155-20.19l-1.682-9.329c-2.878-15.963-16.773-27.577-32.994-27.577z" fill="#7c8a8d"></path><path d="m317.175 456.33c-2.756 0-5.4-.502-7.889-1.351v1.351h2.503v50.345h16.053v-50.345z" opacity=".15"></path><path d="m258.349 399.228v86.335c0 11.656-9.449 21.106-21.106 21.106h-48.363v-50.345h10.638c11.876 0 22.048-8.502 24.155-20.19l1.682-9.329c2.879-15.963 16.773-27.577 32.994-27.577z" fill="#7c8a8d"></path><path d="m207.945 454.834c-2.636.965-5.472 1.496-8.419 1.496h-10.666v50.345h18.719v-50.345h.366z" fill="#fff" opacity=".5"></path><path d="m441.067 438.09h-99.914c-7.364 0-13.335 5.97-13.335 13.335v34.116z" fill="#fb888b"></path><path d="m75.632 438.09h99.914c7.364 0 13.335 5.97 13.335 13.335v34.116z" fill="#fb888b"></path><g fill="#fddc8d"><path d="m256.004 267.459v47.919c0 5.044-2.522 9.89-6.775 12.807l-85.354 59.491c-5.341 3.758-11.374 6.478-17.753 7.517-15.923 2.374-30.265-4.5-38.671-15.527-5.242-6.924-8.258-15.479-8.258-24.578v-31.55l.495.346c23.341 13.995 52.567 13.649 76.304.494l43.518-24.182c3.808-1.929 6.923-4.995 8.753-8.902l4.055-8.654c4.251-9.246 13.499-15.181 23.686-15.181z"></path><path d="m412.816 323.537v31.55c0 .395 0 .791-.049 1.138-.198 8.703-3.165 16.813-8.209 23.44-8.407 11.028-22.748 17.901-38.671 15.527-6.379-1.038-12.412-3.758-17.704-7.517l-85.404-59.491c-4.253-2.917-6.775-7.764-6.775-12.807v-47.919c10.187 0 19.435 5.935 23.687 15.181l4.055 8.654c1.83 3.907 4.945 6.973 8.753 8.902l43.518 24.182c23.737 13.154 52.963 13.5 76.304-.494l.445-.297z"></path><path d="m328.854 108.45-.853 25.386c-2.347 27.732-20.212 50.717-44.531 60.691v16.906c0 15.2-12.266 27.466-27.466 27.466-15.199 0-27.465-12.266-27.465-27.466v-16.906c-24.319-9.974-42.185-32.799-44.532-60.691l-.907-25.386c-.48-10.933 6.826-20.799 17.492-23.306 27.306-6.399 41.332-17.76 48.371-28.639 3.36-5.12 10.666-5.12 14.026 0 7.093 10.879 21.066 22.239 48.371 28.639 10.668 2.507 17.974 12.373 17.494 23.306z"></path></g><g><path d="m438.555 393.906h-41.87c13.062-8.173 20.977-22.095 21.407-37.311.103-1.169-.02-84.976-.021-85.512 0-30.968-22.954-56.862-53.597-60.832v-101.724c.001-60.054-48.574-108.527-108.474-108.527-59.841 0-108.527 48.686-108.527 108.527v101.723c-30.64 3.977-53.602 29.876-53.602 60.833 0 .557-.02 79.914.011 84.275.093 15.994 8.306 30.333 21.441 38.548h-41.878c-32.551 0-59.034 26.483-59.034 59.034 0 32.556 26.483 59.039 59.034 59.039 16.751.002-60.673-.008 163.801.021 8.655 0 16.282-4.238 21.107-10.686 4.828 6.435 12.457 10.666 21.115 10.666h159.087c32.551 0 59.034-26.483 59.034-59.039 0-32.552-26.483-59.035-59.034-59.035zm-97.386 38.874c-10.127 0-18.356 8.121-18.617 18.187-.721-.212-20.886 2.856-24.287-15.755-.404-.793-2.016-41.239-39.849-41.303-.023 0-.043-.013-.066-.013-37.493 0-39.653 40.756-39.926 41.29-3.338 18.521-23.718 15.65-24.251 15.807-.236-10.087-8.479-18.234-18.628-18.234h-13.302v-37.756c3.004-1.69 91.043-62.699 93.758-65.728 2.876 3.208 90.904 64.104 93.807 65.733v37.771h-8.639zm25.571-42.853c-13.491-2.184-15.332-7.732-100.944-66.143-2.792-1.911-4.458-5.052-4.458-8.406v-41.884c5.875 1.578 10.901 5.703 13.526 11.406 3.195 5.474 4.56 14.663 15.046 19.958l43.524 24.187c23.223 12.871 50.831 13.997 73.971 3.431v23.776c0 .013.007.024.007.037-.587 21.208-19.704 36.762-40.672 33.638zm-110.74-379.261c53.937 0 97.809 43.626 97.809 97.861v100.531l-65.008-6.879v-4.116c54.75-25.34 43.257-81.431 45.378-89.364.594-13.572-8.484-25.655-21.588-28.738-21.916-5.156-37.108-14.02-45.149-26.353-5.59-8.573-17.601-8.148-22.921 0-8.041 12.333-23.233 21.197-45.139 26.353-13.109 3.078-22.187 15.166-21.593 28.686 1.723 6.449-8.722 64.474 45.415 89.445v4.087l-65.065 6.879v-100.53c0-53.963 43.9-97.862 97.861-97.862zm25.426 178.936c-16.104 6.677-34.743 6.677-50.847 0-50.657-20.967-40.369-74.106-42.134-81.372-.37-8.453 5.255-15.979 13.38-17.885 24.666-5.807 42.035-16.202 51.633-30.91 1.244-1.91 3.813-1.902 5.052 0 9.588 14.703 26.962 25.103 51.633 30.91h.005c8.119 1.906 13.744 9.432 13.374 17.937-1.683 6.936 7.859 60.633-42.096 81.32zm-47.555 12.552c6.695 1.954 15.472 3.144 22.114 3.144 7.208 0 16.067-1.38 22.15-3.162v9.297c0 12.203-9.927 22.129-22.129 22.129-12.203 0-22.135-9.927-22.135-22.129zm-83.971 18.498 73.378-7.759c.771 17.403 15.132 31.337 32.727 31.337 17.59 0 31.95-13.933 32.722-31.336l73.311 7.758c25.864 2.802 45.368 24.478 45.368 50.43v49.332c-14.246 7.839-30.857 10.19-46.93 7.096v-52.162c0-2.948-2.385-5.333-5.333-5.333s-5.333 2.385-5.333 5.333v49.285c-11.529-4.088-12.131-5.885-54.904-29.197-6.535-3.303-6.858-8.679-10.369-15.025-5.109-11.109-16.312-18.286-28.53-18.286-12.223 0-23.426 7.177-28.52 18.254-3.66 6.618-3.753 11.69-10.567 15.156-42.244 23.029-43.224 25.013-54.675 29.085v-49.272c0-2.948-2.385-5.333-5.333-5.333s-5.333 2.385-5.333 5.333v52.162c-16.193 3.142-32.901.783-47.04-7.091v-49.337c-.002-25.941 19.508-47.617 45.361-50.43zm-45.363 134.427v-22.625c23.153 10.588 50.788 9.483 74.044-3.415l43.332-24.082c10.727-5.431 11.956-14.448 15.244-20.088 2.614-5.677 7.635-9.802 13.515-11.375v41.884c0 3.297-1.708 6.521-4.495 8.432l-85.377 59.508c-5.005 3.526-10.229 5.75-15.468 6.599-21.545 3.223-40.795-13.107-40.795-34.838zm-79.46 97.861c0-26.671 21.697-48.368 48.368-48.368h78.132v28.186h-75.945c-2.948 0-5.333 2.385-5.333 5.333s2.385 5.333 5.333 5.333h99.913c4.416 0 8.005 3.588 8.005 8v49.889h-110.105c-26.671 0-48.368-21.702-48.368-48.373zm212.169 48.394h-43.004v-39.676c.534-.172 29.688 3.054 34.681-24.577 1.155-2.689.38-27.465 24.093-32.014v80.497c0 8.697-7.073 15.77-15.77 15.77zm26.436-15.754v-.016-80.486c24.034 4.598 22.87 29.188 24.088 32.025 5.029 27.561 34.147 24.359 34.681 24.53v39.681h-42.983c-8.703-.001-15.786-7.058-15.786-15.734zm174.873 15.733h-105.386c0-26.764 0-44.964 0-49.868 0-4.411 3.588-8 8-8h99.892c2.948 0 5.333-2.385 5.333-5.333s-2.385-5.333-5.333-5.333h-80.585v-28.207h78.08c26.671 0 48.368 21.697 48.368 48.368s-21.698 48.373-48.369 48.373z"></path></g></g></g></svg>