<!-- icon666.com - MILLIONS OF FREE VECTOR ICONS --><svg id="Layer_1" enable-background="new 0 0 512.001 512.001" viewBox="0 0 512.001 512.001" xmlns="http://www.w3.org/2000/svg"><g><g clip-rule="evenodd" fill-rule="evenodd"><path d="m155.584 234.551c-11.393 30.809-8.697 40.373-8.697 73.097v65.511 24.798l-136.887 66.448v37.597h144.823l44.141-40.655c28.642 0 53.234-23.451 52.076-52.059l-5.456-134.808c-.838-20.712-18.992-29.346-31.776-22.961l35.883-111.249c5.342-19.93 4.542-40.564-13.394-47.52-3.628-1.407-11.535-1.778-16.267 7.75z" fill="currentColor" style="fill: rgb(240, 222, 219);"></path><path d="m262.309 140.269 35.883 111.249c-12.784-6.385-30.938 2.25-31.776 22.962l-5.456 134.808c-1.158 28.608 23.434 52.059 52.077 52.059l44.141 40.655h144.823l-.001-37.597-136.887-66.447c0-9.623 0-17.647 0-24.798 0-22.834 0-36.776 0-65.511 0-32.724 2.696-42.288-8.697-73.097l-64.446-134.054c-4.732-9.528-12.639-9.157-16.267-7.75-17.936 6.956-18.736 27.59-13.394 47.521z" fill="currentColor" style="fill: rgb(240, 222, 219);"></path><path d="m251.041 409.287h9.92l5.456-134.808c.838-20.712 18.992-29.346 31.776-22.962l-35.883-111.249c-5.342-19.93-4.542-40.564 13.395-47.52 3.628-1.407 11.535-1.778 16.267 7.75l64.447 134.053c11.393 30.809 8.697 40.373 8.697 73.097v65.511c44.669-34.047 70.887-86.993 70.887-143.158 0-99.411-80.589-180-180-180s-180 80.589-180 180c0 56.165 26.217 109.112 70.886 143.158 0-22.834 0-36.776 0-65.511 0-32.724-2.696-42.288 8.697-73.097l64.447-134.053c4.732-9.528 12.639-9.157 16.267-7.75 17.936 6.956 18.736 27.59 13.394 47.52l-35.883 111.249c12.784-6.385 30.938 2.25 31.776 22.962z" fill="currentColor" style="fill: rgb(255, 104, 66);"></path></g><g><path d="m506.367 455.408-131.253-63.712v-13.689c21.775-17.531 39.7-40.027 51.884-65.182 12.432-25.666 19.003-54.307 19.003-82.824 0-34.132-9.169-67.621-26.517-96.846-2.819-4.749-8.955-6.311-13.704-3.495-4.749 2.819-6.314 8.955-3.495 13.704 15.515 26.137 23.715 56.096 23.715 86.637 0 46.184-18.352 89.469-50.887 121.302v-43.655c0-5.669.083-10.724.157-15.184.365-22.071.566-34.229-9.475-61.383-.109-.293-.231-.582-.367-.864l-64.446-134.052c-.019-.038-.038-.077-.057-.115-6.813-13.717-19.725-16.158-28.838-12.624-6.922 2.684-12.305 6.963-16.087 12.611-3.782-5.648-9.165-9.927-16.086-12.611-9.114-3.535-22.026-1.094-28.839 12.624-.019.038-.038.077-.057.115l-64.447 134.053c-.136.282-.258.57-.367.864-10.042 27.153-9.84 39.312-9.475 61.383.074 4.46.157 9.515.157 15.184v43.655c-32.534-31.833-50.886-75.118-50.886-121.302 0-93.738 76.262-170 170-170 30.544 0 60.5 8.199 86.629 23.711 4.751 2.821 10.885 1.257 13.704-3.494 2.819-4.749 1.255-10.884-3.494-13.703-29.218-17.346-62.704-26.514-96.839-26.514-104.767 0-190 85.233-190 190 0 28.519 6.571 57.159 19.003 82.825 12.184 25.154 30.109 47.649 51.883 65.18v13.69l-131.252 63.711c-3.446 1.673-5.634 5.166-5.634 8.996v37.597c0 5.522 4.477 10 10 10h144.822c2.51 0 4.928-.944 6.774-2.645l41.415-38.143c15.59-1.024 30.496-7.923 41.404-19.281 4.914-5.117 8.801-10.883 11.585-17.067 2.783 6.184 6.671 11.95 11.584 17.067 10.908 11.358 25.814 18.257 41.404 19.281l41.415 38.143c1.846 1.7 4.264 2.645 6.774 2.645h144.823c5.523 0 10-4.478 10-10v-37.597c0-3.83-2.187-7.323-5.633-8.996zm-276.376-17.329c-8.097 8.432-19.406 13.268-31.026 13.268-2.51 0-4.928.944-6.774 2.645l-41.271 38.01h-130.92v-21.335l131.253-63.712c3.446-1.673 5.633-5.166 5.633-8.996v-90.31c0-5.834-.085-10.977-.16-15.515-.344-20.798-.502-30.358 8.076-53.678l64.21-133.561c1.156-2.306 2.396-3.248 3.67-2.823 13.221 5.127 10.362 24.253 7.414 35.371l-34.693 107.56c-7.421 5.28-13.128 14.429-13.941 27.882l-4.463 73.874c-.333 5.514 3.866 10.252 9.379 10.585 5.518.347 10.251-3.866 10.585-9.378l4.463-73.875c.554-9.176 4.749-14.638 11.23-14.638h.115c5.877.059 12.396 4.912 12.822 15.431l5.456 134.808c.422 10.441-3.505 20.522-11.058 28.387zm26.433-164.004-.424 10.473-.424-10.473c-.801-19.807-13.981-31.636-27.529-34.127l27.953-86.661 27.952 86.661c-13.546 2.491-26.726 14.321-27.528 34.127zm235.576 217.926h-130.918l-41.27-38.01c-1.846-1.7-4.264-2.645-6.774-2.645-11.621 0-22.93-4.836-31.027-13.268-7.553-7.865-11.48-17.946-11.058-28.388l5.456-134.808c.426-10.519 6.945-15.372 12.822-15.431h.115c6.48 0 10.676 5.462 11.23 14.639l4.464 73.874c.333 5.513 5.065 9.726 10.585 9.378 5.513-.333 9.712-5.071 9.379-10.585l-4.464-73.873c-.813-13.455-6.519-22.604-13.941-27.884l-34.693-107.559c-2.949-11.118-5.808-30.244 7.396-35.364 1.294-.439 2.532.511 3.688 2.815l64.211 133.562c8.578 23.318 8.419 32.879 8.075 53.678-.075 4.537-.16 9.681-.16 15.515v90.31c0 3.83 2.188 7.323 5.633 8.996l131.251 63.713z" fill="currentColor"></path><path d="m256.004 20c5.523 0 10-4.478 10-10s-4.477-10-10-10h-.007c-5.523 0-9.997 4.478-9.997 10s4.481 10 10.004 10z" fill="currentColor"></path><path d="m360.763 47.993c1.635 1.006 3.444 1.484 5.232 1.484 3.357 0 6.637-1.69 8.526-4.76 2.895-4.704 1.428-10.863-3.275-13.758l-.006-.004c-4.703-2.895-10.86-1.426-13.755 3.277-2.895 4.706-1.425 10.867 3.278 13.761z" fill="currentColor"></path><path d="m446.537 130.006c1.502 0 3.029-.34 4.464-1.058 4.94-2.47 6.942-8.477 4.472-13.417l-.003-.007c-2.47-4.939-8.477-6.94-13.415-4.468-4.94 2.47-6.94 8.479-4.471 13.419 1.753 3.505 5.284 5.531 8.953 5.531z" fill="currentColor"></path><path d="m476.001 240.005c5.523 0 10-4.478 10-10v-.008c0-5.522-4.477-9.996-10-9.996s-10 4.481-10 10.004 4.478 10 10 10z" fill="currentColor"></path><path d="m450.999 331.058c-4.939-2.473-10.949-.466-13.418 4.476-2.47 4.939-.468 10.946 4.472 13.416 1.436.718 2.961 1.058 4.464 1.058 3.668 0 7.2-2.025 8.952-5.529l.003-.007c2.471-4.942.467-10.945-4.473-13.414z" fill="currentColor"></path><path d="m146.01 49.475c1.789 0 3.6-.479 5.234-1.485 4.704-2.895 6.17-9.054 3.275-13.758s-9.055-6.171-13.758-3.275l-.006.004c-4.704 2.895-6.167 9.052-3.272 13.756 1.89 3.068 5.169 4.758 8.527 4.758z" fill="currentColor"></path><path d="m61.002 128.944c1.435.718 2.959 1.058 4.462 1.058 3.669 0 7.204-2.027 8.956-5.533 2.47-4.939.468-10.946-4.472-13.416-4.939-2.471-10.947-.469-13.417 4.472l-.003.007c-2.469 4.94-.465 10.943 4.474 13.412z" fill="currentColor"></path><path d="m36 240.001c5.523 0 10-4.481 10-10.004s-4.477-10-10-10-10 4.478-10 10v.008c0 5.522 4.477 9.996 10 9.996z" fill="currentColor"></path><path d="m56.532 344.478c1.752 3.503 5.281 5.527 8.948 5.527 1.503 0 3.03-.341 4.466-1.06 4.94-2.47 6.94-8.479 4.471-13.419-2.47-4.94-8.476-6.942-13.417-4.473-4.94 2.47-6.942 8.477-4.472 13.417z" fill="currentColor"></path><path d="m376.209 109.793c1.953 1.952 4.512 2.929 7.071 2.929s5.118-.977 7.071-2.929c3.905-3.905 3.905-10.237 0-14.143l-.005-.005c-3.905-3.904-10.233-3.903-14.139.003s-3.903 10.24.002 14.145z" fill="currentColor"></path></g></g></svg>