<!-- icon666.com - MILLIONS OF FREE VECTOR ICONS --><svg version="1.1" id="Capa_1" xmlns="http://www.w3.org/2000/svg" xmlns:xlink="http://www.w3.org/1999/xlink" x="0px" y="0px" viewBox="0 0 448.478 448.478" style="enable-background:new 0 0 448.478 448.478;" xml:space="preserve"><path d="M440.978,248.848c-9.953,0-15.276,3.438-19.553,6.2c-3.543,2.289-5.885,3.8-11.416,3.8s-7.872-1.512-11.415-3.8 c-4.277-2.762-9.6-6.2-19.553-6.2c-9.953,0-15.275,3.438-19.551,6.2c-3.542,2.289-5.883,3.8-11.413,3.8 c-5.53,0-7.87-1.512-11.413-3.8c-1.813-1.171-3.818-2.461-6.279-3.561l2.268-2.268c14.193-14.193,19.738-35.042,14.473-54.411 c-3.858-14.192,0.206-29.469,10.605-39.869l9.31-9.31l1.867,1.867c1.464,1.464,3.384,2.197,5.303,2.197s3.839-0.732,5.303-2.197 l27.005-27.005c2.929-2.929,2.929-7.678,0-10.606l-5.578-5.578l23.74-18.303c1.708-1.317,2.766-3.305,2.905-5.458 s-0.656-4.26-2.181-5.785l-38.858-38.858c-1.525-1.525-3.639-2.327-5.785-2.181c-2.152,0.139-4.141,1.197-5.458,2.905l-18.303,23.74 l-5.578-5.578c-2.929-2.929-7.678-2.929-10.606,0l-27.005,27.005c-2.929,2.929-2.929,7.678,0,10.606l1.867,1.867l-9.31,9.31 c-10.4,10.399-25.676,14.463-39.87,10.605c-19.37-5.265-40.217,0.281-54.41,14.474L86.967,253.779 c-3.971-2.443-9.082-4.93-17.546-4.93c-9.952,0-15.273,3.438-19.55,6.2c-3.542,2.288-5.882,3.8-11.41,3.8s-7.869-1.512-11.411-3.8 c-4.276-2.762-9.598-6.2-19.55-6.2c-4.142,0-7.5,3.358-7.5,7.5s3.358,7.5,7.5,7.5c5.528,0,7.869,1.512,11.411,3.8 c4.276,2.762,9.598,6.2,19.55,6.2c9.952,0,15.273-3.438,19.55-6.2c3.542-2.288,5.882-3.8,11.41-3.8c2.758,0,4.722,0.376,6.438,1.038 l-21.042,21.042c-5.349,5.349-8.295,12.461-8.295,20.026s2.946,14.677,8.295,20.026l80.511,80.511 c5.522,5.522,12.773,8.282,20.026,8.282c7.251,0,14.505-2.761,20.026-8.282l142.628-142.628c4.897,0.157,7.173,1.624,10.518,3.785 c4.277,2.762,9.599,6.2,19.552,6.2s15.275-3.438,19.551-6.2c3.542-2.289,5.883-3.8,11.413-3.8c5.531,0,7.872,1.512,11.416,3.8 c4.277,2.762,9.6,6.2,19.553,6.2c9.954,0,15.276-3.438,19.553-6.2c3.543-2.289,5.884-3.8,11.415-3.8c4.142,0,7.5-3.358,7.5-7.5 S445.12,248.848,440.978,248.848z M381.975,52.542l26.792,26.792l-18.519,14.278l-22.551-22.551L381.975,52.542z M346.121,70.698 l44.49,44.49l-16.398,16.398l-44.49-44.49L346.121,70.698z M222.696,139.262c7.803-7.803,18.35-12.039,29.125-12.039 c3.586,0,7.2,0.47,10.744,1.433c19.369,5.266,40.218-0.281,54.411-14.473l9.31-9.31l30.149,30.149l-9.31,9.31 c-14.193,14.193-19.739,35.042-14.474,54.41c3.858,14.192-0.206,29.47-10.605,39.87l-10.668,10.668 c-6.42,1.003-10.448,3.591-13.817,5.767c-3.542,2.289-5.883,3.8-11.413,3.8s-7.87-1.512-11.412-3.8 c-2.942-1.9-6.378-4.12-11.476-5.32l49.023-49.023c0.009-0.009,0.016-0.018,0.024-0.027c8.207-8.219,12.726-19.144,12.722-30.765 c-0.001-4.141-3.359-7.498-7.5-7.498c0,0-0.001,0-0.002,0c-4.142,0.001-7.499,3.36-7.498,7.502 c0.002,7.624-2.963,14.789-8.351,20.177c-5.386,5.385-12.547,8.351-20.178,8.351c-0.003,0-0.007,0-0.01,0 c-0.848-0.016-1.673-0.047-2.497-0.143l20.492-20.491c1.407-1.406,2.197-3.314,2.197-5.303c0-14.308-11.64-25.948-25.948-25.948 c-8.156,0-15.824,3.173-21.594,8.933c-0.008,0.008-0.015,0.009-0.023,0.017L153.16,256.469c-0.728-0.429-1.466-0.904-2.267-1.421 c-4.276-2.762-9.598-6.2-19.551-6.2c-9.952,0-15.274,3.438-19.55,6.2c-2.853,1.842-4.928,3.18-8.514,3.632L222.696,139.262z M157.313,273.529c1.526,0.203,3.18,0.319,4.992,0.319c9.953,0,15.275-3.438,19.551-6.2c3.542-2.288,5.883-3.8,11.412-3.8 c5.528,0,7.868,1.512,11.41,3.8c3.348,2.163,7.349,4.733,13.7,5.749l-61.864,61.865c-5.385,5.384-12.542,8.349-20.167,8.349 c-0.014,0-0.027,0-0.039,0c-4.212,0-8.279-1.226-11.763-3.547c-5.969-3.975-9.532-10.62-9.532-17.783 c-0.004-4.157,1.611-8.063,4.548-11L157.313,273.529z M235.636,255.049c-3.542,2.288-5.882,3.8-11.41,3.8 c-5.527,0-7.867-1.512-11.409-3.8c-4.276-2.762-9.598-6.2-19.549-6.2c-6.454,0-10.955,1.448-14.492,3.218l67.239-67.239 c1.977,9.132,7.409,17.242,15.378,22.547c5.117,3.416,10.97,5.437,17.071,5.938l-39.929,39.929 C237.5,253.849,236.542,254.463,235.636,255.049z M260.175,177.116c-0.002-4.154,1.615-8.06,4.553-10.998 c2.939-2.939,6.849-4.558,11.007-4.558c5.085,0,9.372,3.485,10.597,8.193l-21.127,21.126 C261.992,187.078,260.175,182.229,260.175,177.116z M164.773,395.885c-2.516,2.516-5.861,3.902-9.42,3.902 c-3.558,0-6.903-1.386-9.419-3.902l-80.511-80.511c-2.516-2.516-3.902-5.861-3.902-9.419s1.386-6.903,3.902-9.419l24.302-24.302 c2.873,0.963,6.325,1.615,10.656,1.615c9.952,0,15.274-3.438,19.55-6.2c3.542-2.288,5.882-3.8,11.411-3.8 c5.28,0,7.654,1.38,10.942,3.497l-33.329,33.329c-5.773,5.773-8.949,13.452-8.941,21.613c0,12.186,6.063,23.499,16.217,30.261 c5.955,3.967,12.896,6.063,20.066,6.063c0.021,0,0.042,0,0.063,0c11.619,0,22.544-4.525,30.761-12.743l80.483-80.483 c2.004-0.967,4.194-1.537,7.583-1.537c5.529,0,7.87,1.512,11.412,3.8c4.276,2.763,9.599,6.2,19.551,6.2 c0.232,0,0.449-0.011,0.677-0.015L164.773,395.885z"></path></svg>