<!-- icon666.com - MILLIONS OF FREE VECTOR ICONS --><svg viewBox="-33 0 512 512" xmlns="http://www.w3.org/2000/svg"><path d="m381.199219 353.800781h-72.152344c-4.621094 0-8.367187-3.746093-8.367187-8.367187v-27.109375c0-22.691407-18.394532-41.085938-41.085938-41.085938h-72.949219c-22.691406 0-41.085937 18.394531-41.085937 41.085938v27.109375c0 4.621094-3.746094 8.367187-8.363282 8.367187h-72.15625c-5.769531 0-10.8125 4.34375-11.203124 10.097657-.433594 6.3125 4.53125 11.578124 10.753906 11.625l35.988281.132812c10.417969.035156 20.738281 1.992188 30.449219 5.765625l37.878906 14.734375v45.726562h108.425781v-45.726562l37.882813-14.734375c9.710937-3.773437 20.03125-5.730469 30.449218-5.769531l35.988282-.128906c6.21875-.046876 11.183594-5.316407 10.753906-11.625-.394531-5.757813-5.4375-10.097657-11.207031-10.097657zm0 0" fill="#ecf4f7"></path><path d="m116.335938 353.800781h-51.664063c-6 0-10.863281 4.863281-10.863281 10.863281 0 5.964844 4.8125 10.816407 10.777344 10.859376l35.992187.132812c5.300781.019531 10.574219.539062 15.757813 1.539062zm0 0" fill="#fddf7f"></path><path d="m284.847656 215.507812c0 34.09375-27.636718 61.730469-61.726562 61.730469-34.09375 0-61.726563-27.636719-61.726563-61.730469 0-34.089843 27.632813-61.726562 61.726563-61.726562 34.089844 0 61.726562 27.636719 61.726562 61.726562zm0 0" fill="#fddf7f"></path><path d="m186.644531 277.238281h36.472657c-34.089844-.003906-61.722657-27.640625-61.722657-61.730469 0-34.089843 27.636719-61.726562 61.726563-61.726562s61.726562 27.636719 61.726562 61.726562c0 34.089844-27.632812 61.726563-61.722656 61.730469h36.46875c22.691406 0 41.085938 18.394531 41.085938 41.085938v1.59375c31.859374-23.703125 52.503906-61.644531 52.503906-104.410157 0-71.828124-58.234375-130.058593-130.0625-130.058593-71.832032 0-130.0625 58.230469-130.0625 130.058593 0 42.765626 20.640625 80.703126 52.5 104.410157v-1.59375c0-22.691407 18.394531-41.085938 41.085937-41.085938zm0 0" fill="#83e1e5"></path><path d="m328.808594 506.878906h-211.375c-16.746094 0-30.324219-13.574218-30.324219-30.320312v-4.355469c0-16.746094 13.578125-30.320313 30.324219-30.320313h211.375c16.746094 0 30.320312 13.574219 30.320312 30.320313v4.355469c.003906 16.746094-13.574218 30.320312-30.320312 30.320312zm0 0" fill="#aab1ba"></path><path d="m184.066406 441.882812h78.105469v64.996094h-78.105469zm0 0" fill="#fddf7f"></path><path d="m329.902344 353.800781h51.667968c5.996094 0 10.859376 4.863281 10.859376 10.863281 0 5.964844-4.8125 10.816407-10.777344 10.859376l-35.988282.132812c-5.304687.019531-10.578124.539062-15.761718 1.539062zm0 0" fill="#fddf7f"></path><path d="m30.582031 441.882812c0-2.828124 2.292969-5.121093 5.121094-5.121093h6.117187v-6.117188c0-2.828125 2.292969-5.121093 5.121094-5.121093 2.824219 0 5.117188 2.292968 5.117188 5.121093v6.117188h6.121094c2.824218 0 5.117187 2.292969 5.117187 5.121093 0 2.824219-2.292969 5.117188-5.117187 5.117188h-6.121094v6.121094c0 2.824218-2.292969 5.117187-5.117188 5.117187-2.828125 0-5.121094-2.292969-5.121094-5.117187v-6.121094h-6.117187c-2.828125 0-5.121094-2.289062-5.121094-5.117188zm373.839844-5.121093v-6.117188c0-2.828125-2.292969-5.121093-5.121094-5.121093s-5.121093 2.292968-5.121093 5.121093v6.117188h-6.117188c-2.828125 0-5.121094 2.292969-5.121094 5.121093 0 2.824219 2.292969 5.117188 5.121094 5.117188h6.117188v6.121094c0 2.824218 2.292968 5.117187 5.121093 5.117187s5.121094-2.292969 5.121094-5.117187v-6.121094h6.117187c2.828126 0 5.121094-2.292969 5.121094-5.117188 0-2.828124-2.292968-5.121093-5.121094-5.121093zm-274.085937-129.984375c2.089843-1.902344 2.242187-5.144532.339843-7.234375-20.957031-23.039063-32.496093-52.878907-32.496093-84.03125 0-68.894531 56.046874-124.941407 124.941406-124.941407 68.890625 0 124.941406 56.046876 124.941406 124.941407 0 31.152343-11.542969 60.996093-32.496094 84.03125-1.902344 2.09375-1.75 5.332031.339844 7.234375.980469.890625 2.214844 1.332031 3.445312 1.332031 1.390626 0 2.777344-.566406 3.785157-1.675781 22.675781-24.925782 35.164062-57.21875 35.164062-90.925782 0-74.539062-60.640625-135.179687-135.179687-135.179687-74.539063 0-135.183594 60.640625-135.183594 135.179687 0 33.707032 12.488281 66 35.164062 90.925782 1.902344 2.09375 5.140626 2.246094 7.234376.34375zm-117.949219 194.984375h-7.265625c-2.828125 0-5.121094 2.292969-5.121094 5.117187 0 2.828125 2.292969 5.121094 5.121094 5.121094h7.265625c2.828125 0 5.121093-2.292969 5.121093-5.121094 0-2.824218-2.292968-5.117187-5.121093-5.117187zm408.421875 5.117187c0 2.828125-2.292969 5.121094-5.121094 5.121094h-385.132812c-2.828126 0-5.121094-2.292969-5.121094-5.121094 0-2.824218 2.292968-5.117187 5.121094-5.117187h61.988281c-6.507813-6.429688-10.550781-15.355469-10.550781-25.203125v-4.355469c0-19.542969 15.898437-35.441406 35.441406-35.441406h211.375c19.542968 0 35.441406 15.898437 35.441406 35.441406v4.355469c0 9.847656-4.042969 18.773437-10.550781 25.203125h61.988281c2.828125 0 5.121094 2.292969 5.121094 5.117187zm-293.972656-5.117187h52.113281v-42.261719c0-2.828125 2.292969-5.121094 5.117187-5.121094 2.828125 0 5.121094 2.292969 5.121094 5.121094v9.761719h67.863281v-22.257813h-139.617187c-13.898438 0-25.203125 11.304688-25.203125 25.203125v4.351563c0 13.894531 11.304687 25.203125 25.203125 25.203125zm201.972656 0c13.894531 0 25.203125-11.308594 25.203125-25.203125v-4.355469c0-13.894531-11.308594-25.203125-25.203125-25.203125h-61.515625v41.78125c0 2.828125-2.292969 5.121094-5.121094 5.121094s-5.121094-2.292969-5.121094-5.121094v-9.28125h-67.863281v22.261719zm112.3125 0h-7.265625c-2.828125 0-5.121094 2.292969-5.121094 5.117187 0 2.828125 2.292969 5.121094 5.121094 5.121094h7.265625c2.828125 0 5.121094-2.292969 5.121094-5.121094 0-2.824218-2.292969-5.117187-5.121094-5.117187zm-354.878906-174.152344c8.632812 0 15.65625 7.023437 15.65625 15.652344 0 1.90625-.359376 3.726562-.984376 5.417969h36.28125c1.789063 0 3.242188-1.453126 3.242188-3.246094v-27.109375c0-25.480469 20.730469-46.207031 46.207031-46.207031h.984375c-18.816406-11.839844-31.355468-32.78125-31.355468-56.609376 0-36.859374 29.988281-66.847656 66.847656-66.847656s66.847656 29.988282 66.847656 66.847656c0 23.828126-12.539062 44.769532-31.355469 56.609376h.980469c25.480469 0 46.207031 20.726562 46.207031 46.207031v27.109375c0 1.792968 1.457031 3.246094 3.246094 3.246094h36.28125c-.628906-1.691407-.988281-3.511719-.988281-5.417969 0-8.628907 7.023437-15.652344 15.65625-15.652344 8.632812 0 15.65625 7.023437 15.65625 15.652344 0 1.90625-.359375 3.726562-.988282 5.417969h6.535157c8.578125 0 15.742187 6.53125 16.316406 14.871093.304687 4.457031-1.195313 8.710938-4.222656 11.972657-2.984375 3.222656-7.214844 5.089843-11.601563 5.121093l-36.011718.132813c-4.949219.015625-9.851563.492187-14.667969 1.410156-.046875.011719-.09375.023438-.140625.03125-4.691406.90625-9.304688 2.230469-13.800782 3.980469l-34.617187 13.460937v25.878906c0 2.828126-2.292969 5.121094-5.121094 5.121094s-5.117187-2.292968-5.117187-5.121094v-29.382812c0-.003906 0-.007812 0-.015625v-68.785156c0-2.828125 2.289062-5.121094 5.121094-5.121094 2.828124 0 5.117187 2.292969 5.117187 5.121094v61.3125l30.90625-12.015625c3.742187-1.457032 7.558594-2.648438 11.421875-3.585938v-14.148437h-15.734375c-7.4375 0-13.484375-6.046875-13.484375-13.484375v-27.113282c0-19.832031-16.132812-35.964843-35.964844-35.964843h-72.953125c-19.832031 0-35.964843 16.132812-35.964843 35.964843v27.113282c0 7.4375-6.050782 13.484375-13.484376 13.484375h-15.738281v14.148437c3.867188.9375 7.683594 2.128906 11.425781 3.585938l30.90625 12.015625v-61.3125c0-2.828125 2.292969-5.121094 5.117188-5.121094 2.828125 0 5.121094 2.292969 5.121094 5.121094v98.183593c0 2.824219-2.292969 5.117188-5.121094 5.117188-2.824219 0-5.117188-2.292969-5.117188-5.117188v-25.882812l-34.617187-13.460938c-4.496094-1.75-9.109375-3.074218-13.800781-3.980468-.046875-.007813-.09375-.019532-.140625-.03125-4.816407-.917969-9.71875-1.394532-14.671875-1.410156l-35.988282-.132813c-4.410156-.03125-8.640624-1.898437-11.625-5.117187-3.023437-3.265626-4.523437-7.519532-4.21875-11.976563.570313-8.335937 7.734376-14.867187 16.3125-14.867187h6.535157c-.628907-1.691407-.988281-3.511719-.988281-5.417969 0-8.628907 7.023437-15.652344 15.65625-15.652344zm268.339843 15.652344c0 2.988281 2.429688 5.417969 5.414063 5.417969s5.414062-2.429688 5.414062-5.417969c0-2.984375-2.429687-5.414063-5.414062-5.414063s-5.414063 2.429688-5.414063 5.414063zm26.617188 15.660156h-46.175781v12.300781c3.511718-.429687 7.050781-.675781 10.621093-.6875l35.988281-.128906c1.582032-.015625 3.0625-.667969 4.148438-1.84375 1.089844-1.171875 1.625-2.703125 1.515625-4.3125-.199219-2.941406-2.933594-5.328125-6.097656-5.328125zm-158.078125-86.804687c31.210937 0 56.605468-25.394532 56.605468-56.609376 0-31.210937-25.394531-56.605468-56.605468-56.605468-31.214844 0-56.609375 25.394531-56.609375 56.605468 0 31.214844 25.394531 56.609376 56.609375 56.609376zm-111.902344 86.804687h-46.179688c-3.160156 0-5.894531 2.386719-6.097656 5.328125-.109375 1.609375.429688 3.140625 1.515625 4.3125 1.089844 1.175781 2.570313 1.828125 4.167969 1.84375l35.972656.128906c3.566406.011719 7.109375.257813 10.621094.6875zm-30.390625-15.660156c0 2.988281 2.429687 5.417969 5.414063 5.417969 2.984374 0 5.414062-2.429688 5.414062-5.417969 0-2.984375-2.429688-5.414063-5.414062-5.414063-2.984376 0-5.414063 2.429688-5.414063 5.414063zm137.171875-312.878907v34.398438c0 2.828125 2.292969 5.121094 5.121094 5.121094s5.121094-2.292969 5.121094-5.121094v-34.398438c0-2.828124-2.292969-5.121093-5.121094-5.121093s-5.121094 2.292969-5.121094 5.121093zm5.121094-15.84375c2.828125 0 5.121094-2.292968 5.121094-5.121093v-4.296875c0-2.828125-2.292969-5.121094-5.121094-5.121094s-5.121094 2.292969-5.121094 5.121094v4.296875c0 2.828125 2.292969 5.121093 5.121094 5.121093zm103.460937 95.179688c1.308594 0 2.621094-.5 3.617188-1.5l24.328125-24.324219c2-2 2-5.242187 0-7.242187-2-1.996094-5.242188-1.996094-7.242188 0l-24.324218 24.324218c-2 2-2 5.242188 0 7.242188 1 .996094 2.3125 1.5 3.621093 1.5zm39.148438-39.148438c1.308593 0 2.617187-.5 3.617187-1.5l3.042969-3.039062c2-2 2-5.242188 0-7.242188s-5.242187-2-7.242187 0l-3.039063 3.042969c-2 1.996094-2 5.238281 0 7.238281.996094 1 2.308594 1.5 3.621094 1.5zm.921875 137.488282c0 2.828125 2.289062 5.121094 5.117187 5.121094h34.402344c2.828125 0 5.121094-2.292969 5.121094-5.121094s-2.292969-5.121094-5.121094-5.121094h-34.402344c-2.828125 0-5.117187 2.292969-5.117187 5.121094zm69.902344 0c0-2.828125-2.292969-5.121094-5.121094-5.121094h-4.300782c-2.828124 0-5.117187 2.292969-5.117187 5.121094s2.289063 5.121094 5.117187 5.121094h4.300782c2.828125 0 5.121094-2.292969 5.121094-5.121094zm-396.484376 5.121094h34.398438c2.828125 0 5.121094-2.292969 5.121094-5.121094s-2.292969-5.121094-5.121094-5.121094h-34.398438c-2.828124 0-5.121093 2.292969-5.121093 5.121094s2.292969 5.121094 5.121093 5.121094zm-20.960937-10.242188h-4.300781c-2.828125 0-5.121094 2.292969-5.121094 5.121094s2.292969 5.121094 5.121094 5.121094h4.300781c2.824219 0 5.117187-2.292969 5.117187-5.121094s-2.292968-5.121094-5.117187-5.121094zm96.929687-94.71875c1 .996094 2.308594 1.496094 3.621094 1.496094 1.308594 0 2.621094-.5 3.621094-1.496094 2-2 2-5.242188 0-7.242188l-24.324219-24.324218c-2-2-5.242187-2-7.242187 0s-2 5.242187 0 7.242187zm-39.148437-39.148438c1 1 2.3125 1.5 3.621094 1.5 1.3125 0 2.621093-.5 3.621093-1.5 2-2 2-5.242187 0-7.238281l-3.039062-3.042969c-2-1.996093-5.242188-1.996093-7.242188 0-2 2-2 5.242188 0 7.242188zm0 0" fill="#1c1d21"></path></svg>