<!-- icon666.com - MILLIONS OF FREE VECTOR ICONS --><svg version="1.1" id="Capa_1" xmlns="http://www.w3.org/2000/svg" xmlns:xlink="http://www.w3.org/1999/xlink" x="0px" y="0px" viewBox="0 0 512.001 512.001" style="enable-background:new 0 0 512.001 512.001;" xml:space="preserve"><g><g><path d="M232.467,28.768c-0.576-4.262-4.492-7.249-8.759-6.673c-51.405,6.952-99.865,31.219-136.453,68.328 C55.771,122.356,33.94,162.949,24.496,206.48l-9.983-17.122c-2.165-3.715-6.932-4.969-10.648-2.805 c-3.714,2.166-4.97,6.933-2.804,10.648l20.79,35.657c1.101,1.888,2.944,3.227,5.08,3.688c0.172,0.038,0.346,0.059,0.52,0.084 c0.072,0.011,0.141,0.028,0.214,0.037c0.007,0.001,0.014,0.001,0.021,0.001c0.297,0.034,0.594,0.054,0.891,0.054 c0.001,0,0.002,0,0.004,0c0.007,0,0.014,0.001,0.021,0.001c0.379,0,0.751-0.035,1.117-0.089c0.028-0.004,0.056-0.007,0.083-0.012 c0.385-0.06,0.76-0.149,1.126-0.264c0.002-0.001,0.004-0.001,0.006-0.002c0.857-0.271,1.656-0.685,2.363-1.222l33.453-23.722 c3.508-2.488,4.335-7.347,1.848-10.854c-2.488-3.509-7.346-4.335-10.855-1.848l-18.471,13.098 c8.572-41.431,29.165-80.119,59.071-110.452c34.18-34.668,79.443-57.336,127.452-63.829 C230.056,36.95,233.043,33.029,232.467,28.768z"></path></g></g><g><g><path d="M235.288,478.922l-23.875-33.671c-2.488-3.509-7.346-4.335-10.855-1.848c-3.508,2.488-4.335,7.347-1.848,10.854 l13.393,18.888c-42.18-8.392-80.508-28.723-111.532-59.306c-34.318-33.831-56.231-76.768-63.368-124.171 c-0.641-4.252-4.602-7.19-8.858-6.539c-4.252,0.64-7.18,4.606-6.54,8.858c7.643,50.758,31.1,96.728,67.835,132.94 c32.461,32,72.4,53.512,116.362,62.856l-16.644,9.704c-3.715,2.166-4.971,6.933-2.805,10.648c1.447,2.482,4.054,3.866,6.733,3.866 c1.332,0,2.681-0.342,3.914-1.06l35.658-20.789c1.888-1.101,3.226-2.944,3.689-5.08 C237.009,482.936,236.552,480.705,235.288,478.922z"></path></g></g><g><g><path d="M510.94,314.8l-20.79-35.657c-1.1-1.888-2.944-3.227-5.08-3.688c-2.136-0.465-4.367-0.006-6.15,1.258l-33.67,23.875 c-3.508,2.488-4.335,7.347-1.848,10.854c2.487,3.509,7.346,4.335,10.855,1.848l18.015-12.775 c-8.673,43.1-29.771,82.093-61.451,113.323c-34.35,33.861-77.652,55.16-125.223,61.595c-4.261,0.577-7.248,4.498-6.672,8.759 c0.528,3.907,3.869,6.744,7.706,6.744c0.347,0,0.699-0.023,1.053-0.071c50.938-6.89,97.298-29.69,134.068-65.938 c33.553-33.075,56.02-74.293,65.487-119.862l10.248,17.577c1.447,2.482,4.054,3.866,6.733,3.866c1.332,0,2.681-0.342,3.915-1.06 C511.85,323.281,513.106,318.515,510.94,314.8z"></path></g></g><g><g><path d="M490.532,228.009c-6.191-51.578-29.769-100.44-66.393-137.585c-32.548-33.012-74.493-55.848-119.548-65.386l18.052-10.524 c3.715-2.166,4.971-6.933,2.805-10.648c-2.165-3.714-6.934-4.97-10.647-2.805L279.143,21.85c-1.888,1.101-3.226,2.944-3.689,5.08 c-0.462,2.136-0.005,4.367,1.259,6.15l23.875,33.67c1.518,2.141,3.919,3.284,6.358,3.284c1.557,0,3.13-0.466,4.497-1.436 c3.508-2.488,4.335-7.347,1.848-10.854L300.82,40.156c42.293,8.836,81.688,30.222,112.231,61.201 c34.213,34.7,56.239,80.34,62.02,128.508c0.475,3.955,3.835,6.859,7.721,6.859c0.309,0,0.622-0.018,0.937-0.057 C487.999,236.155,491.044,232.278,490.532,228.009z"></path></g></g><g><g><path d="M353.081,312.143c-4.083-0.699-7.958,2.046-8.656,6.129c-7.375,43.159-44.563,74.483-88.425,74.483 c-43.865,0-81.054-31.327-88.427-74.489c-0.698-4.084-4.575-6.832-8.656-6.13c-4.083,0.697-6.827,4.572-6.13,8.655 c4.111,24.066,16.665,46.084,35.35,61.999c18.901,16.099,43.002,24.965,67.863,24.965c24.86,0,48.96-8.865,67.859-24.963 c18.685-15.913,31.239-37.93,35.352-61.993C359.909,316.716,357.164,312.84,353.081,312.143z"></path></g></g><g><g><path d="M356.561,280.83c-10.196-33.14-37.386-82.296-52.686-108.649c-9.563-16.472-19.515-32.748-28.023-45.831 c-3.769-5.796-7.054-10.647-9.502-14.028c-3.413-4.715-5.879-8.121-10.35-8.121c-4.467,0-6.923,3.391-10.322,8.083 c-2.432,3.358-5.698,8.176-9.445,13.936c-8.449,12.988-18.349,29.167-27.875,45.561c-15.225,26.2-42.319,75.12-52.711,108.377 c-1.235,3.955,0.968,8.161,4.922,9.396c3.954,1.241,8.16-0.967,9.396-4.921c15.129-48.418,68.799-136.457,86.001-161.038 c7.308,10.526,21.697,33.082,37.378,60.34c14.22,24.717,39.48,70.746,48.882,101.308c0.992,3.225,3.96,5.297,7.166,5.297 c0.73,0,1.473-0.107,2.206-0.337C355.557,288.985,357.779,284.789,356.561,280.83z"></path></g></g></svg>