<!-- icon666.com - MILLIONS OF FREE VECTOR ICONS --><svg version="1.1" id="Capa_1" xmlns="http://www.w3.org/2000/svg" xmlns:xlink="http://www.w3.org/1999/xlink" x="0px" y="0px" viewBox="0 0 512.001 512.001" style="enable-background:new 0 0 512.001 512.001;" xml:space="preserve"><g><path style="fill:#26DD9F;" d="M26.932,236.547c0.172,0.038,0.346,0.059,0.52,0.084c0.072,0.011,0.141,0.028,0.214,0.037 c0.007,0.001,0.014,0.001,0.021,0.001c0.297,0.034,0.594,0.054,0.891,0.054c0.001,0,0.002,0,0.004,0 c0.007,0,0.014,0.001,0.021,0.001c0.379,0,0.751-0.035,1.117-0.089c0.028-0.004,0.056-0.007,0.083-0.012 c0.385-0.06,0.76-0.149,1.126-0.264c0.002-0.001,0.004-0.001,0.006-0.002c0.857-0.271,1.656-0.685,2.363-1.222l33.453-23.722 c3.508-2.488,4.335-7.347,1.848-10.854c-2.488-3.509-7.346-4.335-10.855-1.848l-18.471,13.098 c8.572-41.431,29.165-80.119,59.071-110.452c34.18-34.668,79.443-57.336,127.451-63.829c4.261-0.577,7.248-4.498,6.672-8.759 c-0.576-4.262-4.492-7.249-8.759-6.673c-51.405,6.952-99.865,31.219-136.453,68.328c-31.483,31.933-53.314,72.526-62.758,116.057 l-9.983-17.122c-2.165-3.715-6.932-4.969-10.648-2.805c-3.714,2.166-4.97,6.933-2.804,10.648l20.79,35.657 C22.952,234.746,24.796,236.085,26.932,236.547z"></path><path style="fill:#26DD9F;" d="M211.413,445.251c-2.488-3.509-7.346-4.335-10.855-1.848c-3.508,2.488-4.335,7.347-1.848,10.854 l13.393,18.888c-42.18-8.392-80.507-28.723-111.532-59.306c-34.317-33.83-56.23-76.768-63.367-124.171 c-0.641-4.252-4.602-7.19-8.858-6.539c-4.252,0.64-7.18,4.606-6.54,8.858c7.643,50.758,31.1,96.728,67.835,132.94 c32.461,32,72.4,53.512,116.362,62.856l-16.644,9.704c-3.715,2.166-4.971,6.933-2.805,10.648c1.447,2.482,4.054,3.866,6.733,3.866 c1.332,0,2.681-0.342,3.914-1.06l35.658-20.789c1.888-1.101,3.226-2.944,3.689-5.08c0.462-2.136,0.005-4.367-1.259-6.15 L211.413,445.251z"></path><path style="fill:#26DD9F;" d="M510.94,314.801l-20.79-35.657c-1.1-1.888-2.944-3.227-5.079-3.688 c-2.136-0.465-4.367-0.006-6.15,1.258l-33.67,23.875c-3.508,2.488-4.335,7.347-1.848,10.854c2.487,3.509,7.346,4.335,10.855,1.848 l18.015-12.775c-8.673,43.1-29.771,82.093-61.451,113.323c-34.35,33.861-77.651,55.16-125.223,61.595 c-4.261,0.577-7.248,4.498-6.672,8.759c0.528,3.907,3.869,6.744,7.706,6.744c0.347,0,0.699-0.023,1.053-0.071 c50.938-6.89,97.298-29.69,134.067-65.938c33.552-33.075,56.02-74.293,65.487-119.861l10.248,17.577 c1.447,2.482,4.054,3.866,6.733,3.866c1.332,0,2.681-0.342,3.915-1.06C511.85,323.282,513.106,318.515,510.94,314.801z"></path><path style="fill:#26DD9F;" d="M306.947,70.034c1.557,0,3.13-0.466,4.497-1.436c3.508-2.488,4.335-7.347,1.848-10.854 l-12.471-17.588c42.293,8.836,81.688,30.222,112.231,61.2c34.213,34.7,56.239,80.339,62.02,128.508 c0.475,3.955,3.835,6.859,7.721,6.859c0.309,0,0.622-0.018,0.937-0.057c4.27-0.512,7.315-4.389,6.803-8.658 c-6.191-51.578-29.769-100.439-66.392-137.585c-32.548-33.011-74.493-55.848-119.547-65.386l18.052-10.524 c3.715-2.166,4.971-6.933,2.805-10.648c-2.165-3.714-6.934-4.97-10.647-2.805l-35.661,20.791c-1.888,1.101-3.226,2.944-3.689,5.08 c-0.462,2.136-0.005,4.367,1.259,6.15l23.875,33.67C302.107,68.892,304.508,70.034,306.947,70.034z"></path></g><path style="fill:#21D8DE;" d="M158.789,303.043c0,53.688,43.523,97.212,97.212,97.212s97.212-43.523,97.212-97.212 c0-43.276-93.315-191.339-97.211-191.339C252.105,111.705,158.789,259.767,158.789,303.043z"></path><path style="fill:#1EBBCC;" d="M256.001,111.705c-0.109,0-0.299,0.133-0.545,0.36c16.291,55.893,42.732,159.847,42.732,190.978 c0,44.132-29.411,81.389-69.699,93.256c8.724,2.57,17.956,3.955,27.512,3.955c53.689,0,97.212-43.523,97.212-97.212 C353.213,259.767,259.898,111.705,256.001,111.705z"></path></svg>