<!-- icon666.com - MILLIONS OF FREE VECTOR ICONS --><svg id="Layer_3" viewBox="0 0 64 64" xmlns="http://www.w3.org/2000/svg" data-name="Layer 3"><path d="m43 36c0-6.075-11-22-11-22s-11 15.925-11 22a11 11 0 0 0 22 0z" fill="#37c"></path><path d="m24 33a11 11 0 0 0 17.132 9.132 10.945 10.945 0 0 0 1.868-6.132c0-5.279-8.3-17.993-10.48-21.234-3.244 5.094-8.52 14.026-8.52 18.234z" fill="#3e88de"></path><path d="m46 42c0-2.761-5-9-5-9s-5 6.239-5 9a5 5 0 0 0 10 0z" fill="#4796eb"></path><path d="m38 40a5 5 0 0 0 5 5 4.95 4.95 0 0 0 2.375-.625 4.95 4.95 0 0 0 .625-2.375c0-2.381-3.71-7.338-4.735-8.661-1.444 2.061-3.265 4.993-3.265 6.661z" fill="#69b2f4"></path><path d="m32 5a27 27 0 0 0 -27 27h-3l6 8 6-8h-3a21 21 0 0 1 41.694-3.592l3.306-4.408 2.618 3.49h.007a27.011 27.011 0 0 0 -26.625-22.49z" fill="#66ab5d" style="fill: rgb(97, 150, 90);"></path><path d="m56 24-6 8h3a21 21 0 0 1 -41.694 3.592l-3.306 4.408-2.618-3.49h-.007a27 27 0 0 0 53.625-4.51h3z" fill="#ec6236"></path><path d="m55.04 25.281a24 24 0 1 0 -46.08 13.438l5.04-6.719h-3a21 21 0 0 1 41.694-3.592z" fill="#7bb873"></path><path d="m55.04 25.281-5.04 6.719h3a21 21 0 0 1 -41.694 3.592l-2.346 3.127a24 24 0 1 0 46.08-13.438z" fill="#ef784f"></path></svg>