<!-- icon666.com - MILLIONS OF FREE VECTOR ICONS --><svg id="Layer_1" viewBox="0 0 50 50" xmlns="http://www.w3.org/2000/svg"><g><g><path d="m11.6 6.8c6.7-5 15.7-5.9 23.4-2.1l2.1-3.2 1.6 8.3-8.3 1.6 1.9-2.8c-5.4-2.4-11.5-2-16.4 1" fill="#f3877e"></path><path d="m38.4 42.9c-6.7 4.9-15.7 5.9-23.4 2.1l-2.1 3.2-1.6-8.3 8.3-1.6-1.9 2.7c5.4 2.4 11.5 2 16.4-1" fill="#d7e8ff"></path><g><path d="m7 38.2c-5-6.6-5.9-15.7-2.1-23.3l-3.2-2.1 8.3-1.6 1.6 8.3-2.8-1.9c-2.4 5.4-2 11.6 1 16.5" fill="#ffc408"></path><path d="m43 11.4c4.9 6.7 5.9 15.7 2.1 23.4l3.2 2.1-8.3 1.7-1.6-8.3 2.8 1.9c2.4-5.4 2-11.5-1-16.4" fill="#34cba0"></path><path d="m25 10.4s-8.5 12.6-8.5 17.3 3.8 8.6 8.5 8.6 8.5-3.8 8.5-8.6c0-4.7-8.5-17.3-8.5-17.3z" fill="#2aabf5"></path></g><g fill="none" stroke-linecap="round" stroke-linejoin="round" stroke-miterlimit="10" stroke-width="1.404"><path d="m7 38.2c-5-6.6-5.9-15.7-2.1-23.3l-3.2-2.1 8.3-1.6 1.6 8.3-2.8-1.9c-2.4 5.4-2 11.6 1 16.5" stroke="#151f81"></path><path d="m11.6 6.8c6.7-5 15.7-5.9 23.4-2.1l2.1-3.2 1.6 8.3-8.3 1.6 1.9-2.8c-5.4-2.4-11.5-2-16.4 1" stroke="#151f81"></path><path d="m43 11.4c4.9 6.7 5.9 15.7 2.1 23.4l3.2 2.1-8.3 1.7-1.6-8.3 2.8 1.9c2.4-5.4 2-11.5-1-16.4" stroke="#151f81"></path><path d="m38.4 42.9c-6.7 4.9-15.7 5.9-23.4 2.1l-2.1 3.2-1.6-8.3 8.3-1.6-1.9 2.7c5.4 2.4 11.5 2 16.4-1" stroke="#151f81"></path><path d="m25 10.4s-8.5 12.6-8.5 17.3 3.8 8.6 8.5 8.6 8.5-3.8 8.5-8.6c0-4.7-8.5-17.3-8.5-17.3z" stroke="#151f81"></path><path d="m28.6 22.5c1.1 2.3 1.9 4.2 1.9 5.2 0 2.6-1.7 4.7-4.1 5.4" stroke="#fff"></path></g></g></g></svg>