<!-- icon666.com - MILLIONS OF FREE VECTOR ICONS --><svg xmlns="http://www.w3.org/2000/svg" id="Layer_3" data-name="Layer 3" viewBox="0 0 64 64"><path d="M46,42c0-2.761-5-9-5-9s-5,6.239-5,9a5,5,0,0,0,10,0Z" style="" fill="#f4b2b0"></path><path d="M32,5A27,27,0,0,0,5,32H2l6,8,6-8H11a21,21,0,0,1,41.694-3.592L56,24l2.618,3.49h.007A27.011,27.011,0,0,0,32,5Z" style="" fill="#f4b2b0"></path><path d="M56,24l-6,8h3a21,21,0,0,1-41.694,3.592L8,40,5.382,36.51H5.375A27,27,0,0,0,59,32h3Z" style="" fill="#f4b2b0"></path><path d="M32.823,13.431a1.038,1.038,0,0,0-1.646,0C30.721,14.091,20,29.686,20,36A11.969,11.969,0,0,0,37.327,46.734,5.99,5.99,0,0,0,47,42c0-1.77-1.6-4.529-3.039-6.652C43.327,28.709,33.258,14.061,32.823,13.431ZM22,36c0-4.341,6.59-15.11,10-20.215,1.97,2.964,6.946,10.707,9.042,16.242a.99.99,0,0,0-.819.348C39.686,33.041,35,38.975,35,42a5.955,5.955,0,0,0,.924,3.184A9.973,9.973,0,0,1,22,36ZM41,46a4,4,0,0,1-4-4c0-1.522,2.208-4.972,4-7.365,1.792,2.393,4,5.843,4,7.365A4,4,0,0,1,41,46Z" style="fill: rgb(204, 51, 64);" fill="#b3404a"></path><path d="M4.018,31H2a1,1,0,0,0-.8,1.6l3.234,4.312A28,28,0,0,0,59.982,33H62a1,1,0,0,0,.8-1.6l-3.234-4.312A28,28,0,0,0,4.018,31ZM59,31a1,1,0,0,0-1,1A26.009,26.009,0,0,1,7.553,40.894,1,1,0,0,0,8.8,40.6l2.012-2.683A22,22,0,0,0,54,32a1,1,0,0,0-1-1H52l4-5.333L60,31Zm-9.9,1.447A1,1,0,0,0,50,33h1.975A19.994,19.994,0,0,1,12.38,35.827L14.8,32.6A1,1,0,0,0,14,31H12.025a19.994,19.994,0,0,1,39.6-2.827L49.2,31.4A1,1,0,0,0,49.105,32.447Zm7.349-9.322A1.037,1.037,0,0,0,55.2,23.4l-2.012,2.683A22,22,0,0,0,10,32a1,1,0,0,0,1,1h1L8,38.333,4,33H5a1,1,0,0,0,1-1,26.009,26.009,0,0,1,50.454-8.875Z" style="fill: rgb(204, 51, 64);" fill="#b3404a"></path></svg>