<!-- icon666.com - MILLIONS OF FREE VECTOR ICONS --><svg viewBox="-11 0 512 512" xmlns="http://www.w3.org/2000/svg"><path d="m342.8125 506.878906h-196.449219c-15.566406 0-28.183593-12.617187-28.183593-28.179687v-4.046875c0-15.5625 12.617187-28.179688 28.183593-28.179688h196.449219c15.5625 0 28.179688 12.617188 28.179688 28.179688v4.046875c0 15.5625-12.617188 28.179687-28.179688 28.179687zm0 0" fill="#aab1ba"></path><path d="m401.917969 373.996094c-.367188-5.351563-5.050781-9.386719-10.414063-9.386719h-67.058594c-4.292968 0-7.773437-3.480469-7.773437-7.773437v-25.199219c0-15.167969-8.847656-28.265625-21.660156-34.429688l-.042969-.023437c-.59375-.28125-1.195312-.550782-1.804688-.804688-.15625-.066406-.320312-.125-.480468-.1875-.453125-.183594-.910156-.363281-1.375-.527344-.210938-.074218-.421875-.144531-.636719-.214843-.417969-.140625-.835937-.277344-1.261719-.402344-.238281-.074219-.480468-.140625-.722656-.207031-.402344-.109375-.8125-.214844-1.222656-.316406-.253906-.0625-.511719-.121094-.765625-.175782-.410157-.089844-.816407-.171875-1.230469-.246094-.261719-.046874-.523438-.097656-.785156-.140624-.421875-.070313-.84375-.125-1.269532-.179688-.257812-.035156-.511718-.070312-.769531-.101562-.464843-.046876-.929687-.082032-1.398437-.117188-.222656-.015625-.445313-.039062-.667969-.050781-.6875-.039063-1.378906-.058594-2.074219-.058594-.003906 0-.007812 0-.015625 0h-5.460937v20.734375c0 15.703125-12.734375 28.4375-28.4375 28.4375-4.417969 0-8.601563-1.007812-12.332032-2.804688 3.730469 1.796876 7.914063 2.804688 12.328126 2.804688 15.707031 0 28.4375-12.734375 28.4375-28.4375v-20.734375h-25.0625v-.109375c30.113281-1.746094 53.992187-26.710938 53.992187-57.261719 0-31.683593-25.683594-57.367187-57.367187-57.367187-31.683594 0-57.367188 25.683594-57.367188 57.367187 0 30.421875 23.683594 55.300781 53.617188 57.234375v.136719h-30.148438c-.007812 0-.015625 0-.023438 0-.691406 0-1.378906.019531-2.066406.058594-.226562.011719-.449218.035156-.675781.050781-.464844.035156-.929687.070312-1.390625.117188-.257812.03125-.515625.066406-.773438.101562-.421874.050781-.84375.109375-1.265624.179688-.265626.042968-.527344.09375-.792969.140624-.40625.074219-.816407.15625-1.21875.246094-.261719.054688-.519531.113282-.773438.175782-.410156.097656-.816406.207031-1.21875.316406-.246093.066406-.488281.132812-.726562.207031-.421875.125-.839844.261719-1.257813.402344-.210937.070312-.429687.140625-.640625.214843-.460937.164063-.917969.34375-1.367187.523438-.164063.066406-.328125.125-.488282.191406-.609374.253906-1.210937.523438-1.804687.804688l-.039063.023437c-12.8125 6.160157-21.660156 19.261719-21.660156 34.429688v25.195312c0 4.292969-3.480468 7.777344-7.773437 7.777344h-67.0625c-5.359375 0-10.046875 4.035156-10.414063 9.382813-.398437 5.867187 4.214844 10.761718 9.996094 10.804687l33.445312.121094c9.683594.035156 19.277344 1.855469 28.300782 5.363281l35.207031 13.691406v42.5h14.089844v60.40625h72.589843v-60.40625h14.085938v-42.5l35.207031-13.691406c9.023438-3.507812 18.617188-5.324219 28.300781-5.359375l33.445313-.121094c5.78125-.046875 10.398437-4.941406 9.996094-10.804687zm0 0" fill="#fddf7f"></path><path d="m294.96875 352.699219v-55.511719c-.59375-.285156-1.195312-.554688-1.804688-.808594-.15625-.0625-.320312-.125-.480468-.1875-.453125-.183594-.910156-.359375-1.375-.527344-.210938-.074218-.421875-.140624-.636719-.214843-.417969-.140625-.835937-.277344-1.261719-.402344-.238281-.070313-.480468-.136719-.722656-.203125-.402344-.113281-.8125-.21875-1.222656-.320312-.253906-.058594-.511719-.121094-.765625-.175782-.410157-.089844-.816407-.167968-1.230469-.246094-.261719-.046874-.523438-.097656-.785156-.140624-.421875-.066407-.84375-.125-1.269532-.179688-.257812-.035156-.511718-.070312-.769531-.097656-.464843-.050782-.929687-.085938-1.398437-.121094-.222656-.015625-.445313-.039062-.667969-.050781-.6875-.035157-1.378906-.058594-2.074219-.058594-.003906 0-.007812 0-.015625 0h-5.460937v20.734375c0 15.707031-12.734375 28.4375-28.4375 28.4375-15.707032 0-28.4375-12.730469-28.4375-28.4375v-20.734375h-5.464844c-.007812 0-.015625 0-.023438 0-.691406 0-1.378906.023437-2.066406.058594-.226562.011719-.449218.035156-.675781.050781-.464844.035156-.929687.070312-1.390625.121094-.257812.027344-.515625.0625-.773438.097656-.421874.054688-.84375.109375-1.265624.179688-.265626.042968-.527344.09375-.792969.140624-.40625.078126-.816407.15625-1.21875.246094-.261719.054688-.519531.117188-.773438.175782-.410156.101562-.816406.207031-1.21875.316406-.246093.070312-.488281.136718-.726562.207031-.421875.128906-.839844.261719-1.257813.402344-.210937.074219-.429687.140625-.640625.21875-.460937.164062-.917969.339843-1.367187.519531-.164063.066406-.328125.125-.488282.191406-.609374.253906-1.210937.523438-1.804687.808594v55.511719c0 12.109375 9.816406 21.925781 21.925781 21.925781h56.917969c12.109375 0 21.921875-9.816406 21.921875-21.925781zm0 0" fill="#83e1e5"></path><path d="m285.949219 101.003906c-.160157-5.558594-1.433594-11.15625-3.925781-16.445312l-37.4375-79.4375-37.4375 79.4375c-2.492188 5.289062-3.765626 10.886718-3.925782 16.445312-15.871094-5.703125-43.773437-15.730468-43.773437-15.730468l20.640625 57.441406c4.617187 12.847656 17.628906 20.679687 31.144531 18.746094 10.84375-1.550782 19.6875-9.078126 23.136719-19.160157 6.699218 1.703125 13.730468 1.703125 20.429687 0 3.449219 10.082031 12.296875 17.609375 23.136719 19.160157 13.515625 1.933593 26.527344-5.898438 31.144531-18.746094l20.644531-57.441406s-27.902343 10.027343-43.777343 15.730468zm0 0" fill="#fddf7f"></path><path d="m269.410156 135.3125c11.039063-8.273438 16.914063-21.195312 16.539063-34.308594-4.957031 1.78125-13.664063 4.910156-13.664063 4.910156-12.851562 4.617188-20.679687 17.628907-18.746094 31.144532.257813 1.808594.6875 3.5625 1.261719 5.242187 5.171875-1.3125 10.144531-3.640625 14.609375-6.988281zm0 0" fill="#83e1e5"></path><path d="m235.636719 137.058594c1.933593-13.515625-5.898438-26.527344-18.746094-31.144532 0 0-8.710937-3.128906-13.667969-4.910156-.371094 13.113282 5.503906 26.035156 16.539063 34.308594 4.464843 3.347656 9.4375 5.675781 14.609375 6.988281.574218-1.679687 1.007812-3.433593 1.265625-5.242187zm0 0" fill="#83e1e5"></path><path d="m101.003906 187.363281c-5.558594.160157-11.152344 1.433594-16.445312 3.925781l-79.4375 37.4375 79.4375 37.4375c5.292968 2.492188 10.886718 3.765626 16.445312 3.925782-5.703125 15.871094-15.730468 43.773437-15.730468 43.773437l57.441406-20.640625c12.847656-4.617187 20.679687-17.628906 18.746094-31.144531-1.550782-10.84375-9.074219-19.6875-19.160157-23.136719 1.707031-6.699218 1.707031-13.730468 0-20.429687 10.085938-3.449219 17.609375-12.296875 19.160157-23.136719 1.933593-13.515625-5.898438-26.527344-18.746094-31.144531l-57.441406-20.644531s10.027343 27.902343 15.730468 43.777343zm0 0" fill="#fddf7f"></path><path d="m135.3125 203.902344c-8.273438-11.039063-21.195312-16.914063-34.308594-16.539063 1.78125 4.957031 4.910156 13.664063 4.910156 13.664063 4.617188 12.847656 17.628907 20.679687 31.144532 18.746094 1.808594-.257813 3.5625-.6875 5.242187-1.261719-1.3125-5.171875-3.640625-10.144531-6.988281-14.609375zm0 0" fill="#83e1e5"></path><path d="m137.058594 237.675781c-13.515625-1.933593-26.527344 5.898438-31.144532 18.746094 0 0-3.128906 8.710937-4.910156 13.667969 13.113282.371094 26.035156-5.503906 34.308594-16.539063 3.347656-4.464843 5.675781-9.4375 6.988281-14.609375-1.679687-.574218-3.433593-1.007812-5.242187-1.265625zm0 0" fill="#83e1e5"></path><path d="m388.167969 187.363281c5.558593.160157 11.15625 1.433594 16.445312 3.925781l79.4375 37.4375-79.4375 37.4375c-5.289062 2.492188-10.886719 3.765626-16.445312 3.925782 5.703125 15.871094 15.730469 43.773437 15.730469 43.773437l-57.441407-20.640625c-12.847656-4.617187-20.679687-17.628906-18.746093-31.144531 1.550781-10.84375 9.078124-19.6875 19.160156-23.136719-1.703125-6.699218-1.703125-13.730468 0-20.429687-10.082032-3.449219-17.609375-12.296875-19.160156-23.136719-1.933594-13.515625 5.898437-26.527344 18.746093-31.144531l57.441407-20.644531c.003906 0-10.027344 27.902343-15.730469 43.777343zm0 0" fill="#fddf7f"></path><path d="m353.859375 203.902344c8.273437-11.039063 21.195313-16.914063 34.308594-16.539063-1.78125 4.957031-4.910157 13.664063-4.910157 13.664063-4.617187 12.847656-17.628906 20.679687-31.144531 18.746094-1.808593-.257813-3.558593-.6875-5.242187-1.261719 1.316406-5.171875 3.640625-10.144531 6.988281-14.609375zm0 0" fill="#83e1e5"></path><path d="m352.113281 237.675781c13.515625-1.933593 26.527344 5.898438 31.144531 18.746094 0 0 3.128907 8.710937 4.910157 13.667969-13.113281.371094-26.035157-5.503906-34.308594-16.539063-3.347656-4.464843-5.671875-9.4375-6.988281-14.609375 1.683594-.574218 3.433594-1.007812 5.242187-1.265625zm0 0" fill="#83e1e5"></path><path d="m175.273438 144.445312c4.867187 13.546876 17.835937 22.421876 31.925781 22.421876 1.578125 0 3.167969-.109376 4.761719-.339844 11.148437-1.59375 20.605468-8.695313 25.496093-18.425782 2.363281.359376 4.746094.542969 7.128907.542969 2.382812 0 4.765624-.183593 7.128906-.542969 4.894531 9.730469 14.347656 16.832032 25.5 18.425782 1.59375.230468 3.179687.339844 4.757812.339844 14.089844 0 27.058594-8.875 31.925782-22.421876l20.644531-57.441406c.671875-1.863281.203125-3.949218-1.199219-5.351562-1.398438-1.402344-3.484375-1.867188-5.351562-1.199219l-37.648438 13.53125c-.699219-3.949219-1.921875-7.851563-3.691406-11.609375l-37.4375-79.4375c-.84375-1.792969-2.644532-2.9375-4.628906-2.9375-1.980469 0-3.785157 1.144531-4.628907 2.9375l-37.441406 79.4375c-1.769531 3.757812-2.988281 7.660156-3.6875 11.609375l-37.648437-13.53125c-1.867188-.667969-3.949219-.203125-5.351563 1.199219s-1.871094 3.484375-1.199219 5.351562zm55.359374-8.789062c-2.734374-1.132812-5.359374-2.609375-7.800781-4.4375-7.554687-5.664062-12.351562-13.890625-13.917969-22.726562l6.242188 2.242187c10.296875 3.699219 16.703125 14.105469 15.476562 24.921875zm43.382813-24.921875 6.242187-2.242187c-1.566406 8.835937-6.363281 17.0625-13.917968 22.726562-2.4375 1.828125-5.0625 3.304688-7.800782 4.4375-1.226562-10.816406 5.183594-21.222656 15.476563-24.921875zm30.25 30.25c-3.777344 10.511719-14.550781 16.988281-25.601563 15.410156-7.074218-1.015625-13.167968-5.199219-16.785156-11.054687 3.726563-1.480469 7.300782-3.449219 10.601563-5.925782 11.28125-8.457031 17.765625-21.363281 18.5-34.777343l30.25-10.871094zm-92.484375-54.242187 32.804688-69.613282 32.804687 69.613282c1.636719 3.472656 2.667969 7.105468 3.136719 10.769531l-9.976563 3.585937c-15.0625 5.414063-24.347656 20.84375-22.082031 36.6875.019531.132813.054688.261719.074219.394532-2.628907.285156-5.28125.285156-7.914063 0 .023438-.132813.054688-.261719.074219-.394532 2.269531-15.847656-7.019531-31.273437-22.082031-36.6875l-9.976563-3.585937c.46875-3.664063 1.5-7.296875 3.136719-10.769531zm-13.585938 17.894531c.730469 13.414062 7.21875 26.320312 18.496094 34.777343 3.304688 2.476563 6.875 4.445313 10.601563 5.925782-3.617188 5.855468-9.710938 10.039062-16.78125 11.054687-11.054688 1.574219-21.828125-4.898437-25.601563-15.414062l-16.96875-47.214844zm-104.207031 169.839843-13.535156 37.65625c-.667969 1.867188-.203125 3.949219 1.199219 5.351563.976562.976563 2.285156 1.5 3.621094 1.5.578124 0 1.164062-.097656 1.730468-.300781l57.441406-20.644532c15.0625-5.410156 24.351563-20.839843 22.082032-36.683593-1.59375-11.152344-8.695313-20.605469-18.425782-25.5.722657-4.722657.722657-9.535157 0-14.257813 9.730469-4.894531 16.832032-14.347656 18.425782-25.496094 2.269531-15.847656-7.019532-31.277343-22.082032-36.6875l-57.441406-20.644531c-1.867187-.667969-3.949218-.203125-5.351562 1.199219s-1.871094 3.484375-1.199219 5.351562l13.53125 37.648438c-3.949219.699219-7.851563 1.921875-11.609375 3.691406l-79.4375 37.4375c-1.792969.84375-2.9375 2.648438-2.9375 4.628906 0 1.984376 1.144531 3.785157 2.9375 4.632813l79.4375 37.433594c3.757812 1.769531 7.664062 2.980469 11.613281 3.683593zm62.40625-11.671874c1.578125 11.054687-4.902343 21.820312-15.414062 25.597656l-47.214844 16.96875 10.871094-30.246094c13.410156-.730469 26.320312-7.222656 34.773437-18.503906 2.476563-3.304688 4.449219-6.875 5.929688-10.601563 5.855468 3.617188 10.039062 9.710938 11.054687 16.785157zm-47.902343 1.589843 2.242187-6.238281c3.394531-9.453125 12.445313-15.648438 22.277344-15.648438.875 0 1.761719.066407 2.644531.164063-1.132812 2.742187-2.609375 5.367187-4.4375 7.808594-5.664062 7.554687-13.890625 12.347656-22.726562 13.914062zm32.488281-95.347656c10.511719 3.777344 16.992187 14.546875 15.414062 25.601563-1.015625 7.074218-5.199219 13.167968-11.054687 16.785156-1.480469-3.726563-3.453125-7.296875-5.929688-10.605469-8.453125-11.277344-21.359375-17.761719-34.773437-18.496094l-10.871094-30.25zm-5.324219 45.726563c-10.816406 1.226562-21.222656-5.183594-24.921875-15.476563l-2.242187-6.238281c8.835937 1.566406 17.0625 6.359375 22.726562 13.914062 1.828125 2.4375 3.304688 5.0625 4.4375 7.800782zm-48.914062-18.855469c3.472656-1.632813 7.105468-2.664063 10.769531-3.132813l3.585937 9.972656c4.867188 13.550782 17.835938 22.425782 31.925782 22.425782 1.574218 0 3.167968-.113282 4.761718-.34375.132813-.015625.261719-.050782.394532-.070313.285156 2.628907.285156 5.28125 0 7.910157-.132813-.019532-.261719-.054688-.394532-.074219-15.847656-2.273438-31.277344 7.023437-36.6875 22.082031l-3.585937 9.976562c-3.664063-.46875-7.296875-1.5-10.773438-3.136718l-69.609375-32.804688zm399.492187 28.175781-79.4375-37.4375c-3.757813-1.769531-7.660156-2.988281-11.609375-3.691406l13.53125-37.644532c.671875-1.867187.203125-3.953124-1.199219-5.355468-1.402343-1.398438-3.484375-1.867188-5.351562-1.195313l-57.441407 20.640625c-15.0625 5.414063-24.351562 20.84375-22.082031 36.6875 1.59375 11.152344 8.695313 20.605469 18.425781 25.5-.722656 4.71875-.722656 9.535156 0 14.257813-9.730468 4.894531-16.832031 14.347656-18.425781 25.496093-2.269531 15.84375 7.019531 31.273438 22.082031 36.6875l57.441407 20.640626c.566406.203124 1.152343.304687 1.730469.304687 1.335937 0 2.644531-.523437 3.621093-1.5 1.402344-1.402344 1.867188-3.488281 1.199219-5.355469l-13.535156-37.65625c3.949218-.699218 7.855468-1.910156 11.613281-3.679687l79.4375-37.4375c1.792969-.84375 2.9375-2.648438 2.9375-4.628907 0-1.984374-1.144531-3.785156-2.9375-4.632812zm-153.453125-29.445312c-1.582031-11.054688 4.898438-21.824219 15.410156-25.601563l47.214844-16.964844-10.871094 30.25c-13.414062.734375-26.320312 7.21875-34.773437 18.5-2.476563 3.304688-4.449219 6.875-5.929688 10.601563-5.851562-3.617188-10.039062-9.710938-11.050781-16.785156zm47.902344-1.597657-2.242188 6.246094c-3.703125 10.292969-14.109375 16.699219-24.921875 15.476563 1.132813-2.738282 2.605469-5.363282 4.4375-7.800782 5.664063-7.558594 13.890625-12.355468 22.726563-13.921875zm-32.492188 95.351563c-10.511718-3.777344-16.992187-14.542969-15.410156-25.597656 1.011719-7.074219 5.199219-13.167969 11.050781-16.785157 1.480469 3.726563 3.453125 7.296875 5.929688 10.601563 8.457031 11.28125 21.363281 17.769531 34.777343 18.503906l10.867188 30.246094zm5.324219-45.730469c.886719-.101563 1.769531-.164063 2.644531-.164063 9.832032 0 18.882813 6.195313 22.28125 15.648438l2.242188 6.238281c-8.839844-1.566406-17.066406-6.359375-22.726563-13.914062-1.832031-2.441407-3.308593-5.070313-4.441406-7.808594zm48.917969 18.859375c-3.472656 1.636719-7.109375 2.667969-10.773438 3.136719l-3.582031-9.976563c-5.414063-15.0625-20.84375-24.351562-36.6875-22.082031-.132813.019531-.261719.050781-.394531.070313-.285156-2.628907-.285156-5.28125 0-7.910157.132812.019531.257812.054688.394531.074219 1.59375.226562 3.183594.339844 4.761719.339844 14.085937 0 27.054687-8.878906 31.925781-22.421875l3.582031-9.972657c3.664063.46875 7.296875 1.496094 10.773438 3.128907l69.609375 32.808593zm-339.148438 191.589844v-6.121094h-6.117187c-2.828125 0-5.121094-2.289062-5.121094-5.117188 0-2.828124 2.292969-5.121093 5.121094-5.121093h6.117187v-6.117188c0-2.828125 2.292969-5.121093 5.121094-5.121093s5.117188 2.292968 5.117188 5.121093v6.117188h6.121093c2.828125 0 5.117188 2.292969 5.117188 5.121093 0 2.828126-2.289063 5.117188-5.117188 5.117188h-6.121093v6.121094c0 2.828125-2.289063 5.117187-5.117188 5.117187s-5.121094-2.289062-5.121094-5.117187zm362.601563-22.476563v6.117188h6.121093c2.828126 0 5.117188 2.292969 5.117188 5.121093 0 2.828126-2.289062 5.121094-5.117188 5.121094h-6.121093v6.117188c0 2.828125-2.289063 5.121094-5.117188 5.121094s-5.121093-2.292969-5.121093-5.121094v-6.117188h-6.117188c-2.832031 0-5.121094-2.292968-5.121094-5.121094 0-2.828124 2.289063-5.121093 5.121094-5.121093h6.117188v-6.117188c0-2.828125 2.292968-5.121093 5.121093-5.121093s5.117188 2.292968 5.117188 5.121093zm-386.914063 76.234375c0 2.828125-2.292968 5.121094-5.121094 5.121094h-7.265624c-2.828126 0-5.121094-2.292969-5.121094-5.121094s2.292968-5.117187 5.121094-5.117187h7.265624c2.828126 0 5.121094 2.289062 5.121094 5.117187zm398.183594-5.117187h-70.355469c5.761719-5.992188 9.3125-14.117188 9.3125-23.0625v-4.046875c0-18.363282-14.941406-33.300782-33.300781-33.300782h-196.449219c-18.363281 0-33.304687 14.9375-33.304687 33.300782v4.046875c0 8.945312 3.554687 17.070312 9.3125 23.0625h-70.351563c-2.828125 0-5.121093 2.289062-5.121093 5.117187s2.292968 5.121094 5.121093 5.121094h385.136719c2.828125 0 5.121094-2.292969 5.121094-5.121094s-2.296875-5.117187-5.121094-5.117187zm-290.792969 0c-12.71875 0-23.0625-10.347657-23.0625-23.0625v-4.046875c0-12.714844 10.34375-23.0625 23.0625-23.0625h129.398438v19.964844h-62.351563v-8.710938c0-2.828125-2.292968-5.121094-5.121094-5.121094-2.828124 0-5.117187 2.292969-5.117187 5.121094v38.917969zm194.507813 0h-127.460938v-19.964844h62.351563v8.265625c0 2.828125 2.292969 5.117188 5.121093 5.117188 2.828126 0 5.121094-2.289063 5.121094-5.117188v-38.46875h56.808594c12.714844 0 23.0625 10.34375 23.0625 23.058594v4.046875c0 12.714843-10.347656 23.0625-23.0625 23.0625zm126.835937 5.117187c0 2.828125-2.289062 5.121094-5.117187 5.121094h-7.269532c-2.828124 0-5.121093-2.292969-5.121093-5.121094s2.292969-5.117187 5.121093-5.117187h7.269532c2.824218 0 5.117187 2.289062 5.117187 5.117187zm-170.371093-214.234375c-.050782-.023437-.101563-.050781-.152344-.078125-.671875-.320312-1.359375-.625-2.042969-.910156-.136719-.058594-.273437-.109375-.40625-.164062l-.136719-.050782c-.519531-.210937-1.042968-.410156-1.570312-.601562-.171875-.058594-.34375-.117188-.515625-.175782l-.210938-.070312c-.46875-.15625-.941406-.308594-1.429687-.453125-.273438-.082031-.550782-.160156-.816406-.234375-.460938-.128906-.921876-.246094-1.375-.355469-.292969-.074219-.589844-.144531-.886719-.207031-.460938-.101562-.925781-.191406-1.402344-.28125-.292969-.054688-.585937-.105469-.890625-.15625-.472656-.078125-.949219-.144531-1.429688-.203125l-.210937-.027344c-.21875-.03125-.441406-.058593-.664063-.082031-.519531-.058594-1.046874-.097656-1.582031-.136719l-.210937-.019531c-.175782-.011719-.351563-.027344-.546875-.039062-.675781-.035157-1.363281-.050782-2.0625-.058594 17.019531-11.175782 28.285156-30.417969 28.285156-52.257813 0-34.457031-28.03125-62.488281-62.488281-62.488281-34.457032 0-62.488282 28.03125-62.488282 62.488281 0 21.835938 11.265626 41.082031 28.28125 52.257813-.691406.007812-1.378906.023437-2.078124.058594-.175782.011718-.351563.023437-.527344.039062l-.226563.019531c-.527343.039063-1.050781.078125-1.566406.132813-.238281.027344-.476563.058594-.714844.089844l-.160156.023437c-.480469.0625-.957031.128906-1.433594.203125-.308593.050781-.617187.109375-.894531.160156-.464844.085938-.929688.179688-1.398438.28125-.296874.0625-.585937.132813-.878906.203125-.460937.109375-.921875.230469-1.375.355469-.277344.078125-.554687.152344-.832031.234375-.480469.144531-.953125.296875-1.414063.453125l-.167968.054688c-.191406.066406-.386719.128906-.574219.195312-.523437.1875-1.035156.386719-1.558594.597656l-.539062.210938c-.691407.289062-1.375.59375-2.046875.914062-.042969.019532-.089844.046875-.136719.070313-14.871094 7.191406-24.472656 22.488281-24.472656 39v25.199219c0 1.460937-1.191407 2.652343-2.65625 2.652343h-33.199219c.488281-1.472656.761719-3.039062.761719-4.671875 0-8.222656-6.691407-14.910156-14.914063-14.910156s-14.910156 6.6875-14.910156 14.910156c0 1.632813.273438 3.199219.761719 4.671875h-5.558594c-8.160156 0-14.976563 6.21875-15.519531 14.15625-.289063 4.242188 1.136718 8.292969 4.015625 11.398438 2.84375 3.066406 6.871093 4.84375 11.070312 4.875l33.445313.121093c4.578125.015626 9.109375.457032 13.5625 1.304688.042968.011719.089844.023438.136718.03125 4.335938.835938 8.601563 2.0625 12.761719 3.679688l31.941407 12.421874v21.46875c0 2.828126 2.292968 5.121094 5.121093 5.121094s5.121094-2.292968 5.121094-5.121094v-55.078124c4.617187 3.671874 10.457031 5.878906 16.804687 5.878906h56.917969c6.347657 0 12.1875-2.207032 16.804688-5.878906v55.078124c0 2.828126 2.292969 5.121094 5.121093 5.121094 2.828126 0 5.121094-2.292968 5.121094-5.121094v-21.46875l31.941406-12.421874c4.160157-1.617188 8.425782-2.84375 12.761719-3.679688.046875-.007812.09375-.019531.140625-.03125 4.449219-.847656 8.980469-1.285156 13.558594-1.304688l33.46875-.117187c4.179688-.03125 8.203125-1.808594 11.042969-4.875 2.882812-3.109375 4.3125-7.15625 4.019531-11.402344-.542969-7.9375-7.359375-14.15625-15.519531-14.15625h-5.558594c.488281-1.46875.761719-3.039062.761719-4.671875 0-8.222656-6.6875-14.910156-14.910156-14.910156-8.222657 0-14.910157 6.6875-14.910157 14.910156 0 1.632813.273438 3.199219.757813 4.671875h-33.199219c-1.464844 0-2.65625-1.191406-2.65625-2.652343v-25.199219c-.007813-16.503907-9.601563-31.796875-24.460937-38.992188zm-179.960938 57.5c2.578125 0 4.671875 2.097657 4.671875 4.671875 0 2.578125-2.09375 4.671875-4.671875 4.671875s-4.671875-2.09375-4.671875-4.671875c0-2.574218 2.09375-4.671875 4.671875-4.671875zm254.421875 0c2.578125 0 4.671875 2.097657 4.671875 4.671875 0 2.578125-2.09375 4.671875-4.671875 4.671875s-4.671875-2.09375-4.671875-4.671875c0-2.574218 2.097656-4.671875 4.671875-4.671875zm-179.457031-114.0625c0-28.808593 23.4375-52.246093 52.246094-52.246093 28.808593 0 52.25 23.4375 52.25 52.246093 0 28.808594-23.441407 52.25-52.25 52.25-28.808594 0-52.246094-23.4375-52.246094-52.25zm52.246094 62.488281c8.242187 0 16.105468-1.617187 23.316406-4.527343v20.144531c0 12.855469-10.457032 23.316406-23.316406 23.316406-2.8125 0-5.507813-.5-8.007813-1.417968-8.925781-3.273438-15.308594-11.855469-15.308594-21.898438v-20.144531c7.210938 2.910156 15.074219 4.527343 23.316407 4.527343zm-147.296876 81.109376c-1.386718-.011719-2.671874-.578126-3.613281-1.59375-.945312-1.015626-1.410156-2.347657-1.3125-3.742188.171875-2.542969 2.550781-4.617188 5.304688-4.617188h42.554687v10.664063c-3.144531-.367187-6.3125-.578125-9.507812-.589844zm63.5625 5.832031c-3.40625-1.324219-6.871093-2.40625-10.386718-3.273438v-12.507812h14.261718c7.109376 0 12.894532-5.785157 12.894532-12.894531v-25.199219c0-9.667969 4.328125-18.785157 11.460937-24.988281v89.839843zm112.195313-16.007813h-23.339844v-8.261718c0-2.828126-2.292969-5.117188-5.121093-5.117188-2.828126 0-5.121094 2.289062-5.121094 5.117188v8.261718h-23.339844c-9.265625 0-16.804688-7.539062-16.804688-16.804687v-52.109375c.089844-.035156.175782-.070313.269532-.105469l.550781-.183594c.359375-.121093.71875-.238281 1.085937-.347656.203126-.0625.414063-.121094.628907-.179687.347656-.097657.699219-.1875 1.054687-.273438.222656-.054688.445313-.105469.65625-.152344.351563-.074218.703125-.144531 1.085938-.214844.21875-.042968.441406-.082031.660156-.121093.363281-.058594.726562-.105469 1.113281-.15625l.207031-.027344c.152344-.019531.296876-.039063.453126-.058594.398437-.042969.804687-.070312 1.199218-.101562l.589844-.046875c.59375-.03125 1.195312-.050782 1.8125-.050782h.339844v15.613282c0 13.878906 8.46875 25.816406 20.507812 30.917968 4.015625 1.699219 8.425782 2.640626 13.050782 2.640626 18.503906 0 33.558593-15.054688 33.558593-33.558594v-15.613282h.351563c.605468 0 1.207031.019532 1.785156.050782l.59375.042968c.40625.03125.8125.0625 1.214844.105469.140625.015625.277344.035157.414062.050781l.253906.035157c.371094.046875.742188.097656 1.101563.15625.21875.035156.433594.074219.679687.121093.355469.066407.710938.136719 1.070313.214844.214844.046875.429687.097656.65625.152344.355469.085938.710937.175781 1.074219.277344.203125.058594.410156.113281.605468.171875.367188.109375.738282.230469 1.082032.347656l.566406.191406c.085938.03125.171875.066407.257812.097657v52.109374c0 9.269532-7.539062 16.808594-16.804687 16.808594zm123.761719 4.839844c.097656 1.394531-.367188 2.726562-1.3125 3.742188-.941406 1.015624-2.226563 1.582031-3.589844 1.59375l-33.449219.121093c-3.195312.011719-6.363281.222657-9.507812.589844v-10.664063h42.554687c2.753906 0 5.132813 2.074219 5.304688 4.617188zm-72.363282-4.617188h14.261719v12.511719c-3.511719.863281-6.980469 1.945313-10.386719 3.269531l-28.230468 10.980469v-89.84375c7.136718 6.207031 11.460937 15.320313 11.460937 24.992188v25.199219c0 7.109374 5.785157 12.890624 12.894531 12.890624zm-79.859374 47.273438c2.828124 0 5.121093 2.292969 5.121093 5.121094v3.421875c0 2.828125-2.292969 5.121093-5.121093 5.121093-2.828126 0-5.121094-2.292968-5.121094-5.121093v-3.421875c0-2.828125 2.292968-5.121094 5.121094-5.121094zm0 0" fill="#1c1d21"></path></svg>