<!-- icon666.com - MILLIONS OF FREE VECTOR ICONS --><svg id="Layer_1" enable-background="new 0 0 512 512" viewBox="0 0 512 512" xmlns="http://www.w3.org/2000/svg"><path d="m439.193 305.13c23.617-21.057 34.886-49.01 64.83-49.01-29.927 0-41.22-28.069-64.86-49.15l-49.01-85.04c-6.42-30.99-25-54.75-10.03-80.65-14.99 25.93-44.89 21.66-74.99 31.6l-98.15-.07c-30.05-9.93-59.91-5.72-74.86-31.64 14.96 25.95-3.69 49.71-10.12 80.74l-49.15 84.96c-23.617 21.057-34.886 49.01-64.83 49.01 29.927 0 41.22 28.069 64.86 49.15l49.01 85.04c6.42 30.99 25 54.75 10.03 80.65 14.99-25.93 44.89-21.66 74.99-31.6l98.15.07c30.05 9.93 59.91 5.72 74.86 31.64-14.96-25.95 3.69-49.71 10.12-80.74z" fill="#f6a1ff"></path><path d="m412.054 297.851c20.118-17.937 29.718-41.748 55.225-41.748-25.493 0-35.113-23.91-55.25-41.868l-41.749-72.44c-5.469-26.398-21.296-46.638-8.544-68.701-12.769 22.088-38.239 18.451-63.879 26.918l-83.608-.06c-25.597-8.459-51.033-4.872-63.768-26.952 12.743 22.105-3.143 42.345-8.621 68.777l-41.868 72.372c-20.118 17.937-29.718 41.749-55.225 41.749 25.493 0 35.113 23.91 55.25 41.868l41.749 72.44c5.469 26.398 21.296 46.638 8.544 68.701 12.769-22.088 38.239-18.451 63.879-26.918l83.608.06c25.598 8.459 51.034 4.872 63.768 26.952-12.743-22.105 3.143-42.345 8.621-68.777z" fill="#f6bbff"></path><path d="m184.103 380.56c2.694 75.466 71.92 76.372 71.92 123.44 0-47.035 69.231-48.022 71.92-123.44 66.658 35.404 102.096-24.095 142.85-.56-40.739-23.531-6.957-83.981-70.95-124 63.997-40.008 30.206-100.462 70.95-124-40.735 23.529-76.168-35.959-142.85-.56-2.694-75.466-71.92-76.372-71.92-123.44 0 47.035-69.231 48.022-71.92 123.44-66.658-35.404-102.095 24.095-142.85.56 40.739 23.531 6.957 83.981 70.95 124-63.997 40.008-30.206 100.462-70.95 124 40.735-23.529 76.168 35.959 142.85.56z" fill="#c172b2"></path><path d="m198.023 356.452c2.173 60.86 58 61.59 58 99.548 0-37.931 55.832-38.727 58-99.548 53.756 28.552 82.335-19.431 115.202-.452-32.854-18.977-5.611-67.726-57.218-100 51.61-32.265 24.36-81.018 57.218-100-32.85 18.975-61.426-28.999-115.202-.452-2.173-60.86-58-61.59-58-99.548 0 37.931-55.832 38.727-58 99.548-53.756-28.551-82.335 19.432-115.201.452 32.854 18.977 5.611 67.726 57.218 100-51.61 32.265-24.36 81.018-57.218 100 32.85-18.975 61.425 28.999 115.201.452z" fill="#d690cc"></path><path d="m444.801 328.053c-4.34.83-7.185 5.021-6.354 9.36.182.949.364 1.89.555 2.829.65 3.764 3.933 6.623 7.883 6.623 4.418 0 8-3.587 8-8.005 0-1.073-.128-1.351-.723-4.453-.832-4.34-5.02-7.188-9.361-6.354z"></path><path d="m503.993 264.12c10.466 0 10.779-16 .011-16-24.043-.033-34.274-22.854-55.73-43.588 8.243-28.71 5.679-53.563 26.521-65.605 3.825-2.21 5.136-7.103 2.925-10.929-2.208-3.825-7.101-5.134-10.928-2.926 0 0 0 0-.001.001-20.642 12.041-41.236-2.63-69.968-9.809-7.038-28.237-21.898-49.774-9.774-69.98v-.001c2.212-3.825.903-8.718-2.922-10.929-3.829-2.214-8.718-.901-10.93 2.922 0 0 0 0-.001.001-12.613 21.021-36.381 18.121-65.619 26.494-20.722-21.47-43.554-31.709-43.554-55.771 0-4.418-3.582-8-8-8s-8 3.582-8 8c0 24.035-22.771 34.275-43.479 55.701-28.64-8.213-53.483-5.709-65.491-26.528-2.207-3.826-7.099-5.141-10.926-2.934s-5.142 7.099-2.935 10.926c0 .001 0 .001.001.002.001.003.002.004.003.006 12.01 20.844-2.64 41.119-9.861 70.067-28.957 7.211-49.225 21.849-70.049 9.851-4.284-2.337-8.9-.66-10.961 2.908-2.21 3.826-.899 8.719 2.927 10.929 20.801 12.014 18.294 36.863 26.493 65.5-21.461 20.731-31.681 43.452-55.691 43.452-4.496 0-8.012 3.617-8.016 7.995-.003 4.248 3.325 7.759 7.582 7.983 26.382 1.463 32.896 21.136 56.153 43.61-8.231 28.669-5.692 53.571-26.521 65.605-3.825 2.21-5.136 7.103-2.925 10.929 2.209 3.825 7.103 5.136 10.928 2.926 0 0 0 0 .001-.001 20.671-12.058 41.239 2.631 69.968 9.809 7.054 28.299 21.898 49.774 9.774 69.98v.001c-2.212 3.825-.903 8.718 2.922 10.929 3.824 2.211 8.718.903 10.93-2.922 0 0 0 0 .001-.001 12.613-21.021 36.381-18.121 65.619-26.494 20.722 21.47 43.554 31.709 43.554 55.771 0 4.418 3.582 8 8 8s8-3.582 8-8c0-24.035 22.771-34.275 43.479-55.701 28.64 8.213 53.483 5.709 65.491 26.528 2.201 3.816 7.09 5.145 10.926 2.934 3.827-2.207 5.142-7.099 2.935-10.926 0-.001 0-.001-.001-.002-.001-.003-.002-.004-.003-.006-12.01-20.844 2.64-41.119 9.861-70.067 27.991-6.97 50.252-22.035 70.079-9.833.001 0 .001 0 .002.001 3.828 2.209 8.719.898 10.928-2.926 2.21-3.825.901-8.718-2.924-10.929-4.475-2.585-7.996-5.768-10.767-9.729-4.054-5.791-13.024-3.817-14.397 3.004-35.862.154-66.315 34.567-117.936 7.146-5.212-2.769-11.537.882-11.748 6.78-2.035 57.168-44.983 66.989-63.926 96.547-18.881-29.462-61.886-39.401-63.924-96.547-.212-5.911-6.546-9.542-11.746-6.781-50.536 26.828-80.53-5.458-115.567-7.083 16.111-31.156 3.185-73.323 51.658-103.627 5.019-3.137 4.996-10.441.002-13.566-48.514-30.339-35.531-72.431-51.658-103.625 35.024-1.624 65.087-33.9 115.563-7.086 5.195 2.758 11.536-.861 11.748-6.78 2.032-57.078 45.073-67.129 63.926-96.547 18.901 29.493 61.887 39.416 63.924 96.547.212 5.912 6.545 9.541 11.746 6.781 50.533-26.828 80.532 5.458 115.567 7.083-16.111 31.156-3.185 73.323-51.658 103.627-5.019 3.137-4.996 10.441-.002 13.566 17.279 10.806 29.723 24.586 36.35 45.971 2.345 7.588 13.179 7.456 15.339-.201 21.998-20.813 32.273-44.433 56.702-44.433zm-169.039 128.587c14.681 6.049 29.157 8.333 44.334 7.027-5.027 16.605-12.196 31.597-12.942 47.551-14.161-7.332-30.628-8.628-47.537-12.583 8.755-12.509 14.035-26.217 16.145-41.995zm-157.861-.003c2.105 15.746 7.367 29.429 16.088 41.921-16.917 3.949-33.472 5.236-47.658 12.564-.732-15.919-7.866-30.907-12.874-47.464 15.217 1.324 29.728-.959 44.444-7.021zm-78.92-136.705c-12.586 9.691-21.806 21.088-28.264 34.891-11.836-12.632-21.259-26.363-34.713-34.991 13.435-8.598 22.789-22.209 34.671-34.879 6.457 13.838 15.69 25.264 28.306 34.979zm78.92-136.706c-14.682-6.049-29.158-8.334-44.334-7.027 5.02-16.581 12.196-31.597 12.942-47.551 14.161 7.332 30.628 8.628 47.537 12.583-8.755 12.509-14.035 26.217-16.145 41.995zm157.861.003c-2.105-15.746-7.367-29.429-16.088-41.921 16.917-3.949 33.472-5.236 47.658-12.564.732 15.923 7.867 30.907 12.874 47.465-15.217-1.324-29.728.958-44.444 7.02zm107.226 171.684c-6.457-13.839-15.69-25.265-28.306-34.979 12.586-9.691 21.806-21.088 28.264-34.891 11.836 12.632 21.259 26.363 34.713 34.991-13.436 8.598-22.789 22.209-34.671 34.879z"></path><path d="m309.681 301.657c3.124-3.125 3.124-8.189 0-11.314-3.125-3.123-8.189-3.123-11.314 0l-3.66 3.66c-18.267 18.268-5.484 49.997 20.709 49.997h7.451c11.164 0 21.201-6.203 26.195-16.19 12.603-25.207 13.814-53.442 1.097-83.136-10.982-25.627-46.362-27.849-60.602-4.113-8.674 14.458-24.536 23.439-41.398 23.439h-6.911c13.423-9.046 19.128-26.657 12.985-42.015-5.34-13.355-18.087-21.985-32.471-21.985h-53.738c-4.418 0-8 3.582-8 8s3.582 8 8 8h53.738c19.984 0 26.293 27.041 8.484 35.944l-25.801 12.9c-7.524 3.762-4.831 15.155 3.578 15.155h15.047c10.532 0 19.433 7.54 21.164 17.929 1.646 9.87-3.904 19.732-13.195 23.449-9.684 3.872-20.349 3.874-30.03 0-22.281-8.913-29.833-25.007-38.696-39.78-2.272-3.788-7.186-5.016-10.977-2.744-3.788 2.273-5.017 7.188-2.744 10.977 9.734 16.224 19.192 35.489 46.475 46.403 13.513 5.406 28.399 5.406 41.915 0 22.038-8.816 30.829-36.456 16.648-56.479 20.364-1.766 39.042-13.286 49.648-30.963 7.571-12.622 26.349-11.405 32.175 2.185 10.849 25.33 9.805 48.664-.701 69.678-2.266 4.531-6.819 7.346-11.885 7.346-7.546 0-13.925.954-18.507-5.917-3.501-5.252-2.803-12.303 1.66-16.766z"></path><path d="m225.776 163.002c-2.76 3.45-2.2 8.485 1.249 11.245l30.739 24.591c20.219 16.174 50.406 10.302 62.885-12.735l5.266-9.721c2.104-3.885.661-8.74-3.224-10.845-3.885-2.106-8.74-.662-10.845 3.224l-5.266 9.721c-7.704 14.223-26.342 17.848-38.821 7.862l-30.738-24.591c-3.45-2.759-8.484-2.2-11.245 1.249z"></path><path d="m280.023 168c4.418 0 8-3.582 8-8s-3.582-8-8-8h-8c-4.418 0-8 3.582-8 8s3.582 8 8 8z"></path></svg>