<!-- icon666.com - MILLIONS OF FREE VECTOR ICONS --><svg id="Capa_1" enable-background="new 0 0 511.976 511.976" viewBox="0 0 511.976 511.976" xmlns="http://www.w3.org/2000/svg"><g><g><path d="m502.561 252.505c-8.889-5.761-15.229-13.731-19.738-22.469-6.008-11.644-16.025-19.654-27.413-23.477-3.137-1.053-4.188-4.973-1.998-7.454 7.956-9.013 12.633-20.965 12.027-34.062-.453-9.797 1.057-19.842 5.862-29.251 1.384-2.709-.485-5.948-3.523-6.104-10.579-.545-20.055-4.277-28.328-9.59-11.025-7.08-23.705-9.008-35.479-6.625-3.243.656-6.114-2.213-5.458-5.456 2.383-11.784.458-24.473-6.615-35.512-5.291-8.257-9.006-17.712-9.549-28.263-.156-3.038-3.394-4.909-6.104-3.525-9.434 4.818-19.507 6.323-29.327 5.859-13.085-.619-25.029 4.05-34.034 11.998-2.481 2.19-6.401 1.139-7.454-1.997-3.824-11.386-11.834-21.401-23.475-27.407-8.737-4.508-16.708-10.848-22.469-19.738-1.654-2.553-5.394-2.552-7.048.001-5.747 8.866-13.691 15.196-22.402 19.702-11.645 6.023-19.657 16.05-23.485 27.447-1.053 3.137-4.974 4.187-7.455 1.997-1.259-1.112-2.581-2.151-3.95-3.129l-19.916 4.725-73.891 70.667-36.775 124.7 28.428 117.06 39.884 33.989 62.302 49.944c1.358-.972 2.669-2.005 3.918-3.108 2.48-2.19 6.401-1.139 7.454 1.997 3.827 11.399 11.839 21.428 23.487 27.453 8.711 4.506 16.655 10.836 22.402 19.702 1.655 2.553 5.394 2.554 7.048.001 5.761-8.889 13.731-15.23 22.469-19.738 11.644-6.008 19.654-16.025 23.477-27.413 1.053-3.137 4.973-4.188 7.454-1.998 9.013 7.956 20.965 12.633 34.062 12.027 9.796-.453 19.842 1.057 29.251 5.862 2.709 1.383 5.948-.485 6.104-3.523.545-10.579 4.277-20.055 9.59-28.328 7.08-11.025 9.008-23.705 6.625-35.479-.656-3.243 2.213-6.114 5.457-5.458 11.783 2.383 24.473.458 35.512-6.615 8.258-5.291 17.712-9.006 28.264-9.549 3.038-.157 4.908-3.395 3.525-6.104-4.818-9.434-6.323-19.507-5.859-29.327.619-13.088-4.051-25.033-12.002-34.039-2.19-2.48-1.14-6.401 1.997-7.455 11.396-3.828 21.423-11.84 27.447-23.485 4.506-8.711 10.836-16.655 19.702-22.401 2.551-1.658 2.552-5.398-.001-7.052z" fill="#9df9d3"></path><g><path d="m187.415 439.465c-7.08-11.025-9.008-23.705-6.625-35.479.656-3.243-2.213-6.114-5.457-5.458-11.784 2.383-24.473.458-35.512-6.615-8.257-5.291-17.712-9.006-28.263-9.55-3.038-.156-4.909-3.394-3.525-6.103 4.818-9.434 6.324-19.507 5.859-29.327-.619-13.088 4.052-25.033 12.002-34.039 2.19-2.48 1.14-6.401-1.997-7.455-11.397-3.828-21.424-11.84-27.447-23.485-4.506-8.711-10.836-16.655-19.702-22.401-2.553-1.655-2.554-5.394-.001-7.049 8.89-5.761 15.229-13.731 19.738-22.469 6.008-11.644 16.025-19.654 27.414-23.477 3.137-1.053 4.188-4.973 1.998-7.454-7.956-9.013-12.633-20.965-12.027-34.062.453-9.797-1.057-19.842-5.862-29.251-1.383-2.709.485-5.948 3.523-6.105 10.579-.545 20.055-4.277 28.328-9.59 11.024-7.08 23.705-9.008 35.479-6.625 3.243.656 6.113-2.213 5.458-5.457-2.383-11.783-.458-24.473 6.615-35.512 3.342-5.216 6.053-10.911 7.735-17.057-8.423-6.016-18.831-9.405-30.088-8.873-9.821.464-19.894-1.041-29.327-5.859-2.709-1.383-5.947.487-6.103 3.525-.544 10.552-4.259 20.006-9.55 28.263-7.073 11.039-8.998 23.729-6.615 35.512.656 3.243-2.214 6.113-5.458 5.457-11.774-2.383-24.455-.455-35.479 6.625-8.272 5.313-17.749 9.045-28.328 9.59-3.038.156-4.907 3.396-3.523 6.105 4.805 9.409 6.315 19.455 5.862 29.251-.606 13.097 4.072 25.049 12.027 34.062 2.19 2.481 1.139 6.401-1.998 7.454-11.388 3.823-21.406 11.834-27.414 23.477-4.508 8.737-10.848 16.708-19.738 22.469-2.553 1.655-2.552 5.394.001 7.049 8.866 5.746 15.196 13.691 19.702 22.401 6.023 11.645 16.05 19.657 27.447 23.485 3.137 1.054 4.187 4.974 1.997 7.455-7.951 9.005-12.621 20.951-12.002 34.039.465 9.821-1.041 19.894-5.859 29.327-1.384 2.709.487 5.947 3.525 6.103 10.551.544 20.006 4.259 28.263 9.55 11.039 7.073 23.729 8.998 35.512 6.615 3.243-.656 6.113 2.214 5.457 5.458-2.383 11.774-.455 24.455 6.625 35.479 5.312 8.273 9.045 17.749 9.59 28.328.156 3.038 3.395 4.907 6.104 3.523 9.41-4.805 19.455-6.315 29.251-5.862 11.283.522 21.712-2.884 30.148-8.923-1.689-6.149-4.409-11.847-7.76-17.065z" fill="#00f4a8"></path></g><path d="m280.488 94.839h-24.5l-66.425 34.665-62.205 104.884 40.538 132.033s51 39.417 52 39.417 40.667 10.667 40.667 10.667l15.152 1.304c80.716-9.739 143.27-78.463 143.27-161.805-.001-81.694-60.101-149.347-138.497-161.165z" fill="#00f4a8"></path><path d="m141.991 256.003c0-81.693 60.1-149.346 138.497-161.164-7.992-1.205-16.172-1.833-24.5-1.833-90.021 0-162.997 72.976-162.997 162.997s72.976 162.997 162.997 162.997c8.328 0 16.508-.628 24.5-1.833-78.397-11.819-138.497-79.472-138.497-161.164z" fill="#00e49d"></path><path d="m280.488 129.713h-24.791l-68.957 41.458-20.51 84.832 9.5 57.168 28.193 34.679 32.807 26.321 32.885 9.744c64.634-6.806 115.004-61.474 115.004-127.912-.001-62.662-44.81-114.849-104.131-126.29z" fill="#00d391"></path><path d="m176.357 256.003c0-62.661 44.809-114.848 104.13-126.289-7.932-1.53-16.121-2.341-24.5-2.341-71.041 0-128.63 57.59-128.63 128.63s57.59 128.63 128.63 128.63c8.379 0 16.568-.811 24.5-2.341-59.321-11.441-104.13-63.628-104.13-126.289z" fill="#00c486"></path><path d="m325.782 207.384h-110.588l-6.215 5.786 56.75 108 7.009 3.258 58.828-107.276c2.411-4.395-.77-9.768-5.784-9.768z" fill="#9df9d3"></path><path d="m213.909 217.153c-2.411-4.396.77-9.769 5.784-9.769h-33.5c-5.014 0-8.195 5.372-5.784 9.769l69.794 127.272c2.504 4.566 9.064 4.566 11.568 0l10.966-19.997z" fill="#00f4a8"></path><path d="m331.566 294.852-58.828-107.276-7.009 3.094-56.75 102.5 5.171 11.45h111.632c5.014.001 8.195-5.372 5.784-9.768z" fill="#c3fbe4"></path><path d="m213.909 294.852 58.829-107.276-10.966-19.997c-2.504-4.566-9.064-4.566-11.568 0l-69.794 127.272c-2.411 4.396.77 9.769 5.784 9.769h33.5c-5.015.001-8.196-5.372-5.785-9.768z" fill="#9df9d3"></path></g><g><path d="m506.641 246.196c-7.01-4.542-12.78-11.142-17.151-19.614-6.016-11.657-15.812-20.664-27.851-25.702 7.911-10.385 11.899-23.088 11.293-36.198-.439-9.495 1.26-18.073 5.048-25.493 1.812-3.546 1.704-7.721-.286-11.17s-5.552-5.631-9.53-5.837c-8.343-.429-16.64-3.259-24.66-8.41-11.04-7.089-24.027-9.992-36.97-8.334 1.657-12.949-1.24-25.945-8.32-36.996-5.128-8.002-7.945-16.279-8.374-24.601-.205-3.977-2.386-7.54-5.835-9.531-3.448-1.991-7.622-2.101-11.17-.289-7.439 3.8-16.043 5.491-25.562 5.047-13.105-.615-25.799 3.36-36.179 11.264-5.037-12.035-14.043-21.83-25.699-27.844-8.473-4.372-15.072-10.143-19.614-17.151-2.167-3.342-5.837-5.337-9.819-5.337s-7.653 1.995-9.817 5.335c-4.534 6.993-11.113 12.753-19.555 17.119-11.657 6.03-20.664 15.837-25.703 27.88-10.38-7.904-23.067-11.885-36.184-11.268-9.526.443-18.123-1.248-25.562-5.046-3.545-1.812-7.721-1.703-11.169.287-3.45 1.991-5.631 5.555-5.836 9.531-.429 8.322-3.247 16.6-8.375 24.603-7.08 11.05-9.977 24.046-8.319 36.995-12.945-1.659-25.931 1.244-36.971 8.334-8.021 5.151-16.317 7.981-24.662 8.41-3.975.206-7.537 2.388-9.527 5.836-1.991 3.449-2.098 7.624-.288 11.17 3.79 7.421 5.489 15.999 5.049 25.494-.606 13.11 3.383 25.815 11.293 36.198-12.039 5.037-21.834 14.044-27.85 25.702-4.372 8.473-10.143 15.072-17.151 19.614-3.34 2.167-5.335 5.837-5.335 9.819 0 3.983 1.995 7.654 5.336 9.819 6.993 4.531 12.752 11.11 17.12 19.553 6.03 11.658 15.837 20.665 27.879 25.703-7.906 10.38-11.888 23.079-11.268 36.184.451 9.521-1.247 18.122-5.047 25.562-1.81 3.545-1.702 7.72.288 11.168 1.991 3.449 5.553 5.631 9.532 5.837 8.322.428 16.599 3.245 24.602 8.373 11.051 7.081 24.047 9.976 36.996 8.32-1.658 12.943 1.245 25.93 8.333 36.97 5.152 8.022 7.981 16.32 8.411 24.66.205 3.976 2.385 7.537 5.833 9.528 3.45 1.994 7.626 2.101 11.173.29 7.42-3.791 15.991-5.489 25.494-5.05 13.117.603 25.819-3.384 36.204-11.296 5.039 12.046 14.046 21.854 25.705 27.884 8.442 4.367 15.021 10.127 19.554 17.12 2.165 3.341 5.836 5.336 9.818 5.336s7.652-1.994 9.817-5.335c4.543-7.01 11.142-12.78 19.614-17.151 11.659-6.017 20.666-15.812 25.702-27.851 10.386 7.91 23.086 11.888 36.199 11.293 9.498-.43 18.071 1.26 25.494 5.05 3.547 1.812 7.724 1.704 11.172-.29 3.448-1.991 5.629-5.553 5.833-9.527.43-8.342 3.259-16.639 8.41-24.661 7.09-11.039 9.992-24.026 8.334-36.97 12.948 1.656 25.943-1.238 36.995-8.32 8.004-5.128 16.281-7.945 24.605-8.373 3.977-.206 7.538-2.389 9.529-5.838 1.99-3.448 2.097-7.623.287-11.167-3.799-7.44-5.497-16.041-5.047-25.562.62-13.104-3.36-25.803-11.268-36.184 12.044-5.039 21.85-14.046 27.879-25.703 4.368-8.442 10.128-15.021 17.12-19.553 3.341-2.165 5.336-5.836 5.336-9.819.002-3.982-1.993-7.652-5.333-9.817zm-30.445 32.299c-4.858 9.395-13.089 16.434-23.174 19.82-3.861 1.297-6.797 4.423-7.852 8.361s-.074 8.113 2.622 11.167c7.033 7.967 10.632 18.166 10.133 28.72-.492 10.395 1.075 20.037 4.663 28.736-9.301 1.238-18.412 4.687-27.147 10.284-8.906 5.705-19.553 7.687-29.979 5.579-3.994-.812-8.1.43-10.981 3.313-2.883 2.884-4.122 6.989-3.313 10.982 2.107 10.416.124 21.048-5.585 29.938-5.623 8.758-9.087 17.893-10.329 27.218-8.674-3.578-18.283-5.147-28.652-4.668-10.576.492-20.777-3.118-28.753-10.158-3.055-2.696-7.229-3.676-11.166-2.62s-7.063 3.992-8.361 7.855c-3.382 10.073-10.416 18.289-19.806 23.135-9.248 4.771-16.815 10.95-22.554 18.406-5.724-7.437-13.266-13.603-22.48-18.369-9.396-4.859-16.436-13.091-19.822-23.177-1.297-3.862-4.422-6.799-8.36-7.854-3.928-1.051-8.103-.084-11.168 2.621-7.976 7.043-18.196 10.643-28.756 10.161-10.361-.475-19.979 1.09-28.653 4.668-1.241-9.325-4.705-18.46-10.329-27.218-5.709-8.891-7.692-19.522-5.584-29.938.808-3.993-.431-8.099-3.314-10.982s-6.987-4.123-10.98-3.313c-10.426 2.107-21.072.127-29.979-5.579-8.736-5.598-17.848-9.047-27.148-10.284 3.588-8.698 5.156-18.342 4.664-28.736-.499-10.554 3.1-20.754 10.133-28.72 2.696-3.055 3.676-7.229 2.621-11.167s-3.99-7.064-7.853-8.361c-10.084-3.387-18.314-10.426-23.173-19.821-4.767-9.215-10.933-16.757-18.369-22.479 7.456-5.738 13.635-13.305 18.407-22.554 4.845-9.39 13.061-16.424 23.135-19.807 3.862-1.296 6.798-4.421 7.854-8.358 1.056-3.938.077-8.113-2.62-11.17-7.04-7.974-10.647-18.185-10.158-28.751.479-10.363-1.09-19.979-4.668-28.653 9.327-1.241 18.462-4.705 27.217-10.329 8.891-5.709 19.523-7.69 29.94-5.585 3.994.81 8.098-.431 10.981-3.312 2.883-2.883 4.122-6.987 3.314-10.98-2.109-10.428-.127-21.074 5.579-29.979 5.597-8.735 9.046-17.846 10.284-27.148 8.699 3.589 18.344 5.159 28.735 4.663 10.549-.495 20.755 3.101 28.721 10.135 3.055 2.695 7.23 3.676 11.167 2.62 3.938-1.055 7.063-3.99 8.361-7.853 3.387-10.084 10.426-18.314 19.821-23.174 9.214-4.766 16.756-10.932 22.48-18.367 5.737 7.454 13.305 13.634 22.554 18.406 9.388 4.844 16.421 13.058 19.805 23.131 1.297 3.862 4.423 6.798 8.362 7.853 3.939 1.057 8.113.075 11.164-2.621 7.965-7.031 18.165-10.635 28.717-10.13 10.395.5 20.038-1.075 28.735-4.663 1.238 9.302 4.688 18.413 10.285 27.147 5.706 8.906 7.687 19.553 5.579 29.979-.809 3.993.431 8.098 3.313 10.98 2.882 2.884 6.991 4.122 10.981 3.313 10.417-2.104 21.049-.124 29.938 5.585 8.757 5.624 17.893 9.089 27.219 10.329-3.578 8.675-5.147 18.29-4.668 28.653.489 10.566-3.118 20.776-10.159 28.753-2.695 3.055-3.674 7.229-2.618 11.168 1.056 3.938 3.992 7.062 7.853 8.357 10.075 3.384 18.292 10.418 23.137 19.807 4.771 9.249 10.951 16.816 18.406 22.555-7.435 5.722-13.602 13.265-18.369 22.48z"></path><path d="m337.912 206.785c-2.563-4.33-7.098-6.915-12.13-6.915h-37.741l-19.694-35.912c-2.476-4.514-7.212-7.317-12.361-7.317-5.147 0-9.884 2.805-12.358 7.318l-19.693 35.911h-37.741c-5.032 0-9.566 2.585-12.129 6.914-2.564 4.329-2.65 9.549-.231 13.961l19.327 35.243-19.327 35.243c-2.419 4.411-2.333 9.63.23 13.96s7.098 6.915 12.13 6.915h37.741l19.693 35.911c2.476 4.514 7.211 7.318 12.358 7.318h.002c5.147 0 9.884-2.804 12.36-7.318l19.693-35.911h37.741c5.032 0 9.566-2.585 12.131-6.916 2.562-4.329 2.648-9.548.229-13.959l-19.327-35.243 19.327-35.243c2.42-4.412 2.334-9.631-.23-13.96zm-150.193 8.085h27.99l-13.995 25.52zm68.269 124.49-14.946-27.254h29.892zm68.269-42.254c-5.173 0-126.923 0-136.538 0 7.294-13.3 60.864-110.987 68.27-124.49 1.771 3.231 63.269 115.374 68.268 124.49zm-13.995-56.716c-8.541-15.576-5.493-10.017-13.994-25.52h27.989z"></path><path d="m237.477 121.116c-66.634 9.066-117.619 66.204-117.619 134.872 0 75.062 61.068 136.13 136.13 136.13s136.13-61.067 136.13-136.13c0-68.682-50.999-125.808-117.62-134.872-4.102-.563-7.884 2.315-8.442 6.421-.559 4.104 2.316 7.884 6.421 8.442 59.655 8.115 104.642 59.708 104.642 120.009 0 66.791-54.339 121.13-121.13 121.13-66.792 0-121.13-54.339-121.13-121.13 0-60.3 44.986-111.893 104.641-120.009 4.104-.559 6.979-4.339 6.42-8.442-.56-4.105-4.334-6.987-8.443-6.421z"></path><path d="m418.844 245.946c4.119-.44 7.102-4.136 6.662-8.254-9.206-86.221-82.209-152.201-169.518-152.201-94.012 0-170.497 76.484-170.497 170.497s76.485 170.497 170.497 170.497c87.244 0 160.305-65.918 169.518-152.201.439-4.118-2.543-7.813-6.662-8.254-4.126-.438-7.814 2.543-8.254 6.662-8.446 79.125-74.911 138.793-154.602 138.793-85.741 0-155.497-69.756-155.497-155.497s69.756-155.497 155.497-155.497c79.69 0 146.155 59.668 154.602 138.793.439 4.119 4.128 7.095 8.254 6.662z"></path></g></g></svg>