<!-- icon666.com - MILLIONS OF FREE VECTOR ICONS --><svg id="Capa_1" enable-background="new 0 0 512 512" viewBox="0 0 512 512" xmlns="http://www.w3.org/2000/svg"><g><g><g><g><g><g><path d="m367.94 308.09c0 28.769 23.322 52.091 52.091 52.091s52.091-23.322 52.091-52.091c0-20.49 11.836-38.204 29.04-46.708 2.046-1.011 3.337-3.1 3.337-5.382 0-2.283-1.29-4.371-3.337-5.382-17.204-8.503-29.04-26.217-29.04-46.708 0-28.769-23.322-52.091-52.091-52.091s-52.091 23.322-52.091 52.091z" fill="#fb5532"></path></g><g><path d="m504.5 255.998c0 2.288-1.295 4.372-3.34 5.385-17.207 8.501-29.038 26.214-29.038 46.703 0 28.775-23.322 52.098-52.088 52.098-6.339 0-12.406-1.13-18.025-3.204 19.885-7.333 34.073-26.458 34.073-48.894 0-20.489 11.841-38.202 29.038-46.703 2.055-1.013 3.34-3.097 3.34-5.385 0-2.279-1.285-4.372-3.34-5.385-17.197-8.501-29.038-26.214-29.038-46.703 0-22.436-14.188-41.552-34.073-48.884 5.619-2.074 11.685-3.204 18.025-3.204 28.766 0 52.088 23.322 52.088 52.088 0 20.489 11.832 38.202 29.038 46.703 2.045 1.013 3.34 3.107 3.34 5.385z" fill="#ec462e"></path></g><g><path d="m144.058 203.91c0-28.769-23.322-52.091-52.091-52.091s-52.091 23.322-52.091 52.091c0 20.49-11.837 38.204-29.04 46.708-2.046 1.011-3.336 3.099-3.336 5.382s1.29 4.371 3.337 5.382c17.204 8.503 29.04 26.217 29.04 46.708 0 28.769 23.322 52.091 52.091 52.091s52.091-23.322 52.091-52.091v-104.18z" fill="#fb5532"></path></g><path d="m144.062 203.91v104.176c0 17.236-8.365 32.515-21.268 41.999-23.186-24.393-37.423-57.376-37.423-93.698 0-36.537 14.412-69.714 37.851-94.146 12.66 9.495 20.84 24.628 20.84 41.669z" fill="#ec462e"></path></g></g><g><g><g><path d="m154.917 326.899c-24.914-14.384-56.773-5.848-71.157 19.066s-5.848 56.773 19.066 71.157c17.745 10.245 27.168 29.353 25.93 48.504-.147 2.278 1.016 4.44 2.993 5.581s4.431 1.068 6.33-.199c15.966-10.647 37.225-12.041 54.97-1.796 24.915 14.384 56.773 5.848 71.157-19.066s5.848-56.773-19.066-71.157z" fill="#fc7d4b"></path></g><g><path d="m264.208 450.142c-14.383 24.919-46.245 33.45-71.155 19.067-17.752-10.244-39.01-8.852-54.97 1.802-1.899 1.266-4.353 1.334-6.33.195s-3.145-3.301-2.999-5.58c.604-9.417-1.363-18.823-5.638-27.169 15.084-7.479 33.508-7.508 49.176 1.539 24.919 14.383 56.772 5.852 71.155-19.067 7.235-12.533 8.676-26.828 5.132-39.769 22.231 15.229 29.33 45.261 15.629 68.982z" fill="#fb6a3b"></path></g></g></g><g><g><g><path d="m266.858 378.989c-24.914 14.384-33.451 46.242-19.066 71.157s46.242 33.451 71.157 19.066c17.745-10.245 39.004-8.852 54.97 1.796 1.899 1.266 4.353 1.34 6.33.199s3.14-3.303 2.993-5.581c-1.238-19.151 8.185-38.258 25.93-48.504 24.914-14.384 33.451-46.242 19.066-71.157-14.384-24.915-46.242-33.451-71.157-19.066z" fill="#fb946d"></path></g><g><path d="m409.176 417.121c-17.752 10.244-27.169 29.35-25.932 48.504.146 2.279-1.022 4.44-2.999 5.58-1.977 1.139-4.431 1.071-6.33-.195-7.44-4.966-16.019-7.917-24.861-8.608-.049-18.054 9.28-35.611 26.039-45.281 24.909-14.383 33.45-46.245 19.057-71.155-6.524-11.296-16.642-19.232-28.074-23.176 23.137-8.053 49.459 1.169 62.157 23.176 14.393 24.91 5.852 56.772-19.057 71.155z" fill="#fc7d4b"></path></g></g></g><g><g><path d="m245.14 133.011c24.915-14.384 33.451-46.242 19.066-71.157s-46.242-33.451-71.157-19.066c-17.745 10.245-39.004 8.852-54.97-1.796-1.899-1.266-4.353-1.34-6.33-.199s-3.14 3.303-2.993 5.581c1.238 19.151-8.185 38.259-25.93 48.504-24.914 14.384-33.451 46.242-19.066 71.157s46.242 33.451 71.157 19.066z" fill="#fc7d4b"></path></g><g><path d="m248.579 130.837c3.545-12.942 2.103-27.227-5.132-39.77-14.383-24.909-46.235-33.45-71.155-19.067-15.668 9.046-34.083 9.017-49.176 1.539 4.275-8.345 6.242-17.752 5.638-27.169-.146-2.279 1.022-4.44 2.999-5.58 1.977-1.139 4.431-1.061 6.33.205 15.96 10.643 37.218 12.036 54.97 1.792 24.91-14.383 56.772-5.843 71.155 19.067 13.701 23.731 6.602 53.763-15.629 68.983z" fill="#fb6a3b"></path></g><g><g><path d="m357.081 185.101c24.914 14.384 56.773 5.848 71.157-19.066 14.384-24.915 5.848-56.773-19.066-71.157-17.745-10.245-27.168-29.353-25.93-48.504.147-2.278-1.016-4.44-2.993-5.581s-4.431-1.068-6.33.199c-15.966 10.648-37.225 12.041-54.97 1.796-24.914-14.384-56.773-5.848-71.157 19.066s-5.848 56.773 19.066 71.157z" fill="#fb946d"></path></g><g><path d="m428.233 166.04c-12.698 21.998-39.02 31.229-62.157 23.166 11.432-3.934 21.55-11.87 28.074-23.166 14.393-24.919 5.852-56.782-19.057-71.164-16.759-9.67-26.088-27.227-26.039-45.281 8.842-.691 17.421-3.642 24.861-8.599 1.899-1.266 4.353-1.344 6.33-.205s3.145 3.301 2.999 5.58c-1.237 19.154 8.18 38.26 25.932 48.504 24.909 14.383 33.45 46.246 19.057 71.165z" fill="#fc7d4b"></path></g></g></g></g><g><g><path d="m388.652 284.355c11.114-9.317 19.639-16.91 29.696-21.881 2.461-1.216 4.013-3.728 4.013-6.474 0-2.745-1.552-5.257-4.013-6.474-10.057-4.971-18.582-12.564-29.696-21.881z" fill="#fcb44d"></path></g><g><path d="m123.348 284.355c-11.114-9.317-19.639-16.91-29.696-21.881-2.461-1.216-4.013-3.728-4.013-6.474 0-2.745 1.552-5.257 4.013-6.474 10.057-4.971 18.582-12.564 29.696-21.881z" fill="#fca62f"></path></g></g><g><g><path d="m346.882 155.297c-2.512-14.283-4.825-25.463-4.102-36.658.177-2.74-1.222-5.34-3.6-6.713s-5.329-1.284-7.613.239c-9.334 6.224-20.172 9.811-33.798 14.777z" fill="#fcb44d"></path></g><g><path d="m214.23 385.058c-13.626 4.967-24.464 8.553-33.798 14.777-2.284 1.523-5.236 1.612-7.613.239-2.378-1.373-3.777-3.973-3.6-6.713.724-11.195-1.59-22.375-4.102-36.658z" fill="#fcb44d"></path></g></g><g><g><path d="m214.23 126.942c-13.626-4.967-24.464-8.553-33.798-14.777-2.284-1.523-5.236-1.612-7.613-.239-2.378 1.373-3.777 3.973-3.6 6.713.724 11.195-1.59 22.375-4.102 36.658z" fill="#fcb44d"></path></g><g><path d="m346.882 356.703c-2.512 14.283-4.825 25.463-4.102 36.658.177 2.74-1.222 5.34-3.6 6.713s-5.329 1.284-7.613-.239c-9.334-6.224-20.172-9.811-33.798-14.777z" fill="#fcb44d"></path></g></g><g><g><g><circle cx="255.998" cy="256.387" fill="#fc7d4b" r="136.04"></circle><path d="m392.04 256.387c0 75.134-60.908 136.042-136.042 136.042-5.159 0-10.255-.288-15.27-.855 67.94-7.59 120.763-65.221 120.763-135.187s-52.823-127.597-120.763-135.187c5.015-.567 10.111-.855 15.27-.855 75.134 0 136.042 60.908 136.042 136.042z" fill="#fb6a3b"></path></g><g><circle cx="255.998" cy="256.387" fill="#ffd496" r="105.495"></circle><path d="m361.491 256.387c0 58.261-47.232 105.493-105.493 105.493-4.898 0-9.724-.333-14.442-.99 51.428-7.032 91.052-51.14 91.052-104.503s-39.624-97.471-91.052-104.503c4.718-.657 9.544-.99 14.442-.99 58.261 0 105.493 47.232 105.493 105.493z" fill="#fcc16d"></path></g><g><circle cx="255.998" cy="256.387" fill="#6d81d5" r="75.905"></circle><circle cx="255.998" cy="256.387" fill="#fcb44d" r="75.905"></circle><path d="m331.9 256.39c0 41.92-33.98 75.9-75.9 75.9-6.21 0-12.24-.74-18.01-2.16 33.22-8.08 57.88-38.03 57.88-73.74s-24.66-65.67-57.88-73.75c5.77-1.41 11.8-2.16 18.01-2.16 41.92 0 75.9 33.99 75.9 75.91z" fill="#fca62f"></path></g></g></g></g><g><path d="m504.486 243.904c-15.336-7.58-24.863-22.901-24.863-39.984 0-24.747-14.89-46.42-37.532-55.379 3.39-23.499-7.562-47.675-29.168-60.149-14.794-8.542-23.299-24.453-22.195-41.526.333-5.16-2.245-9.972-6.728-12.559-4.483-2.588-9.94-2.414-14.241.454-14.233 9.492-32.264 10.083-47.059 1.541-13.785-7.959-29.845-10.074-45.218-5.953-7.95 2.13-15.217 5.807-21.49 10.756-19.074-15.077-45.361-17.117-66.691-4.803-14.794 8.542-32.826 7.951-47.059-1.54-4.301-2.869-9.757-3.043-14.241-.455-4.483 2.588-7.061 7.401-6.727 12.56 1.104 17.072-7.401 32.983-22.195 41.525-13.785 7.959-23.645 20.809-27.765 36.184-2.13 7.948-2.579 16.077-1.431 23.983-22.61 8.974-37.504 30.678-37.504 55.361 0 17.083-9.527 32.404-24.863 39.984-4.637 2.291-7.516 6.93-7.516 12.106 0 5.177 2.879 9.816 7.514 12.106 15.336 7.58 24.864 22.901 24.864 39.984 0 24.752 14.896 46.429 37.546 55.385-2.368 16.523 2.228 33.724 13.388 46.959 1.483 1.759 3.603 2.666 5.737 2.665 1.707 0 3.424-.58 4.831-1.766 3.167-2.67 3.569-7.402.899-10.569-12.07-14.314-13.887-34.828-4.523-51.049 8.468-14.666 24.346-23.166 41.078-22.236 7.255 12.673 16.39 24.134 27.016 34.013l.166.929c2.127 11.924 3.808 21.343 3.219 30.456-.364 5.623 2.446 10.87 7.335 13.693 2.304 1.33 4.842 1.99 7.374 1.99 2.84 0 5.672-.832 8.15-2.485 7.599-5.068 16.598-8.322 27.991-12.442l.613-.222c8.27 2.589 16.861 4.44 25.693 5.494-8.13 17.395-7.467 37.891 2.406 54.992 1.253 2.17 2.64 4.23 4.125 6.198-14.055 10.254-33.251 11.499-48.623 2.624-18.935-10.933-41.836-10.674-60.443.507.224-14.746-5.108-29.324-14.856-40.391-2.738-3.107-7.477-3.408-10.585-.67s-3.408 7.477-.67 10.586c7.769 8.819 11.788 20.627 11.028 32.393-.334 5.159 2.244 9.972 6.728 12.561 4.483 2.588 9.94 2.414 14.24-.455 14.233-9.492 32.265-10.083 47.059-1.541 9.237 5.334 19.507 7.933 29.724 7.933 13.199-.001 26.306-4.343 36.969-12.734 6.272 4.948 13.538 8.624 21.488 10.754 5.134 1.375 10.343 2.056 15.52 2.056 10.325 0 20.517-2.708 29.698-8.009 14.794-8.542 32.827-7.951 47.059 1.54 4.3 2.868 9.757 3.043 14.24.455 4.483-2.587 7.062-7.4 6.729-12.561-1.104-17.072 7.401-32.983 22.195-41.525 21.705-12.531 32.53-36.749 29.162-60.163 22.599-8.976 37.538-30.766 37.538-55.365 0-17.083 9.527-32.404 24.863-39.984 4.635-2.29 7.514-6.929 7.514-12.106.001-5.176-2.878-9.815-7.513-12.106zm-397.908-142.521c18.934-10.932 30.16-30.892 29.783-52.594 18.605 11.177 41.505 11.436 60.44.504 15.493-8.944 34.477-7.769 48.627 2.618-1.487 1.97-2.876 4.032-4.13 6.203-9.995 17.311-10.543 38.171-2.056 55.726-8.542.998-16.857 2.746-24.877 5.182l-1.776-.643c-11.395-4.121-20.395-7.375-27.995-12.444-4.688-3.125-10.635-3.315-15.525-.493-4.887 2.822-7.697 8.069-7.333 13.691.589 9.115-1.092 18.537-3.22 30.464l-.329 1.849c-10.33 9.634-19.243 20.766-26.384 33.053-16.836 1.094-33.106-7.587-41.546-22.205-12.295-21.292-4.973-48.617 16.321-60.911zm70.16 17.34c5.18 3.395 10.741 6.038 16.74 8.481-6.177 3.001-12.109 6.43-17.754 10.252.884-6.417 1.364-12.548 1.014-18.733zm-63.954 147.23c-4.978-3.843-9.926-7.228-15.308-9.942 5.401-2.724 10.364-6.123 15.36-9.982-.246 3.426-.378 6.882-.378 10.37 0 3.21.117 6.394.326 9.554zm-35.518 76.273c-1.256 2.176-2.354 4.411-3.311 6.688-16.092-7.048-26.578-22.847-26.578-40.813 0-21.864-11.673-41.566-30.657-52.09 18.983-10.523 30.657-30.226 30.657-52.09 0-17.927 10.497-33.751 26.579-40.807.963 2.274 2.055 4.509 3.309 6.682 9.848 17.057 27.671 28.058 47.006 29.606-3.401 7.83-6.131 16.015-8.1 24.491l-1.056.889c-9.272 7.813-16.596 13.984-24.787 18.033-5.052 2.497-8.19 7.554-8.19 13.197 0 5.644 3.138 10.7 8.19 13.197 8.191 4.049 15.515 10.22 24.787 18.033l.845.711c1.922 8.536 4.604 16.787 7.976 24.676-19.226 1.584-36.754 12.422-46.67 29.597zm50.192-85.828c0-70.878 57.663-128.541 128.541-128.541s128.541 57.663 128.541 128.541-57.663 128.541-128.541 128.541-128.541-57.664-128.541-128.541zm208.821-118.938c-5.646-3.823-11.579-7.253-17.757-10.255 6-2.443 11.562-5.087 16.743-8.482-.351 6.186.129 12.318 1.014 18.737zm62.883 108.564c4.997 3.861 9.961 7.261 15.365 9.986-5.385 2.716-10.333 6.102-15.313 9.946.209-3.161.326-6.346.326-9.559 0-3.488-.132-6.946-.378-10.373zm-63.898 147.274c-4.935-3.234-10.216-5.785-15.89-8.132 5.828-2.88 11.439-6.136 16.789-9.752-.81 6.11-1.234 11.972-.899 17.884zm-158.526 0c.334-5.91-.089-11.771-.898-17.88 5.349 3.614 10.959 6.87 16.786 9.749-5.674 2.347-10.954 4.897-15.888 8.131zm228.685 17.34c-18.936 10.933-30.162 30.893-29.783 52.595-18.605-11.178-41.505-11.437-60.44-.505-10.315 5.955-22.333 7.537-33.836 4.455-11.505-3.083-21.121-10.461-27.076-20.776-8.424-14.59-7.896-32.484 1.136-46.475.192.001.382.007.574.007 14.901 0 29.279-2.284 42.803-6.518l.613.222c11.394 4.121 20.394 7.376 27.994 12.444 2.479 1.652 5.309 2.484 8.149 2.484 2.532 0 5.071-.661 7.376-1.991 4.887-2.822 7.697-8.069 7.333-13.691-.589-9.115 1.092-18.537 3.221-30.465l.165-.926c10.624-9.878 19.757-21.338 27.011-34.009 16.695-.909 32.681 7.689 41.081 22.237 12.294 21.293 4.972 48.618-16.321 60.912zm59.2-102.537c0 17.859-10.52 33.739-26.587 40.804-.955-2.264-2.042-4.497-3.301-6.679-9.836-17.037-27.457-27.963-46.677-29.588 3.373-7.891 6.056-16.143 7.979-24.68l.851-.716c9.272-7.813 16.595-13.984 24.787-18.033 5.052-2.497 8.19-7.554 8.19-13.197 0-5.644-3.138-10.7-8.19-13.197-8.191-4.048-15.513-10.218-24.784-18.03l-1.065-.897c-1.971-8.478-4.702-16.666-8.105-24.498 6.801-.534 13.504-2.211 19.786-5.023 3.781-1.692 5.474-6.129 3.782-9.91s-6.128-5.473-9.91-3.782c-6.666 2.983-13.956 4.27-21.197 3.802-7.137-12.275-16.043-23.397-26.364-33.023l-.33-1.851c-2.129-11.93-3.811-21.352-3.221-30.467.364-5.623-2.446-10.87-7.335-13.693-4.887-2.82-10.835-2.631-15.524.495-7.6 5.068-16.6 8.323-27.995 12.444l-1.777.643c-13.184-4.004-27.162-6.166-41.637-6.166-.02 0-.04.001-.061.001-9.51-14.097-10.213-32.411-1.65-47.243 5.955-10.315 15.571-17.693 27.076-20.776 11.504-3.082 23.521-1.501 33.836 4.455 18.935 10.932 41.835 10.674 60.44-.505-.378 21.702 10.848 41.663 29.783 52.595 20.393 11.773 28.122 37.479 17.598 58.52-1.853 3.704-.352 8.21 3.353 10.063 1.077.539 2.222.794 3.349.794 2.75 0 5.399-1.519 6.713-4.146.58-1.159 1.103-2.332 1.6-3.51 16.098 7.046 26.587 22.847 26.587 40.817 0 21.864 11.673 41.566 30.657 52.09-18.983 10.52-30.657 30.223-30.657 52.087z"></path><path d="m182.38 342.117c20.459 17.589 46.604 27.276 73.618 27.276 62.306 0 112.995-50.689 112.995-112.995s-50.689-112.995-112.995-112.995c-55.107 0-101.926 39.352-111.325 93.571-.708 4.082 2.027 7.963 6.108 8.671 4.085.708 7.963-2.028 8.671-6.108 8.15-47.012 48.753-81.133 96.546-81.133 54.035 0 97.995 43.961 97.995 97.995s-43.96 97.995-97.995 97.995c-23.428 0-46.1-8.399-63.84-23.65-17.555-15.092-29.238-35.917-32.897-58.639-.659-4.089-4.503-6.869-8.597-6.212-4.089.659-6.871 4.508-6.212 8.597 4.221 26.212 17.691 50.23 37.928 67.627z"></path><path d="m255.999 339.803c45.99 0 83.406-37.415 83.406-83.405s-37.416-83.405-83.406-83.405-83.405 37.415-83.405 83.405 37.415 83.405 83.405 83.405zm0-15c-35.989 0-65.553-27.941-68.192-63.267 13.979 23.346 39.547 38.775 68.194 38.775 28.631 0 54.203-15.418 68.189-38.757-2.648 35.317-32.209 63.249-68.191 63.249zm0-136.81c28.833 0 53.539 17.941 63.588 43.238-5.002 30.959-32 54.08-63.585 54.08-31.602 0-58.599-23.126-63.585-54.091 10.05-25.292 34.752-43.227 63.582-43.227z"></path></g></g></svg>