<!-- icon666.com - MILLIONS OF FREE VECTOR ICONS --><svg id="Layer_1" enable-background="new 0 0 496 496" viewBox="0 0 496 496" xmlns="http://www.w3.org/2000/svg"><path d="m81.22 193.81c-30.135-33.906-6.971-72.052-33.86-91.58 26.897 19.54 55.995-14.289 97.57 3.9-4.47-45.102 36.698-62.403 26.43-93.99 10.268 31.605 53.718 21.352 76.64 60.5 22.908-39.123 66.376-28.907 76.64-60.5-10.271 31.596 30.903 48.863 26.43 93.99 41.583-18.193 70.665 15.647 97.57-3.9-26.902 19.538-3.714 57.635-33.85 91.58 44.287 9.723 47.986 54.19 81.21 54.19-33.237 0-36.896 44.47-81.22 54.19 30.135 33.906 6.971 72.052 33.86 91.58-26.892-19.537-55.998 14.288-97.57-3.9 4.47 45.102-36.698 62.403-26.43 93.99-10.258-31.572-53.74-21.391-76.64-60.5-22.923 39.149-66.371 28.893-76.64 60.5 10.271-31.596-30.903-48.863-26.43-93.99-41.575 18.189-70.671-15.642-97.57 3.9 26.902-19.538 3.714-57.635 33.85-91.58-44.287-9.723-47.986-54.19-81.21-54.19 33.237 0 36.896-44.47 81.22-54.19z" fill="#f9e35d"></path><path d="m105.163 201.59c-25.809-29.038-5.97-61.708-28.999-78.433 23.035 16.735 47.957-12.238 83.563 3.34-3.829-38.627 31.429-53.444 22.635-80.497 8.794 27.068 46.006 18.287 65.638 51.815 19.619-33.507 56.847-24.758 65.638-51.815-8.796 27.06 26.466 41.848 22.636 80.497 35.613-15.581 60.52 13.4 83.563-3.34-23.04 16.733-3.18 49.361-28.991 78.433 37.93 8.327 41.097 46.41 69.552 46.41-28.466 0-31.599 38.086-69.56 46.41 25.809 29.038 5.97 61.708 28.999 78.433-23.031-16.732-47.959 12.237-83.563-3.34 3.828 38.627-31.429 53.444-22.636 80.497-8.785-27.039-46.025-18.32-65.638-51.815-19.632 33.529-56.843 24.745-65.638 51.815 8.796-27.06-26.466-41.848-22.636-80.497-35.607 15.578-60.526-13.396-83.563 3.34 23.04-16.733 3.18-49.361 28.991-78.433-37.929-8.327-41.097-46.41-69.551-46.41 28.466 0 31.599-38.086 69.56-46.41z" fill="#ffe97b"></path><circle cx="248" cy="248" fill="#f9f085" r="176"></circle><circle cx="248" cy="248" fill="#fff6a6" r="148" style="fill: rgb(247, 223, 2);"></circle><path d="m248 424-152-256h304z" fill="#f9e35d"></path><path d="m124.108 184h247.785l-123.893 208.66z" fill="#ffe97b"></path><g fill="#eacf32"><path d="m296 208h-96c-4.418 0-8-3.582-8-8s3.582-8 8-8h96c4.418 0 8 3.582 8 8s-3.582 8-8 8z" fill="#eacf32"></path><path d="m248 152c-15.719 0-23.888-7.777-36.732-17.202-3.563-2.614-4.332-7.62-1.718-11.183s7.621-4.33 11.183-1.718c12.39 9.09 17.334 14.103 27.267 14.103 9.911 0 14.716-4.896 27.268-14.103 3.563-2.614 8.569-1.844 11.183 1.718 2.613 3.563 1.845 8.568-1.718 11.183-12.84 9.421-21.008 17.202-36.733 17.202z" fill="#eacf32"></path><path d="m251.59 120c-6.464 0-10.161-7.227-6.65-12.44 2.82-4.273 8.905-4.707 12.3-1.22 5.042 5.055 1.421 13.66-5.65 13.66z" fill="#eacf32"></path><path d="m248 360c-4.418 0-8-3.582-8-8 0-42.852-20.437-66.05-38.51-91.351-2.419-3.387-1.837-8.063 1.339-10.754 3.176-2.689 7.884-2.495 10.828.447l15.716 15.716c12.745 12.75 34.627 3.605 34.627-14.342v-51.716c0-4.418 3.582-8 8-8s8 3.582 8 8v51.716c0 21.578-18.845 38.567-40.558 36.037 10.872 19.608 16.558 41.544 16.558 64.247 0 4.418-3.582 8-8 8z" fill="#eacf32"></path></g></svg>