<!-- icon666.com - MILLIONS OF FREE VECTOR ICONS --><svg id="Layer_1" enable-background="new 0 0 128 128" viewBox="0 0 128 128" xmlns="http://www.w3.org/2000/svg" xmlns:xlink="http://www.w3.org/1999/xlink"><linearGradient id="SVGID_1_" gradientUnits="userSpaceOnUse" x1="109.95" x2="17.997" y1="108.552" y2="16.6"><stop offset="0" stop-color="#ec5569"></stop><stop offset="1" stop-color="#fdd143"></stop></linearGradient><path d="m55.5 88.9c1.3 4.5 2.6 8.7 2.8 13.1.5 14.3-8.3 20-16.8 20.6-5.4.4-10.3-.6-14-4.5-5.3-5.5-7.1-15.7-5.3-31.2.8-6.9.4-12.4-1.2-17.6-.3-.9.2-1.9 1.1-2.2s1.9.2 2.2 1.1c1.8 5.6 2.2 11.6 1.4 19-1.6 14.2-.1 23.7 4.4 28.4 2.6 2.7 6.2 3.8 11.2 3.4 8.9-.6 13.9-7 13.5-17-.2-3.9-1.4-8-2.6-12.2-2.6-8.6-5.5-18.3-1.4-31.2 2-6.5 2.9-13.4 2.8-20.2-.1-5.4-4.7-9.6-10.1-9.2-10 .8-26.9 5-26.8 15.6.1 6 1.7 9.9 3.8 14.4.4.9 0 1.9-.8 2.3-.9.4-1.9 0-2.3-.8-2.2-4.7-4.1-9.2-4.2-15.9-.1-12.4 16.1-18.1 30-19.2 7.4-.6 13.8 5.2 13.8 12.6.2 7.2-.8 14.4-2.9 21.3-3.8 12.2-1.1 20.9 1.4 29.4zm46.7-13.9c-.2 1.6-.3 3.1-.3 4.7 0 2.3 3.5 2.4 3.5.1 0-1.4.1-2.9.3-4.3.3-2.3-3.2-2.8-3.5-.5zm-17.4-49.1c-7.4-.6-13.8 5.1-13.9 12.6-.2 7.2.8 14.4 2.9 21.3 3.8 11.8 1.2 20.6-1.4 29.1-1.3 4.5-2.6 8.7-2.8 13.1-.5 14.3 8.3 20 16.8 20.6 5.3.4 10.2-.6 13.9-4.4 5.2-5.3 7-15 5.6-29.6-.1-1-1-1.7-1.9-1.6s-1.7 1-1.6 1.9c1.3 13.3-.2 22.4-4.6 26.8-2.6 2.7-6.1 3.7-11.2 3.4-8.9-.6-13.9-7-13.6-17 .2-3.9 1.4-8 2.6-12.2 2.6-8.6 5.5-18.3 1.4-31.2-2-6.5-2.9-13.4-2.8-20.2.1-5.4 4.7-9.6 10.1-9.2 10 .8 26.9 5 26.8 15.6-.1 6.5-2.1 10.8-4.2 15.2-.8 1.7-1.7 3.5-2.4 5.5-.3.9.1 1.9 1 2.3s1.9-.1 2.3-1c.7-1.8 1.5-3.6 2.3-5.3 2.2-4.6 4.5-9.4 4.5-16.7.3-12.3-15.9-17.9-29.8-19zm-32.3-20.7c-4.5 0-8.1 4.3-8.1 9.7s3.7 9.7 8.1 9.7 8.1-4.3 8.1-9.7-3.6-9.7-8.1-9.7zm0 15.9c-2.6 0-4.6-2.8-4.6-6.2s2.1-6.2 4.6-6.2 4.6 2.8 4.6 6.2-2 6.2-4.6 6.2zm-14.4 2c3.2-.2 5.5-3.4 5.2-7.1-.2-3.1-2.6-6.5-6.2-6.3-3.5.2-5.6 3.8-5.3 7.1.4 4 3.5 6.6 6.3 6.3zm-.6-9.9c1.4.1 2.3 1.7 2.4 3 .1 1.7-.8 3.3-2 3.4s-2.4-1.3-2.5-3c-.2-2 1-3.4 2.1-3.4zm-10.4 12.9c2.9-.5 4.7-3.7 4-7-.5-3-3.1-5.6-6.3-5-2.9.5-4.7 3.7-4 7 .6 3.3 3.5 5.6 6.3 5zm-1.6-8.5c1.1-.2 2 1.1 2.2 2.2.3 1.4-.3 2.8-1.3 2.9-1.1.2-2-1.1-2.2-2.2-.2-1.4.4-2.8 1.3-2.9zm-8 13.6c2.6-.6 4.1-3.5 3.4-6.4s-3.3-4.9-5.9-4.3c-3.2.8-4.3 4.6-3.1 7.5.9 2.1 3.1 3.7 5.6 3.2zm-1.7-7.4c.8-.2 1.5.8 1.7 1.7.3 1.2-.2 2.1-.8 2.2-.8.1-1.5-.8-1.7-1.6-.2-.7-.1-2 .8-2.3zm-2.2 8.5c-1.1-2.5-3.8-3.8-5.9-2.8-2.4 1.1-3 4-2 6.3 1 2.4 3.8 3.7 5.9 2.8 2.2-1 3.1-3.8 2-6.3zm-3.3 3c-.3.1-1-.2-1.3-1-.2-.5-.3-1.4.2-1.6.3-.1 1 .2 1.3 1s.1 1.5-.2 1.6zm65.2-10.7c4.5 0 8.1-4.3 8.1-9.7s-3.7-9.7-8.1-9.7-8.1 4.3-8.1 9.7 3.6 9.7 8.1 9.7zm0-15.9c2.6 0 4.6 2.8 4.6 6.2s-2.1 6.2-4.6 6.2-4.6-2.8-4.6-6.2 2-6.2 4.6-6.2zm14.4 14.4c3.2.2 6-2.7 6.2-6.3.3-3.3-1.8-7-5.5-7.1-3.4-.1-5.8 3.1-6 6.3-.2 3.7 2.1 6.9 5.3 7.1zm.7-9.9c1.5.1 2.1 1.9 2 3.4-.1 1.7-1.3 3.1-2.5 3s-2.1-1.6-2-3.4c.1-1.4 1.1-3.1 2.5-3zm10.3 12.9c3 .6 5.8-1.9 6.3-5 .6-3.3-1.2-6.4-4.1-7-3.2-.5-5.8 2-6.3 5-.6 3.4 1.2 6.5 4.1 7zm-.6-6.3c.2-1.1 1.1-2.4 2.2-2.2.9.2 1.5 1.5 1.3 2.9-.2 1.1-1.1 2.4-2.2 2.2-1-.2-1.6-1.5-1.3-2.9zm10.2 11.4c2.8.6 5.3-1.6 5.9-4.3s-.6-5.7-3.4-6.4c-2.6-.6-5.2 1.3-5.9 4.3s.9 5.8 3.4 6.4zm0-5.7c.2-.9 1-1.9 1.7-1.7.9.2 1 1.5.8 2.4-.2.7-.8 1.8-1.7 1.6-.6-.1-1-1.1-.8-2.3zm9.8 4c-2.2-1-4.8.3-5.9 2.8s-.2 5.3 2 6.3 4.6-.3 5.8-2.4c1.1-2.4.7-5.6-1.9-6.7zm-2.6 5.8c-.3-.1-.5-.8-.2-1.7.3-.7.9-1.2 1.3-1 .5.2.5 1 .3 1.6-.3.7-.8 1.3-1.4 1.1z" fill="url(#SVGID_1_)"></path></svg>