<!-- icon666.com - MILLIONS OF FREE VECTOR ICONS --><svg id="Capa_1" enable-background="new 0 0 512 512" viewBox="0 0 512 512" xmlns="http://www.w3.org/2000/svg"><g><path d="m94.075 175.351c-4.15 0-7.515 3.364-7.515 7.515v17.434c0 4.151 3.364 7.515 7.515 7.515s7.515-3.364 7.515-7.515v-17.434c0-4.151-3.365-7.515-7.515-7.515z"></path><path d="m169.439 207.815c4.15 0 7.515-3.364 7.515-7.515v-17.434c0-4.151-3.365-7.515-7.515-7.515s-7.515 3.364-7.515 7.515v17.434c.001 4.151 3.365 7.515 7.515 7.515z"></path><path d="m504.485 412.179c4.15 0 7.515-3.364 7.515-7.515v-24.318c0-42.896-26.276-79.766-63.576-95.372 12.736-3.279 23.267-7.69 31.517-13.225 16.131-10.823 18.004-22.486 18.21-24.497 8.513-83.052-4.007-143.813-37.212-180.595-28.068-31.093-62.608-35.736-80.699-35.736-14.658 0-36.735 2.95-58.676 17.002-3.495 2.238-4.514 6.886-2.275 10.381 2.239 3.494 6.886 4.516 10.381 2.275 18.878-12.09 37.92-14.628 50.57-14.628 15.595 0 45.368 3.998 69.543 30.777 13.613 15.079 23.499 35.37 29.384 60.307 7.019 29.749 8.377 66.315 4.034 108.685-.006.06-.012.12-.016.18-.019.238-3.966 18.341-48.948 26.821 19.085-15.652 31.286-39.404 31.286-65.955v-31.147c0-2.953-1.737-5.636-4.428-6.851-.485-.219-48.822-22.446-74.304-67.696-1.332-2.365-3.835-3.828-6.548-3.828s-5.216 1.463-6.548 3.828c-25.482 45.249-73.819 67.477-74.297 67.693-2.699 1.212-4.434 3.895-4.434 6.854v31.147c0 26.566 12.215 50.328 31.318 65.981-44.633-8.378-48.838-26.235-49.007-27.089-4.313-42.129-2.989-78.523 3.935-108.172 5.814-24.897 15.6-45.188 29.087-60.31 2.763-3.098 2.491-7.847-.606-10.611-3.097-2.761-7.847-2.491-10.61.607-32.857 36.841-45.222 97.43-36.75 180.081.206 2.011 2.079 13.674 18.21 24.497 8.251 5.535 18.783 9.946 31.52 13.225-25.415 10.634-45.706 31.141-56.059 56.7-1.056-2.607-2.215-5.161-3.472-7.658v-120.313c0-65.127-10.907-111.273-33.342-141.076-20.06-26.648-48.659-39.601-87.43-39.601s-67.374 12.952-87.434 39.6c-22.436 29.802-33.342 75.949-33.342 141.076v12.204c0 4.151 3.365 7.515 7.515 7.515s7.515-3.364 7.515-7.515v-12.204c0-60.888 10.201-105.312 30.32-132.037 17.026-22.616 41.697-33.61 75.424-33.61 33.726 0 58.398 10.994 75.423 33.61 20.119 26.725 30.32 71.149 30.32 132.037v98.17c-15.252-17.201-36.138-29.294-59.74-33.355 23.601-15.184 39.278-41.663 39.278-71.752v-58.569c0-4.151-3.365-7.515-7.515-7.515h-93.16l-14.158-23.766c-1.355-2.275-3.808-3.668-6.456-3.668s-5.101 1.393-6.456 3.668l-14.158 23.766h-21.142c-4.15 0-7.515 3.364-7.515 7.515v58.569c0 30.089 15.678 56.568 39.279 71.752-23.604 4.061-44.493 16.157-59.745 33.362v-55.88c0-4.151-3.365-7.515-7.515-7.515s-7.515 3.364-7.515 7.515v78.028c-7.02 13.94-10.981 29.674-10.981 46.318v93.217c0 4.151 3.364 7.515 7.515 7.515h496.971c4.15 0 7.515-3.364 7.515-7.515v-38.84c0-4.151-3.365-7.515-7.515-7.515s-7.515 3.364-7.515 7.515v31.326h-34.053v-73.857c0-4.151-3.365-7.515-7.515-7.515s-7.515 3.364-7.515 7.515v73.857h-135.291v-73.857c0-4.151-3.365-7.515-7.515-7.515s-7.515 3.364-7.515 7.515v73.857h-34.053v-85.702c0-45.143 34.054-82.477 77.821-87.676.985 7.501 3.79 18.502 11.669 26.691 6.862 7.131 16.026 10.746 27.237 10.746s20.375-3.615 27.237-10.746c7.879-8.188 10.684-19.19 11.669-26.691 43.767 5.199 77.821 42.533 77.821 87.676v24.318c.003 4.15 3.367 7.514 7.517 7.514zm-227.205-166.459c-.001-.013-.003-.027-.004-.039.007.05.011.091.014.124-.002-.014-.006-.041-.01-.085zm-126.819 46.326-16.552 27.888c-.633 1.068-1.621 1.227-2.154 1.227s-1.521-.159-2.154-1.227l-16.552-27.888zm-88.954-85.28v-51.055h17.899c2.648 0 5.101-1.394 6.456-3.669l9.887-16.597 9.888 16.598c1.355 2.275 3.808 3.668 6.456 3.668h89.916v51.055c0 38.736-31.514 70.251-70.251 70.251s-70.251-31.515-70.251-70.251zm-46.478 173.58c0-46.141 35.575-84.123 80.736-87.973l20.911 35.231c3.19 5.376 8.827 8.585 15.079 8.585 6.251 0 11.887-3.209 15.078-8.585l20.911-35.232c45.163 3.848 80.741 41.831 80.741 87.973v85.702h-34.053v-73.857c0-4.151-3.365-7.515-7.515-7.515s-7.515 3.364-7.515 7.515v10.822l-26.448-14.524c-2.253-1.238-4.982-1.238-7.234 0l-33.963 18.651-33.963-18.649c-2.252-1.237-4.981-1.237-7.234 0l-26.448 14.524v-10.822c0-4.151-3.364-7.515-7.515-7.515s-7.515 3.364-7.515 7.515v73.857h-34.053zm184.374 59.719-26.448-14.524c-2.253-1.237-4.982-1.237-7.234 0l-33.963 18.651-33.963-18.651c-2.252-1.237-4.981-1.237-7.234 0l-26.448 14.524v-19.904l30.065-16.51 33.963 18.651c2.253 1.237 4.981 1.237 7.234 0l33.963-18.651 30.065 16.51zm-135.291 17.147 30.065-16.51 33.963 18.651c2.253 1.237 4.981 1.237 7.234 0l33.963-18.651 30.065 16.51v8.837h-135.29zm245.88-250.446v-26.462c12.184-6.279 46.463-26.123 70.25-61.28 23.787 35.157 58.066 55.001 70.251 61.28v26.462c0 38.736-31.514 70.251-70.251 70.251s-70.25-31.515-70.25-70.251zm70.251 108.312c-7.039 0-12.391-1.992-16.362-6.091-4.694-4.845-6.651-11.751-7.464-16.941h23.82.005.001 23.825c-.814 5.195-2.771 12.098-7.464 16.941-3.97 4.099-9.322 6.091-16.361 6.091z"></path><path d="m342.561 175.351c-4.15 0-7.515 3.364-7.515 7.515v17.434c0 4.151 3.365 7.515 7.515 7.515s7.515-3.364 7.515-7.515v-17.434c-.001-4.151-3.365-7.515-7.515-7.515z"></path><path d="m417.925 175.351c-4.15 0-7.515 3.364-7.515 7.515v17.434c0 4.151 3.364 7.515 7.515 7.515s7.515-3.364 7.515-7.515v-17.434c-.001-4.151-3.365-7.515-7.515-7.515z"></path><path d="m418.094 409.137c3.635-4.356 4.754-10.18 2.996-15.58-1.753-5.383-6.069-9.416-11.547-10.79l-9.501-2.381c-.319-.08-.593-.283-.771-.57l-5.187-8.352c-2.998-4.826-8.171-7.707-13.84-7.707s-10.842 2.882-13.84 7.707l-5.186 8.352c-.179.288-.453.49-.773.57l-9.501 2.382c-5.476 1.373-9.793 5.406-11.546 10.789-1.759 5.4-.639 11.224 2.996 15.581l6.294 7.542c.224.269.334.613.309.967l-.684 9.825c-.396 5.681 2.116 11.065 6.719 14.4 2.835 2.054 6.16 3.109 9.525 3.109 2.069 0 4.154-.399 6.148-1.21l9.076-3.691c.299-.121.63-.121.928 0l9.077 3.691c5.236 2.13 11.093 1.419 15.672-1.898 4.603-3.336 7.115-8.719 6.719-14.401l-.685-9.822c-.024-.356.086-.7.309-.968zm-11.54-9.629-6.295 7.544c-2.722 3.262-4.058 7.395-3.763 11.64l.685 9.823c.035.501-.148.899-.544 1.187-.37.269-.772.319-1.192.147l-9.078-3.692c-3.95-1.605-8.299-1.606-12.249.001l-9.077 3.691c-.421.171-.822.122-1.192-.147-.396-.288-.579-.686-.545-1.186l.685-9.824c.296-4.244-1.04-8.378-3.763-11.641l-6.294-7.542c-.397-.475-.352-.968-.245-1.297.15-.46.456-.751.91-.865l9.499-2.381c4.127-1.033 7.638-3.598 9.888-7.22l5.187-8.352c.25-.404.611-.608 1.072-.608s.821.203 1.072.608l5.187 8.352c2.249 3.622 5.762 6.187 9.887 7.22l9.499 2.38c.454.115.761.406.911.866.107.329.152.821-.245 1.296z"></path><path d="m155.747 234.278c3.753-9.432-9.711-15.093-13.851-5.909-.301.588-2.611 4.559-10.138 4.559-7.528 0-9.838-3.971-10.138-4.559-4.141-9.184-17.604-3.524-13.851 5.909 2.096 5.091 9.508 13.709 23.99 13.709 14.48-.001 21.892-8.618 23.988-13.709z"></path><path d="m390.379 228.369c-.301.588-2.611 4.559-10.138 4.559s-9.837-3.971-10.138-4.559c-4.141-9.184-17.604-3.524-13.851 5.909 2.096 5.091 9.508 13.709 23.99 13.709s21.893-8.618 23.99-13.709c3.751-9.433-9.713-15.093-13.853-5.909z"></path></g></svg>