<!-- icon666.com - MILLIONS OF FREE VECTOR ICONS --><svg xmlns="http://www.w3.org/2000/svg"  version="1.1" id="Apartment" x="0px" y="0px" viewBox="0 0 144.083 144" enable-background="new 0 0 144.083 144" xml:space="preserve"><path d="M121.512,63.078l-8.689-29.748c-0.374-1.279-1.547-2.159-2.88-2.159H62.916V19.919c0-1.657-1.343-3-2.999-3h-14.25 c-1.657,0-3,1.343-3,3v11.252H34.14c-1.333,0-2.506,0.879-2.88,2.159L22.57,63.078c-0.265,0.907-0.087,1.885,0.479,2.641 c0.566,0.756,1.456,1.201,2.4,1.201h3.368v57.162c0,1.657,1.343,3,3,3h81.529c1.657,0,3-1.343,3-3V66.919h2.285 c0.944,0,1.834-0.445,2.4-1.201C121.599,64.963,121.777,63.984,121.512,63.078z M114.63,60.919h-9.633V46.5h5.421L114.63,60.919z M54.063,46.5v14.419h-8.979V46.5H54.063z M60.063,46.5h8.978v14.419h-8.978V46.5z M75.041,46.5h8.979v14.419h-8.979V46.5z M90.019,46.5h8.979v14.419h-8.979V46.5z M48.667,22.919h8.25v8.252h-8.25V22.919z M107.694,37.171l0.973,3.329h-73.25l0.973-3.329 H107.694z M33.664,46.5h5.421v14.419h-9.633L33.664,46.5z M110.347,121.081H34.818V66.919h75.529V121.081z"></path><path d="M44.416,110.58h20.666c1.657,0,3-1.343,3-3V89.168c0-7.352-5.98-13.333-13.332-13.333c-7.353,0-13.334,5.981-13.334,13.333 v18.412C41.416,109.237,42.759,110.58,44.416,110.58z M47.416,104.58v-6.75h14.666v6.75H47.416z M54.75,81.835 c4.043,0,7.332,3.29,7.332,7.333v2.662H47.416v-2.662C47.416,85.125,50.706,81.835,54.75,81.835z"></path><path d="M79.001,110.58h20.666c1.657,0,3-1.343,3-3V89.168c0-7.352-5.981-13.333-13.334-13.333c-7.352,0-13.332,5.981-13.332,13.333 v18.412C76.001,109.237,77.344,110.58,79.001,110.58z M82.001,104.58v-6.75h14.666v6.75H82.001z M89.333,81.835 c4.044,0,7.334,3.29,7.334,7.333v2.662H82.001v-2.662C82.001,85.125,85.291,81.835,89.333,81.835z"></path></svg>