<!-- icon666.com - MILLIONS OF FREE VECTOR ICONS --><svg version="1.1" id="Capa_1" xmlns="http://www.w3.org/2000/svg"  x="0px" y="0px" viewBox="0 0 512 512" style="enable-background:new 0 0 512 512;" xml:space="preserve"><g><g><path d="M478.593,181.722v-59.046c0-0.188-0.018-0.371-0.028-0.556c0.005-0.135,0.028-0.266,0.028-0.401 c0-3.764-2.115-7.21-5.471-8.915L253.153,1.084c-2.846-1.445-6.21-1.445-9.056,0L24.128,112.805 c-3.357,1.705-5.471,5.15-5.471,8.915s2.115,7.21,5.471,8.915l98.514,50.035v31.648c0,2.765,1.157,5.365,3.125,7.235 c-8.197,8.381-15.544,17.624-21.978,27.673c-51.13,79.863-27.753,186.433,52.11,237.563 c28.285,18.108,60.464,27.212,92.718,27.211c29.265-0.001,58.593-7.498,85.108-22.565c4.801-2.729,6.481-8.832,3.753-13.633 c-2.728-4.8-8.832-6.482-13.633-3.753c-23.442,13.32-49.354,19.947-75.225,19.945c-0.461,0-0.922-0.02-1.384-0.024 c-2.188-6.099-2.022-14.594,4.992-21.235l45.283-42.873c7.657-7.25,10.038-18.644,5.922-28.354l-11.964-28.226 c-1.28-3.021-3.105-5.729-5.425-8.05l-4.863-4.863c-1.539-1.538-1.641-3.33-1.564-4.259c0.077-0.93,0.468-2.682,2.236-3.948 l21.985-15.765c1.701-1.22,3.977-1.343,5.8-0.316l11.608,6.544c9.239,5.207,20.868,4.086,28.94-2.79 c12.627-10.755,18.055-26.849,14.521-43.055c-3.535-16.206-15.173-28.578-31.132-33.096l-8.668-2.455 c-2.06-0.583-3.024-2.065-3.416-2.896c-0.321-0.681-0.733-1.938-0.396-3.446c4.164-5.569,4.83-13.049,1.528-19.363l-10.15-19.402 c3.33-0.346,6.691-0.536,10.079-0.536c3.869,0,7.704,0.231,11.494,0.679c67.583,45.901,86.75,138.631,42.574,207.632 c-2.978,4.65-1.621,10.833,3.03,13.811c1.669,1.069,3.536,1.58,5.381,1.58c3.295,0,6.521-1.628,8.43-4.608 c24.518-38.296,32.829-83.881,23.408-128.361c-6.884-32.495-22.662-61.683-45.441-84.823c2.002-1.873,3.18-4.497,3.18-7.288 V180.67l83.988-42.658v43.71c-8.679,3.849-14.75,12.542-14.75,22.631v59.167c0,5.522,4.476,9.999,9.999,9.999h29.5 c5.522,0,9.999-4.476,9.999-9.999v-59.167C493.343,194.263,487.272,185.572,478.593,181.722z M148.557,436.775l10.029,24.355 c0.238,0.577,0.44,1.145,0.638,1.712C94.704,415.968,77.082,326.03,120.63,258.006c1.69-2.64,3.459-5.208,5.289-7.72l-2.063,9.071 c-2.214,9.843,1.216,19.982,8.95,26.46l13.902,11.644c2.46,2.061,3.159,5.496,1.698,8.354l-12.585,24.625 c-4.285,8.386-3.909,18.186,1.006,26.219c4.916,8.033,13.472,12.828,22.89,12.828c3.39,0,5.164,2.216,5.77,3.169 c0.606,0.953,1.86,3.5,0.422,6.57l-16.84,35.948C145.888,421.966,145.701,429.84,148.557,436.775z M319.458,278.468l8.668,2.455 c8.736,2.474,15.107,9.247,17.042,18.117c1.935,8.871-1.037,17.682-7.949,23.569c-1.718,1.462-4.19,1.7-6.154,0.593l-11.608-6.544 c-8.573-4.832-19.277-4.248-27.272,1.485l-21.986,15.765c-6.072,4.353-9.904,11.122-10.514,18.568 c-0.61,7.446,2.072,14.748,7.354,20.031l4.863,4.863c0.494,0.493,0.882,1.069,1.154,1.712l11.964,28.228 c0.875,2.065,0.369,4.488-1.259,6.03l-45.283,42.872c-9.505,8.999-13.779,21.689-12.131,34.119 c-15.797-2.349-31.296-7.204-45.908-14.557c0.851-7.383-0.265-14.724-3.367-22.257l-10.029-24.356 c-0.728-1.767-0.68-3.772,0.131-5.503l16.84-35.948c3.915-8.357,3.296-17.995-1.656-25.782 c-4.951-7.787-13.417-12.436-22.645-12.436c-3.458,0-5.23-2.286-5.832-3.269c-0.602-0.983-1.831-3.601-0.257-6.681l12.585-24.625 c5.732-11.215,2.992-24.698-6.664-32.784l-13.902-11.644c-1.972-1.651-2.846-4.234-2.287-6.719l9.527-41.899 c3.272-2.651,6.658-5.174,10.164-7.559c3.923-0.48,7.893-0.726,11.901-0.726c25.034,0,48.785,9.56,66.878,26.916 c1.935,1.856,4.428,2.784,6.922,2.784s4.987-0.928,6.922-2.784c10.537-10.109,23.001-17.55,36.512-22.021l12.168,23.256 c-0.485,0.633-0.894,1.323-1.217,2.055c-2.965,6.729-2.868,14.404,0.264,21.057C306.53,271.501,312.383,276.465,319.458,278.468z M374.608,158.241v-36.784c0-4.305-2.756-8.127-6.841-9.487c-1.509-0.502-37.476-12.353-83.429-17.116 c-5.496-0.568-10.406,3.422-10.976,8.915s3.423,10.407,8.915,10.977c32.34,3.352,60.012,10.56,72.334,14.121v69.183 c-10.367-2.965-21.1-4.46-32.058-4.46c-27.122,0-52.995,9.293-73.8,26.342c-20.804-17.049-46.677-26.342-73.8-26.342 c-11.05,0-21.868,1.521-32.313,4.534v-69.261c12.468-3.607,40.664-10.952,73.653-14.251c5.495-0.549,9.504-5.449,8.954-10.943 c-0.549-5.495-5.454-9.508-10.943-8.954c-46.602,4.661-83.28,16.745-84.819,17.257c-4.084,1.36-6.841,5.182-6.841,9.487v36.784 l-71.907-36.521l197.89-100.509l197.889,100.507L374.608,158.241z M473.346,253.521h-9.503v-49.168 c0-2.576,2.176-4.751,4.751-4.751c2.576,0,4.751,2.176,4.751,4.751V253.521z"></path></g></g><g><g><path d="M367.816,450.165c-3.809-3.997-10.139-4.147-14.136-0.339l-0.215,0.206c-3.982,3.825-4.109,10.155-0.284,14.137 c1.963,2.044,4.585,3.072,7.212,3.072c2.492,0,4.986-0.926,6.925-2.789l0.159-0.151 C371.474,460.491,371.626,454.163,367.816,450.165z"></path></g></g><g><g><path d="M249.063,92.931h-0.438c-5.522,0-9.999,4.476-9.999,9.999c0,5.522,4.476,9.999,9.999,9.999h0.438 c5.522,0,9.999-4.476,9.999-9.999C259.062,97.407,254.586,92.931,249.063,92.931z"></path></g></g></svg>