<!-- icon666.com - MILLIONS OF FREE VECTOR ICONS --><svg id="Capa_1" enable-background="new 0 0 512 512" viewBox="0 0 512 512" xmlns="http://www.w3.org/2000/svg" xmlns:xlink="http://www.w3.org/1999/xlink"><linearGradient id="lg1"><stop offset="0" stop-color="#ff6668"></stop><stop offset="1" stop-color="#fffa78"></stop></linearGradient><linearGradient id="SVGID_1_" gradientUnits="userSpaceOnUse" x1="74.981" x2="437.02" xlink:href="#lg1" y1="437.02" y2="74.981"></linearGradient><radialGradient id="SVGID_2_" cx="258.597" cy="183.048" gradientTransform="matrix(1 0 0 1.091 .446 -17.783)" gradientUnits="userSpaceOnUse" r="306.065"><stop offset="0" stop-color="#ff6668" stop-opacity=".6"></stop><stop offset=".1105" stop-color="#ff8154" stop-opacity=".534"></stop><stop offset=".3034" stop-color="#ffa936" stop-opacity=".418"></stop><stop offset=".4929" stop-color="#ffc91f" stop-opacity=".304"></stop><stop offset=".6754" stop-color="#ffe00e" stop-opacity=".195"></stop><stop offset=".848" stop-color="#ffed03" stop-opacity=".091"></stop><stop offset="1" stop-color="#fff200" stop-opacity="0"></stop></radialGradient><linearGradient id="lg2"><stop offset="0" stop-color="#ffcb00"></stop><stop offset=".2136" stop-color="#ffda49"></stop><stop offset=".4253" stop-color="#ffe78a"></stop><stop offset=".6156" stop-color="#fff1bc"></stop><stop offset=".7808" stop-color="#fff9e1"></stop><stop offset=".9145" stop-color="#fffdf7"></stop><stop offset="1" stop-color="#fff"></stop></linearGradient><linearGradient id="SVGID_3_" gradientUnits="userSpaceOnUse" x1="54.986" x2="369.024" xlink:href="#lg2" y1="395.693" y2="81.654"></linearGradient><linearGradient id="SVGID_4_" gradientUnits="userSpaceOnUse" x1="183.036" x2="333.696" y1="181.533" y2="181.533"><stop offset="0" stop-color="#ff8c00"></stop><stop offset=".0442" stop-color="#ff9f29" stop-opacity=".956"></stop><stop offset=".0992" stop-color="#ffb356" stop-opacity=".901"></stop><stop offset=".16" stop-color="#ffc57e" stop-opacity=".84"></stop><stop offset=".2251" stop-color="#ffd5a1" stop-opacity=".775"></stop><stop offset=".2956" stop-color="#ffe2be" stop-opacity=".704"></stop><stop offset=".3736" stop-color="#ffedd6" stop-opacity=".626"></stop><stop offset=".4619" stop-color="#fff5e9" stop-opacity=".538"></stop><stop offset=".5668" stop-color="#fffbf5" stop-opacity=".433"></stop><stop offset=".7044" stop-color="#fffefd" stop-opacity=".296"></stop><stop offset="1" stop-color="#fff" stop-opacity="0"></stop></linearGradient><linearGradient id="SVGID_5_" gradientTransform="matrix(-1 0 0 1 512 0)" gradientUnits="userSpaceOnUse" x1="180.439" x2="331.099" y1="181.533" y2="181.533"><stop offset="0" stop-color="#ff8c00"></stop><stop offset=".0055" stop-color="#ff8f07" stop-opacity=".995"></stop><stop offset=".0473" stop-color="#ffa435" stop-opacity=".953"></stop><stop offset=".0943" stop-color="#ffb861" stop-opacity=".906"></stop><stop offset=".1446" stop-color="#ffc987" stop-opacity=".855"></stop><stop offset=".1994" stop-color="#ffd8a7" stop-opacity=".801"></stop><stop offset=".2597" stop-color="#ffe4c3" stop-opacity=".74"></stop><stop offset=".3276" stop-color="#ffeed9" stop-opacity=".672"></stop><stop offset=".4066" stop-color="#fff6ea" stop-opacity=".593"></stop><stop offset=".5037" stop-color="#fffbf6" stop-opacity=".496"></stop><stop offset=".6387" stop-color="#fffefd" stop-opacity=".361"></stop><stop offset="1" stop-color="#fff" stop-opacity="0"></stop></linearGradient><linearGradient id="SVGID_6_" gradientUnits="userSpaceOnUse" x1="130.753" x2="296.874" xlink:href="#lg2" y1="258.456" y2="92.335"></linearGradient><linearGradient id="SVGID_7_" gradientUnits="userSpaceOnUse" x1="181.752" x2="288.636" xlink:href="#lg2" y1="192.115" y2="85.231"></linearGradient><linearGradient id="SVGID_8_" gradientUnits="userSpaceOnUse" x1="101.51" x2="267.187" xlink:href="#lg2" y1="257.035" y2="91.359"></linearGradient><linearGradient id="SVGID_9_" gradientUnits="userSpaceOnUse" x1="165.21" x2="272.401" xlink:href="#lg2" y1="178.039" y2="70.849"></linearGradient><linearGradient id="SVGID_10_" gradientUnits="userSpaceOnUse" x1="131.637" x2="296.746" xlink:href="#lg2" y1="196.063" y2="30.954"></linearGradient><linearGradient id="SVGID_11_" gradientUnits="userSpaceOnUse" x1="182.105" x2="288.926" xlink:href="#lg2" y1="130.365" y2="23.544"></linearGradient><linearGradient id="SVGID_12_" gradientUnits="userSpaceOnUse" x1="108.249" x2="272.693" xlink:href="#lg2" y1="200.083" y2="35.639"></linearGradient><linearGradient id="SVGID_13_" gradientUnits="userSpaceOnUse" x1="172.028" x2="269.684" xlink:href="#lg2" y1="112.171" y2="14.514"></linearGradient><linearGradient id="SVGID_14_" gradientUnits="userSpaceOnUse" x1="-41.188" x2="387.565" xlink:href="#lg1" y1="543.951" y2="115.198"></linearGradient><radialGradient id="SVGID_15_" cx="87.285" cy="231.033" gradientTransform="matrix(1 0 0 .993 0 1.652)" gradientUnits="userSpaceOnUse" r="469.665"><stop offset="0" stop-color="#ff6668" stop-opacity=".5"></stop><stop offset=".0856" stop-color="#ff735c" stop-opacity=".457"></stop><stop offset=".3096" stop-color="#ff8e40" stop-opacity=".345"></stop><stop offset=".5363" stop-color="#ffa12d" stop-opacity=".232"></stop><stop offset=".7653" stop-color="#ffad21" stop-opacity=".117"></stop><stop offset="1" stop-color="#ffb11d" stop-opacity="0"></stop></radialGradient><linearGradient id="SVGID_16_" gradientUnits="userSpaceOnUse" x1="-162.147" x2="329.157" xlink:href="#lg1" y1="578.686" y2="87.382"></linearGradient><linearGradient id="SVGID_17_" gradientTransform="matrix(-1 0 0 1 512 0)" gradientUnits="userSpaceOnUse" x1="421.989" x2="18.751" xlink:href="#lg1" y1="620.868" y2="217.63"></linearGradient><radialGradient id="SVGID_18_" cx="87.285" cy="231.033" gradientTransform="matrix(-1 0 0 .993 512 1.652)" gradientUnits="userSpaceOnUse" r="469.665"><stop offset="0" stop-color="#ff6668" stop-opacity=".3"></stop><stop offset=".0856" stop-color="#ff735c" stop-opacity=".274"></stop><stop offset=".3096" stop-color="#ff8e40" stop-opacity=".207"></stop><stop offset=".5363" stop-color="#ffa12d" stop-opacity=".139"></stop><stop offset=".7653" stop-color="#ffad21" stop-opacity=".07"></stop><stop offset="1" stop-color="#ffb11d" stop-opacity="0"></stop></radialGradient><linearGradient id="SVGID_19_" gradientTransform="matrix(-1 0 0 1 511.555 -1.076)" gradientUnits="userSpaceOnUse" x1="431.992" x2="59.264" xlink:href="#lg1" y1="593.811" y2="221.084"></linearGradient><linearGradient id="SVGID_20_" gradientTransform="matrix(-1 0 0 1 511.555 -1.076)" gradientUnits="userSpaceOnUse" x1="486.687" x2="119.586" xlink:href="#lg1" y1="572.833" y2="205.732"></linearGradient><g><circle cx="256" cy="256" fill="url(#SVGID_1_)" r="256"></circle><path d="m256 0c-141.385 0-256 114.615-256 256s114.615 256 256 256 256-114.615 256-256-114.615-256-256-256z" fill="url(#SVGID_2_)"></path><path d="m302.035 166.24c-6.71-.022-12.424-4.346-14.523-10.359-1.076-3.08-4.095-5.058-7.345-5.066-8.067-5.141-16.123-10.277-24.166-15.402-8.043 5.125-16.099 10.261-24.166 15.402-3.249.008-6.269 1.985-7.345 5.066-2.099 6.013-7.813 10.337-14.523 10.359-10.259 8.734-20.53 17.464-30.799 26.172 10.21 11.712 20.455 23.466 30.71 35.241 17.291.009 33.266-5.732 46.124-15.407 12.856 9.675 28.833 15.417 46.124 15.407 10.254-11.775 20.5-23.53 30.71-35.241-10.272-8.708-20.543-17.438-30.801-26.172z" fill="url(#SVGID_3_)"></path><path d="m302.035 166.24c-6.71-.022-12.424-4.346-14.523-10.359-1.076-3.08-4.095-5.058-7.345-5.066-8.067-5.141-16.123-10.277-24.166-15.402-8.043 5.125-16.099 10.261-24.166 15.402-3.249.008-6.269 1.985-7.345 5.066-2.099 6.013-7.813 10.337-14.523 10.359-10.259 8.734-20.53 17.464-30.799 26.172 10.21 11.712 20.455 23.466 30.71 35.241 17.291.009 33.266-5.732 46.124-15.407 12.856 9.675 28.833 15.417 46.124 15.407 10.254-11.775 20.5-23.53 30.71-35.241-10.272-8.708-20.543-17.438-30.801-26.172z" fill="url(#SVGID_4_)"></path><path d="m209.966 166.24c6.71-.022 12.425-4.346 14.523-10.359 1.075-3.08 4.096-5.058 7.345-5.066 8.067-5.141 16.123-10.277 24.166-15.402 8.043 5.125 16.099 10.261 24.166 15.402 3.25.008 6.269 1.985 7.345 5.066 2.099 6.013 7.813 10.337 14.523 10.359 10.259 8.734 20.53 17.464 30.799 26.172-10.21 11.712-20.455 23.466-30.71 35.241-17.292.009-33.266-5.732-46.124-15.407-12.857 9.675-28.832 15.417-46.124 15.407-10.254-11.775-20.5-23.53-30.71-35.241 10.271-8.708 20.542-17.438 30.801-26.172z" fill="url(#SVGID_5_)"></path><path d="m278.909 120.073c-12.743-5.162-25.461-10.298-38.148-15.392 2.504 15.367 5.033 30.737 7.576 46.109 10.217-.007 20.434 0 30.651.022 4.232.01 7.654-3.421 7.64-7.664-.016-5.122-.034-10.244-.053-15.365-.015-4.242-3.45-7.696-7.666-7.71z" fill="url(#SVGID_6_)"></path><path d="m256 143.1c0-5.125 0-10.25 0-15.375-.001-4.246-3.419-7.688-7.636-7.684-2.54-5.122-5.075-10.242-7.603-15.361-2.552 5.13-5.109 10.261-7.67 15.392-4.216.013-7.649 3.468-7.666 7.71-.019 5.122-.037 10.244-.053 15.365-.015 4.243 3.407 7.672 7.64 7.664 5.109-.011 10.217-.018 15.325-.022 4.233-.001 7.664-3.444 7.663-7.689z" fill="url(#SVGID_7_)"></path><path d="m278.801 89.334c-12.631-5.175-25.229-10.312-37.788-15.399 2.424 15.365 4.878 30.735 7.351 46.106 10.182-.011 20.363 0 30.545.031 4.217.013 7.624-3.411 7.604-7.655-.022-5.122-.046-10.244-.072-15.365-.023-4.242-3.443-7.7-7.64-7.718z" fill="url(#SVGID_8_)"></path><path d="m256 112.35c0-5.125 0-10.25 0-15.375-.001-4.245-3.404-7.688-7.6-7.682-2.47-5.121-4.932-10.241-7.387-15.358-2.598 5.132-5.203 10.265-7.814 15.399-4.197.016-7.619 3.476-7.64 7.719-.026 5.122-.05 10.244-.072 15.365-.02 4.243 3.386 7.667 7.604 7.655 5.091-.016 10.182-.026 15.273-.031 4.217-.006 7.638-3.446 7.636-7.692z" fill="url(#SVGID_9_)"></path><path d="m278.834 58.423c-12.616-5.187-25.192-10.327-37.721-15.406 2.455 15.363 4.945 30.732 7.458 46.103 10.134-.013 20.267.001 30.4.042 4.198.016 7.583-3.403 7.558-7.646-.029-5.122-.06-10.244-.091-15.365-.027-4.243-3.433-7.708-7.604-7.728z" fill="url(#SVGID_10_)"></path><path d="m256.171 81.427c0-5.125 0-10.25 0-15.375-.002-4.245-3.384-7.688-7.555-7.681-2.51-5.121-5.011-10.239-7.503-15.354-2.527 5.133-5.064 10.268-7.607 15.404-4.171.021-7.576 3.484-7.603 7.727-.032 5.122-.062 10.244-.09 15.366-.025 4.243 3.36 7.664 7.558 7.647 5.067-.02 10.134-.034 15.2-.041 4.198-.006 7.602-3.447 7.6-7.693z" fill="url(#SVGID_11_)"></path><path d="m278.5 27.856c-10-.06-20-.08-30-.06-.02 10.25-.038 20.499-.055 30.749 10.073-.017 20.146 0 30.22.051 4.173.02 7.534-3.395 7.504-7.638-.035-5.122-.072-10.244-.11-15.365-.034-4.245-3.418-7.712-7.559-7.737z" fill="url(#SVGID_12_)"></path><path d="m256 50.85c0-5.125 0-10.25 0-15.375-.001-4.245-3.36-7.688-7.5-7.68-5 .01-10 .03-15 .06-4.141.025-7.526 3.494-7.558 7.735-.038 5.122-.075 10.244-.11 15.365-.031 4.244 3.331 7.659 7.504 7.638 5.037-.026 10.073-.042 15.11-.051 4.172-.005 7.556-3.446 7.554-7.692z" fill="url(#SVGID_13_)"></path><path d="m80.034 304.821c-.024.045-14.557 37.253-12.907 74.679.715 16.541 14.832 30.666 31.373 31.387 30 1.267 60 2.172 90 2.714 24.694.464 44.823-20.204 44.764-45.566-.091-20.493-.163-40.985-.216-61.478-51.005-.133-102.009-.712-153.014-1.736z" fill="url(#SVGID_14_)"></path><path d="m80.034 304.821c-.024.045-14.557 37.253-12.907 74.679.715 16.541 14.832 30.666 31.373 31.387 30 1.267 60 2.172 90 2.714 24.694.464 44.823-20.204 44.764-45.566-.091-20.493-.163-40.985-.216-61.478-51.005-.133-102.009-.712-153.014-1.736z" fill="url(#SVGID_15_)"></path><path d="m209.876 227.654c-.009-22.674.028-45.347.112-68.021.062-21.797-17.399-39.369-39.052-39.106-9.18.105-18.111 3.451-25.252 9.414-51.837 43.448-82.54 105.542-81.034 170.758.552 26.267 1.378 52.535 2.476 78.802-.711-16.476 12.531-29.505 29.266-29.054 30.401.864 60.803 1.48 91.204 1.85 25.043.321 45.482-20.375 45.451-45.739-.048-18.615-.08-37.229-.097-55.843-.01-12.735-10.336-23.058-23.074-23.061z" fill="url(#SVGID_16_)"></path><path d="m431.966 304.821c.025.045 14.557 37.253 12.907 74.679-.713 16.541-14.833 30.666-31.373 31.387-30 1.267-60 2.172-90 2.714-24.693.464-44.823-20.204-44.764-45.566.091-20.493.163-40.985.216-61.478 51.005-.133 102.01-.712 153.014-1.736z" fill="url(#SVGID_17_)"></path><path d="m431.966 304.821c.025.045 14.557 37.253 12.907 74.679-.713 16.541-14.833 30.666-31.373 31.387-30 1.267-60 2.172-90 2.714-24.693.464-44.823-20.204-44.764-45.566.091-20.493.163-40.985.216-61.478 51.005-.133 102.01-.712 153.014-1.736z" fill="url(#SVGID_18_)"></path><path d="m302.124 227.654c-12.737.003-23.064 10.327-23.074 23.061-.017 18.615-.049 37.229-.097 55.843-.032 25.362 20.408 46.06 45.451 45.739 30.401-.37 60.803-.987 91.204-1.85 16.736-.45 29.976 12.578 29.266 29.054 1.099-26.267 1.924-52.535 2.476-78.802.383.834-143.681-70.014-145.226-73.045z" fill="url(#SVGID_19_)"></path><path d="m447.35 300.699c1.506-65.217-29.197-127.31-81.034-170.758-7.141-5.964-16.073-9.308-25.252-9.414-21.653-.263-39.113 17.308-39.052 39.106.084 22.674.121 45.347.112 68.021 27.629 53.91 85.865 83.472 145.226 73.045z" fill="url(#SVGID_20_)"></path></g></svg>