<!-- icon666.com - MILLIONS OF FREE VECTOR ICONS --><svg id="Capa_1" enable-background="new 0 0 511.966 511.966" viewBox="0 0 511.966 511.966" xmlns="http://www.w3.org/2000/svg"><g><g><g><path d="m425.133 499.264c-70.94 6.945-141.881 6.945-212.821 0-18.523-1.813-33.101-16.693-34.517-35.251-6.516-85.404-6.516-170.808 0-256.212 1.416-18.558 15.994-33.437 34.517-35.251 70.941-6.945 141.881-6.945 212.821 0 18.523 1.813 33.101 16.693 34.517 35.251 6.516 85.404 6.516 170.808 0 256.212-1.416 18.558-15.994 33.438-34.517 35.251z" fill="#dd636e"></path><path d="m425.192 337.06c-.02 17.244-14.051 31.197-31.295 31.197h-150.352c-17.244 0-31.275-13.952-31.295-31.197-.02-32.818.924-65.635 2.859-98.365.924-15.721 13.383-28.278 29.094-29.388 24.888-1.769 49.796-2.663 74.518-2.663 24.721 0 49.629.894 74.518 2.663 15.711 1.11 28.17 13.667 29.094 29.388 1.935 32.73 2.879 65.547 2.859 98.365z" fill="#f5de87"></path><path d="m422.829 247.477h-7.29c-17.25 0-31.28-13.95-31.3-31.2 0-2.52 0-5.05.01-7.57 3 .19 5.99.39 8.99.6 15.71 1.11 28.17 13.67 29.1 29.39.17 2.93.34 5.85.49 8.78z" fill="#ecf4ff"></path></g><path d="m299.656 339.397c-70.94 6.945-141.881 6.945-212.821 0-18.523-1.813-33.101-16.693-34.517-35.251-6.516-85.404-6.516-170.808 0-256.212 1.416-18.558 15.994-33.437 34.517-35.251 70.94-6.945 141.881-6.945 212.821 0 18.523 1.813 33.101 16.693 34.517 35.251 6.516 85.404 6.516 170.808 0 256.212-1.416 18.559-15.994 33.438-34.517 35.251z" fill="#95d6a4"></path><path d="m299.711 177.195c-.02 17.24-14.05 31.2-31.29 31.2h-150.349c-17.25 0-31.28-13.96-31.3-31.2-.02-32.82.93-65.64 2.86-98.369.92-15.72 13.38-28.28 29.09-29.39 24.89-1.76 49.8-2.66 74.52-2.66 21.75 0 43.64.7 65.53 2.06 3 .19 5.99.39 8.99.6 15.71 1.11 28.17 13.67 29.1 29.39.17 2.93.34 5.85.49 8.78 1.599 29.819 2.379 59.699 2.359 89.589z" fill="#97ccfa"></path><path d="m297.351 87.605h-7.29c-17.25 0-31.28-13.95-31.3-31.2 0-2.52 0-5.05.01-7.57 3 .19 5.99.39 8.99.6 15.71 1.11 28.17 13.67 29.1 29.39.17 2.93.34 5.85.49 8.78z" fill="#ecf4ff"></path><circle cx="193.244" cy="138.03" fill="#b7e4fc" r="70.794"></circle><path d="m225.099 129.313-6.023 79.077h-51.664l-6.023-79.077 31.855-21.568z" fill="#ecf4ff"></path><path d="m193.244 107.745v100.645h-25.832l-6.023-79.077z" fill="#ddeafb"></path></g><g><path d="m467.123 207.234c-1.702-22.249-19.058-39.973-41.265-42.142-26.307-2.585-52.978-4.217-79.398-4.884-.351-37.71-1.953-75.393-4.811-112.843-1.695-22.245-19.049-39.97-41.262-42.145-71.094-6.96-143.189-6.96-214.283 0-22.213 2.175-39.567 19.899-41.265 42.145-6.514 85.383-6.514 171.969 0 257.353 1.697 22.245 19.051 39.969 41.264 42.144 26.363 2.581 52.865 4.2 79.401 4.867.352 37.492 1.958 75.417 4.813 112.859 1.702 22.248 19.058 39.971 41.266 42.142 35.56 3.487 71.466 5.236 107.267 5.236 16.958 0 33.896-.393 50.754-1.179 4.138-.193 7.335-3.704 7.142-7.841s-3.695-7.346-7.841-7.142c-51.733 2.412-104.172 1.067-155.861-4.002-14.946-1.461-26.626-13.387-27.771-28.356-2.819-36.97-4.409-74.417-4.766-111.441 4.245.049 8.491.077 12.737.077 4.835 0 9.67-.038 14.504-.101 5.946 14.251 19.908 23.773 35.792 23.773h150.36c21.364 0 38.765-17.353 38.79-38.686.02-33.066-.946-66.313-2.873-98.812-1.135-19.398-16.633-35.062-36.046-36.433-15.875-1.127-31.778-1.88-47.417-2.288.112-8.106.181-16.214.177-24.323 25.91.665 52.063 2.271 77.864 4.807 14.946 1.46 26.625 13.386 27.771 28.356 6.461 84.625 6.461 170.443 0 255.067-1.146 14.972-12.825 26.898-27.776 28.358-8.403.827-17.067 1.572-25.75 2.214-4.131.306-7.231 3.902-6.926 8.033.292 3.942 3.581 6.947 7.472 6.947.186 0 .373-.007.562-.021 8.802-.651 17.587-1.407 26.105-2.245 22.211-2.169 39.567-19.893 41.269-42.144 6.521-85.38 6.521-171.966.001-257.35zm-379.558 124.699c-14.949-1.463-26.628-13.389-27.77-28.356-6.457-84.627-6.457-170.445 0-255.071 1.142-14.968 12.821-26.893 27.77-28.357 70.124-6.865 141.235-6.865 211.359 0 14.949 1.464 26.627 13.389 27.77 28.357 6.456 84.626 6.456 170.444 0 255.071-1.142 14.967-12.82 26.893-27.77 28.356-70.123 6.865-141.235 6.865-211.359 0zm327.278-92.795c.016.273.029.549.046.822-12.659-.342-22.886-10.595-23.138-23.236.32.022.641.039.961.062 11.92.843 21.434 10.449 22.131 22.352zm-38.103-23.352c0 .167-.001.333-.001.5.025 21.334 17.43 38.691 38.8 38.691h.154c1.337 27.129 2.014 54.664 1.997 82.079-.015 13.067-10.687 23.698-23.79 23.698h-150.359c-7.55 0-14.392-3.502-18.787-9.14 25.277-.722 50.518-2.293 75.633-4.752 22.213-2.175 39.567-19.899 41.264-42.145 2.285-29.948 3.75-60.044 4.432-90.184 10.133.266 20.373.679 30.657 1.253z"></path><path d="m367.745 409.083c4.142 0 7.5-3.358 7.5-7.5s-3.358-7.5-7.5-7.5h-14.68c-4.142 0-7.5 3.358-7.5 7.5s3.358 7.5 7.5 7.5z"></path><path d="m349.747 434.91c0-4.142-3.358-7.5-7.5-7.5h-121.548c-4.142 0-7.5 3.358-7.5 7.5s3.358 7.5 7.5 7.5h121.549c4.142 0 7.499-3.358 7.499-7.5z"></path><path d="m220.699 451.667c-4.142 0-7.5 3.358-7.5 7.5s3.358 7.5 7.5 7.5h78.418c4.142 0 7.5-3.358 7.5-7.5s-3.358-7.5-7.5-7.5z"></path><path d="m407.899 409.083c4.142 0 7.5-3.358 7.5-7.5s-3.358-7.5-7.5-7.5h-14.68c-4.142 0-7.5 3.358-7.5 7.5s3.358 7.5 7.5 7.5z"></path><path d="m200.744 87.82v-20.585c0-4.142-3.358-7.5-7.5-7.5s-7.5 3.358-7.5 7.5v20.585c0 4.142 3.358 7.5 7.5 7.5s7.5-3.358 7.5-7.5z"></path><path d="m113.247 121.813c-4.142 0-7.5 3.358-7.5 7.5s3.358 7.5 7.5 7.5h20.585c4.142 0 7.5-3.358 7.5-7.5s-3.358-7.5-7.5-7.5z"></path><path d="m280.742 129.313c0-4.142-3.358-7.5-7.5-7.5h-20.585c-4.142 0-7.5 3.358-7.5 7.5s3.358 7.5 7.5 7.5h20.585c4.142 0 7.5-3.358 7.5-7.5z"></path><path d="m133.174 162.143-14.556 7.187c-3.714 1.834-5.238 6.331-3.405 10.045 1.307 2.647 3.966 4.181 6.731 4.181 1.115 0 2.247-.25 3.314-.776l14.556-7.187c3.714-1.834 5.238-6.331 3.405-10.045-1.834-3.715-6.33-5.239-10.045-3.405z"></path><path d="m239.595 77.268-9.643 9.643c-2.929 2.929-2.929 7.678 0 10.607 1.464 1.465 3.384 2.197 5.303 2.197s3.839-.732 5.303-2.197l9.643-9.643c2.929-2.929 2.929-7.678 0-10.607-2.928-2.928-7.677-2.929-10.606 0z"></path><path d="m151.233 99.714c1.919 0 3.839-.732 5.303-2.197 2.929-2.929 2.929-7.678 0-10.607l-9.643-9.643c-2.929-2.929-7.678-2.928-10.606 0-2.929 2.929-2.929 7.678 0 10.607l9.643 9.643c1.464 1.465 3.383 2.197 5.303 2.197z"></path><path d="m253.314 162.143c-3.714-1.834-8.212-.309-10.045 3.405s-.31 8.211 3.405 10.045l14.556 7.187c1.067.527 2.2.776 3.314.776 2.765 0 5.424-1.535 6.731-4.181 1.833-3.714.31-8.211-3.405-10.045z"></path><path d="m304.343 78.388c-1.135-19.398-16.633-35.061-36.049-36.433-25.135-1.778-50.385-2.679-75.049-2.679-24.663 0-49.913.901-75.048 2.678-19.416 1.372-34.914 17.035-36.048 36.427-1.265 21.311-2.12 43.038-2.542 64.577-.081 4.141 3.21 7.564 7.352 7.645 4.189.094 7.565-3.21 7.646-7.352.418-21.341 1.265-42.868 2.519-63.988.696-11.897 10.211-21.505 22.132-22.347 24.785-1.753 49.679-2.641 73.991-2.641 19.091 0 38.542.556 58.017 1.64 0 .166-.001.332-.001.498.025 21.334 17.43 38.691 38.8 38.691h.157c1.337 27.13 2.014 54.666 1.997 82.082-.015 13.067-10.688 23.699-23.79 23.699h-41.256l5.408-71.003c.204-2.684-1.045-5.271-3.274-6.78l-31.855-21.567c-2.539-1.719-5.87-1.719-8.41 0l-31.854 21.567c-2.229 1.509-3.478 4.096-3.274 6.78l5.408 71.003h-41.254c-13.103 0-23.775-10.631-23.79-23.69 0-1.363 0-2.725.01-4.098.029-4.142-3.305-7.523-7.447-7.553-.018 0-.036 0-.054 0-4.117 0-7.47 3.324-7.499 7.447-.01 1.408-.01 2.805-.01 4.212.025 21.329 17.426 38.681 38.79 38.681h150.36c21.364 0 38.765-17.353 38.79-38.686.019-33.065-.947-66.312-2.873-98.81zm-135.144 54.695 24.045-16.28 24.046 16.28-5.165 67.803h-11.381v-62.856c0-4.142-3.358-7.5-7.5-7.5s-7.5 3.358-7.5 7.5v62.856h-11.381zm97.074-76.23c.321.022.642.041.963.064 11.921.842 21.436 10.449 22.132 22.353.016.272.029.547.045.819-12.659-.34-22.888-10.593-23.14-23.236z"></path><path d="m242.268 234.216h-14.68c-4.142 0-7.5 3.358-7.5 7.5s3.358 7.5 7.5 7.5h14.68c4.142 0 7.5-3.358 7.5-7.5s-3.358-7.5-7.5-7.5z"></path><path d="m216.77 267.543h-121.548c-4.142 0-7.5 3.358-7.5 7.5s3.358 7.5 7.5 7.5h121.548c4.142 0 7.5-3.358 7.5-7.5s-3.357-7.5-7.5-7.5z"></path><path d="m173.64 291.799h-78.418c-4.142 0-7.5 3.358-7.5 7.5s3.358 7.5 7.5 7.5h78.418c4.142 0 7.5-3.358 7.5-7.5s-3.358-7.5-7.5-7.5z"></path><path d="m282.423 234.216h-14.68c-4.142 0-7.5 3.358-7.5 7.5s3.358 7.5 7.5 7.5h14.68c4.142 0 7.5-3.358 7.5-7.5s-3.358-7.5-7.5-7.5z"></path></g></g></svg>